SplineFontDB: 3.2
FontName: cuyabra-boldoblique
FullName: cuyabra bold oblique
FamilyName: cuyabra
Weight: Bold
Copyright: Copyright \\(c\\) 2016 by . All rights reserved.
Version: 001.001
ItalicAngle: -12
UnderlinePosition: -100
UnderlineWidth: 50
Ascent: 800
Descent: 200
InvalidEm: 0
sfntRevision: 0x00010000
LayerCount: 2
Layer: 0 0 "Back" 1
Layer: 1 0 "Fore" 0
XUID: [1021 796 -163880829 7675686]
StyleMap: 0x0021
FSType: 4
OS2Version: 3
OS2_WeightWidthSlopeOnly: 0
OS2_UseTypoMetrics: 0
CreationTime: 1464040505
ModificationTime: 1613865913
PfmFamily: 17
TTFWeight: 700
TTFWidth: 5
LineGap: 63
VLineGap: 0
Panose: 2 0 8 6 2 0 0 9 0 4
OS2TypoAscent: 737
OS2TypoAOffset: 0
OS2TypoDescent: -170
OS2TypoDOffset: 0
OS2TypoLinegap: 63
OS2WinAscent: 1013
OS2WinAOffset: 0
OS2WinDescent: 170
OS2WinDOffset: 0
HheadAscent: 737
HheadAOffset: 0
HheadDescent: -170
HheadDOffset: 0
OS2SubXSize: 700
OS2SubYSize: 650
OS2SubXOff: 0
OS2SubYOff: 140
OS2SupXSize: 700
OS2SupYSize: 650
OS2SupXOff: 0
OS2SupYOff: 477
OS2StrikeYSize: 50
OS2StrikeYPos: 250
OS2CapHeight: 737
OS2XHeight: 567
OS2FamilyClass: 2048
OS2Vendor: 'PYRS'
OS2CodePages: 00000001.00000000
OS2UnicodeRanges: 80000027.00000040.00000000.00000000
Lookup: 258 0 0 "'kern' Horizontal Kerning lookup 0" { "'kern' Horizontal Kerning lookup 0 subtable"  } ['kern' ('DFLT' <'dflt' > ) ]
DEI: 91125
LangName: 1033 "Copyright (c) 2016 by N+AMgA-stor Jairo Delgado Giraldo. All rights reserved." "" "bold oblique" "NstorJairoDelgadoGiraldo: cuyabra bold oblique: 2016" "" "Version 1.000" "" "cuyabra bold oblique is a trademark of N+AMgA-stor Jairo Delgado Giraldo." "N+AMgA-stor Jairo Delgado Giraldo" "N+AMgA-stor Jairo Delgado Giraldo" "Copyright (c) 2016 by . All rights reserved." "" "" "" "" "" "" "" "cuyabra bold oblique"
Encoding: UnicodeBmp
UnicodeInterp: none
NameList: AGL For New Fonts
DisplaySize: -48
AntiAlias: 1
FitToEm: 0
WinInfo: 44 22 5
BeginPrivate: 2
BlueValues 21 [0 0 567 567 737 737]
OtherBlues 11 [-170 -170]
EndPrivate

StartChar: e
Encoding: 101 101 4
Width: 603
Flags: MW
HStem: 0 113<123 307 194 283> 227 113<185 412 185 445 161 412> 453 114<250.5 403 290 379>
VStem: 32 509 424 117
LayerCount: 2
Fore
SplineSet
283 0 m 2xf0
 170 0 l 2
 76 0 16 76 36 170 c 2
 84 397 l 2
 104 491 196 567 290 567 c 2
 403 567 l 2xe8
 497 567 557 491 537 397 c 2
 513 283 l 2
 506 252 476 227 445 227 c 2
 161 227 l 1
 149 170 l 2
 142 139 163 113 194 113 c 2
 307 113 l 2
 333 113 358 131 370 154 c 0
 375 164 386 170 395 170 c 2
 465 170 l 2
 479 170 487 158 482 144 c 0
 452 63 368 0 283 0 c 2xf0
185 340 m 1
 412 340 l 1
 424 397 l 2
 430 428 411 453 379 453 c 2
 266 453 l 2
 235 453 203 428 197 397 c 2
 185 340 l 1
EndSplineSet
EndChar

StartChar: f
Encoding: 102 102 5
Width: 404
Flags: MW
HStem: 0 21G<16.5 23 23 91> 374 114<216 340 192 398> 624 113<286.5 462 326 404>
VStem: 4 476
LayerCount: 2
Fore
SplineSet
302 624 m 2
 271 624 240 598 233 567 c 2
 216 488 l 1
 398 488 l 2
 410 488 418 477 415 465 c 2
 408 431 l 2
 402 400 371 374 340 374 c 2
 192 374 l 1
 117 23 l 2
 115 10 103 0 91 0 c 2
 23 0 l 2
 10 0 2 10 4 23 c 2
 120 567 l 2
 140 661 232 737 326 737 c 2
 462 737 l 2
 475 737 483 727 480 714 c 2
 473 680 l 2
 466 649 435 624 404 624 c 2
 302 624 l 2
EndSplineSet
EndChar

StartChar: g
Encoding: 103 103 6
Width: 603
Flags: MW
HStem: -170 113<58.5 270 123 246> 34 113<130 371 201 347> 453 114<250.5 551 290 436>
VStem: 39 529
LayerCount: 2
Fore
SplineSet
551 567 m 2
 563 567 571 557 568 544 c 2
 453 0 l 2
 433 -94 340 -170 246 -170 c 2
 65 -170 l 2
 52 -170 44 -160 47 -147 c 2
 54 -113 l 2
 61 -82 92 -57 123 -57 c 2
 270 -57 l 2
 302 -57 333 -31 340 0 c 2
 347 34 l 1
 177 34 l 2
 83 34 23 110 43 204 c 2
 84 397 l 2
 104 491 196 567 290 567 c 2
 551 567 l 2
371 147 m 1
 436 453 l 1
 266 453 l 2
 235 453 203 428 197 397 c 2
 156 204 l 2
 149 173 170 147 201 147 c 2
 371 147 l 1
EndSplineSet
EndChar

StartChar: h
Encoding: 104 104 7
Width: 603
Flags: MW
HStem: 0 21G<16.5 23 23 91 356.5 363 363 431> 453 114<233 379 209 403> 717 20G<179 213 213 228.5>
VStem: 4 537 424 117
LayerCount: 2
Fore
SplineSet
403 567 m 2xe8
 497 567 557 491 537 397 c 2
 457 23 l 2
 455 10 443 0 431 0 c 2
 363 0 l 2
 350 0 342 10 344 23 c 2
 424 397 l 2
 430 428 411 453 379 453 c 2
 209 453 l 1
 117 23 l 2
 115 10 103 0 91 0 c 2
 23 0 l 2
 10 0 2 10 4 23 c 2
 151 714 l 2
 154 727 166 737 179 737 c 2
 213 737 l 2
 244 737 264 712 257 680 c 2
 233 567 l 1
 403 567 l 2xe8
EndSplineSet
EndChar

StartChar: i
Encoding: 105 105 8
Width: 263
Flags: MW
HStem: 0 21G<16.5 23 23 91> 547 20G<143 211 211 217> 601 113<143.5 208 174 208 208 218>
VStem: 4 249
LayerCount: 2
Fore
SplineSet
211 567 m 2
 223 567 231 557 228 544 c 2
 117 23 l 2
 115 10 103 0 91 0 c 2
 23 0 l 2
 10 0 2 10 4 23 c 2
 115 544 l 2
 118 557 130 567 143 567 c 2
 211 567 l 2
208 714 m 2
 239 714 259 689 252 658 c 2
 245 624 l 2
 242 611 230 601 218 601 c 2
 150 601 l 2
 137 601 129 611 132 624 c 2
 147 692 l 2
 149 704 161 714 174 714 c 2
 208 714 l 2
EndSplineSet
EndChar

StartChar: j
Encoding: 106 106 9
Width: 271
Flags: MW
HStem: -170 113<-159.5 -61 -95 -85> 547 20G<150 218 218 224.5> 601 113<151 215 181 215 215 225>
VStem: -171 432
LayerCount: 2
Fore
SplineSet
218 567 m 2
 231 567 239 557 236 544 c 2
 121 0 l 2
 101 -94 8 -170 -85 -170 c 2
 -153 -170 l 2
 -166 -170 -174 -160 -171 -147 c 2
 -164 -113 l 2
 -157 -82 -127 -57 -95 -57 c 2
 -61 -57 l 2
 -30 -57 0 -31 7 0 c 2
 122 544 l 2
 125 557 138 567 150 567 c 2
 218 567 l 2
215 714 m 2
 246 714 267 689 260 658 c 2
 253 624 l 2
 250 611 238 601 225 601 c 2
 157 601 l 2
 145 601 136 611 139 624 c 2
 154 692 l 2
 156 704 169 714 181 714 c 2
 215 714 l 2
EndSplineSet
EndChar

StartChar: k
Encoding: 107 107 10
Width: 577
Flags: MW
HStem: 0 21G 227 113<185 225 161 244> 547 20G<482 552 552 561.5> 717 20G<179 213 213 228.5>
VStem: 4 566
LayerCount: 2
Fore
SplineSet
453 0 m 2
 383 0 l 2
 366 0 351 8 343 21 c 2
 225 227 l 1
 161 227 l 1
 117 23 l 2
 115 10 103 0 91 0 c 2
 23 0 l 2
 10 0 2 10 4 23 c 2
 151 714 l 2
 154 727 166 737 179 737 c 2
 213 737 l 2
 244 737 264 712 257 680 c 2
 185 340 l 1
 244 340 l 1
 432 545 l 2
 446 559 465 567 482 567 c 2
 552 567 l 2
 571 567 577 545 562 530 c 2
 336 283 l 1
 478 37 l 2
 487 22 472 0 453 0 c 2
EndSplineSet
EndChar

StartChar: l
Encoding: 108 108 11
Width: 263
Flags: MW
HStem: 0 21G<16.5 23 23 91> 717 20G<179 213 213 228.5>
VStem: 4 254
LayerCount: 2
Fore
SplineSet
257 680 m 2
 117 23 l 2
 115 10 103 0 91 0 c 2
 23 0 l 2
 10 0 2 10 4 23 c 2
 151 714 l 2
 154 727 166 737 179 737 c 2
 213 737 l 2
 244 737 264 712 257 680 c 2
EndSplineSet
EndChar

StartChar: m
Encoding: 109 109 12
Width: 944
Flags: MW
HStem: 0 21G<16.5 23 23 91 356.5 363 363 431 363 363 431 431 696.5 703 703 771> 453 114<209 379 209 209 579.5 591 591 720>
VStem: 4 878 764 118
LayerCount: 2
Fore
SplineSet
744 567 m 2xd0
 838 567 898 491 878 397 c 2
 798 23 l 2
 796 10 783 0 771 0 c 2
 703 0 l 2
 690 0 682 10 684 23 c 2
 764 397 l 2
 770 428 751 453 720 453 c 2
 591 453 l 2
 568 453 545 435 540 412 c 2
 537 397 l 1
 537 397 537 397 537 397 c 1
 457 23 l 2
 455 10 443 0 431 0 c 1
 431 0 l 1
 363 0 l 1
 363 0 l 1
 350 0 342 10 344 23 c 2
 424 397 l 2
 430 428 411 453 379 453 c 2
 209 453 l 1
 117 23 l 2
 115 10 103 0 91 0 c 2
 23 0 l 2
 10 0 2 10 4 23 c 2
 115 544 l 2
 118 557 130 567 143 567 c 2
 403 567 l 2
 438 567 469 556 492 538 c 1
 516 556 545 567 573 567 c 2
 744 567 l 2xd0
EndSplineSet
EndChar

StartChar: n
Encoding: 110 110 13
Width: 603
Flags: MW
HStem: 0 21G<16.5 23 23 91 356.5 363 363 431> 453 114<209 379 209 209>
VStem: 4 537 424 117
LayerCount: 2
Fore
SplineSet
431 0 m 2xe0
 363 0 l 2
 350 0 342 10 344 23 c 2
 424 397 l 2
 430 428 411 453 379 453 c 2
 209 453 l 1
 117 23 l 2
 115 10 103 0 91 0 c 2
 23 0 l 2
 10 0 2 10 4 23 c 2
 115 544 l 2
 118 557 130 567 143 567 c 2
 403 567 l 2xd0
 497 567 557 491 537 397 c 2
 457 23 l 2
 455 10 443 0 431 0 c 2xe0
EndSplineSet
EndChar

StartChar: o
Encoding: 111 111 14
Width: 603
Flags: MW
HStem: 0 113<123 307 194 283> 453 114<250.5 403 290 379>
VStem: 32 509 424 117
LayerCount: 2
Fore
SplineSet
283 0 m 2xe0
 170 0 l 2
 76 0 16 76 36 170 c 2
 84 397 l 2
 104 491 196 567 290 567 c 2
 403 567 l 2xd0
 497 567 557 491 537 397 c 2
 489 170 l 2
 469 76 377 0 283 0 c 2xe0
379 453 m 2
 266 453 l 2
 235 453 203 428 197 397 c 2
 149 170 l 2
 142 139 163 113 194 113 c 2
 307 113 l 2
 339 113 369 139 376 170 c 2
 424 397 l 2
 430 428 411 453 379 453 c 2
EndSplineSet
EndChar

StartChar: p
Encoding: 112 112 15
Width: 603
Flags: MW
HStem: -170 21G<-19.5 -13 -13 20> 0 113<137 283 113 307> 453 114<209 209 209 379>
VStem: -31 572 424 117
LayerCount: 2
Fore
SplineSet
403 567 m 2xe8
 497 567 557 491 537 397 c 2
 489 170 l 2
 469 76 377 0 283 0 c 2
 113 0 l 1
 88 -113 l 2
 82 -145 51 -170 20 -170 c 2
 -13 -170 l 2
 -26 -170 -34 -160 -31 -147 c 2
 115 544 l 2
 118 557 130 567 143 567 c 2
 403 567 l 2xe8
209 453 m 1
 137 113 l 1
 307 113 l 2
 339 113 369 139 376 170 c 2
 424 397 l 2
 430 428 411 453 379 453 c 2
 209 453 l 1
EndSplineSet
EndChar

StartChar: q
Encoding: 113 113 16
Width: 603
Flags: MW
HStem: -170 21G<344 360 360 394> 0 113<123 364 194 340> 453 114<250.5 551 290 436>
VStem: 32 536
LayerCount: 2
Fore
SplineSet
290 567 m 2
 551 567 l 2
 563 567 571 557 568 544 c 2
 421 -147 l 2
 418 -160 406 -170 394 -170 c 2
 360 -170 l 2
 328 -170 309 -145 315 -113 c 2
 340 0 l 1
 170 0 l 2
 76 0 16 76 36 170 c 2
 84 397 l 2
 104 491 196 567 290 567 c 2
436 453 m 1
 266 453 l 2
 235 453 203 428 197 397 c 2
 149 170 l 2
 142 139 163 113 194 113 c 2
 364 113 l 1
 436 453 l 1
EndSplineSet
EndChar

StartChar: r
Encoding: 114 114 17
Width: 395
Flags: MW
HStem: 0 21G<16.5 23 23 91> 453 114<250.5 392 290 334>
VStem: 4 406
LayerCount: 2
Fore
SplineSet
117 23 m 2
 115 10 103 0 91 0 c 2
 23 0 l 2
 10 0 2 10 4 23 c 2
 84 397 l 2
 104 491 196 567 290 567 c 2
 392 567 l 2
 405 567 413 557 410 544 c 2
 403 510 l 2
 396 479 365 453 334 453 c 2
 266 453 l 2
 235 453 203 428 197 397 c 2
 117 23 l 2
EndSplineSet
EndChar

StartChar: s
Encoding: 115 115 18
Width: 565
Flags: MW
HStem: 0 113<-2.5 288 62 264> 227 113<152.5 234 199 234 225 234 234 301 301 311> 453 114<231 485 274 427>
VStem: 61 116 357 116
LayerCount: 2
Fore
SplineSet
333 340 m 2
 429 340 491 262 469 167 c 0
 448 75 357 0 264 0 c 2
 4 0 l 2
 -9 0 -16 10 -14 23 c 2
 -6 57 l 2
 0 88 30 113 62 113 c 2
 288 113 l 2
 321 113 352 140 357 173 c 0
 363 203 341 227 311 227 c 2
 301 227 l 1
 210 227 l 1
 199 227 l 2
 106 227 46 301 64 394 c 0
 82 489 179 567 274 567 c 2
 485 567 l 2
 497 567 506 557 503 544 c 2
 496 510 l 2
 489 479 458 453 427 453 c 2
 247 453 l 2
 215 453 183 426 177 394 c 0
 173 363 194 340 225 340 c 2
 234 340 l 1
 325 340 l 1
 333 340 l 2
EndSplineSet
EndChar

StartChar: t
Encoding: 116 116 19
Width: 415
Flags: MW
HStem: 0 113<123 262 194 262 262 272> 453 114<233 335 335 345 209 335>
VStem: 32 349
LayerCount: 2
Fore
SplineSet
194 113 m 2
 262 113 l 2
 293 113 313 88 307 57 c 2
 299 23 l 2
 297 10 285 0 272 0 c 2
 170 0 l 2
 76 0 16 76 36 170 c 2
 139 654 l 2
 141 667 153 677 166 677 c 2
 234 677 l 2
 246 677 254 667 252 654 c 2
 233 567 l 1
 335 567 l 2
 367 567 386 541 380 510 c 2
 373 476 l 2
 370 464 358 453 345 453 c 2
 209 453 l 1
 149 170 l 2
 142 139 163 113 194 113 c 2
EndSplineSet
EndChar

StartChar: u
Encoding: 117 117 20
Width: 603
Flags: MW
HStem: 0 113<123 307 194 283> 547 20G<143 177 177 192.5 517 551 551 557>
VStem: 32 536
LayerCount: 2
Fore
SplineSet
283 0 m 2
 170 0 l 2
 76 0 16 76 36 170 c 2
 115 544 l 2
 118 557 130 567 143 567 c 2
 177 567 l 2
 208 567 227 541 221 510 c 2
 149 170 l 2
 142 139 163 113 194 113 c 2
 307 113 l 2
 339 113 369 139 376 170 c 2
 448 510 l 2
 454 541 485 567 517 567 c 2
 551 567 l 2
 563 567 571 557 568 544 c 2
 489 170 l 2
 469 76 377 0 283 0 c 2
EndSplineSet
EndChar

StartChar: v
Encoding: 118 118 21
Width: 601
Flags: MW
HStem: 0 21G<197 209 209 243> 547 20G<114 162 162 174 529 578 578 586>
VStem: 85 511
LayerCount: 2
Fore
SplineSet
578 567 m 2
 594 567 602 551 592 536 c 2
 303 37 l 2
 291 15 267 0 243 0 c 2
 209 0 l 2
 185 0 167 15 162 37 c 2
 85 536 l 2
 84 551 98 567 114 567 c 2
 162 567 l 2
 186 567 204 552 208 530 c 2
 263 175 l 1
 468 530 l 2
 481 552 505 567 529 567 c 2
 578 567 l 2
EndSplineSet
EndChar

StartChar: w
Encoding: 119 119 22
Width: 935
Flags: MW
HStem: 0 21G<186 194 194 239 537.5 546 546 591> 547 20G<91 156 156 164 869 934 934 941>
VStem: 66 884
LayerCount: 2
Fore
SplineSet
947 539 m 2
 633 25 l 2
 624 10 607 0 591 0 c 2
 546 0 l 2
 529 0 516 11 513 27 c 2
 465 342 l 1
 282 27 l 2
 274 11 256 0 239 0 c 2
 194 0 l 2
 178 0 165 10 162 25 c 2
 66 539 l 2
 64 553 77 567 91 567 c 2
 156 567 l 2
 172 567 185 557 187 541 c 2
 251 176 l 1
 451 523 l 2
 460 539 477 550 494 550 c 2
 523 550 l 2
 540 550 553 539 556 523 c 2
 609 176 l 1
 826 541 l 2
 836 557 853 567 869 567 c 2
 934 567 l 2
 948 567 955 553 947 539 c 2
EndSplineSet
EndChar

StartChar: x
Encoding: 120 120 23
Width: 611
Flags: MW
HStem: 0 21G<-15.5 -6 -6 61 391 400 400 467> 547 20G<114 181 181 190 520 587 587 596.5>
VStem: -25 631
LayerCount: 2
Fore
SplineSet
-6 0 m 2
 -25 0 -31 21 -17 36 c 2
 220 283 l 1
 87 531 l 2
 80 546 95 567 114 567 c 2
 181 567 l 2
 199 567 214 558 222 544 c 2
 311 378 l 1
 469 544 l 2
 483 558 502 567 520 567 c 2
 587 567 l 2
 606 567 613 546 598 531 c 2
 361 283 l 1
 493 36 l 2
 501 21 486 0 467 0 c 2
 400 0 l 2
 382 0 366 8 358 23 c 2
 271 189 l 1
 111 23 l 2
 97 8 79 0 61 0 c 2
 -6 0 l 2
EndSplineSet
EndChar

StartChar: y
Encoding: 121 121 24
Width: 601
Flags: MW
HStem: -170 21G<86 94 94 143> 547 20G<114 162 162 174 529 578 578 586>
VStem: 76 520
LayerCount: 2
Fore
SplineSet
94 -170 m 2
 78 -170 71 -154 80 -140 c 2
 167 11 l 1
 85 536 l 2
 84 551 98 567 114 567 c 2
 162 567 l 2
 186 567 204 552 208 530 c 2
 263 175 l 1
 468 530 l 2
 481 552 505 567 529 567 c 2
 578 567 l 2
 594 567 601 551 592 536 c 2
 204 -133 l 2
 192 -155 167 -170 143 -170 c 2
 94 -170 l 2
EndSplineSet
EndChar

StartChar: z
Encoding: 122 122 25
Width: 564
Flags: MW
HStem: 0 113<4 37 156 401 401 411> 454 113<145 155 155 378 145 530 145 530 145 530>
VStem: -8 551
LayerCount: 2
Fore
SplineSet
512 438 m 2
 156 113 l 1
 401 113 l 2
 432 113 452 88 446 57 c 2
 438 23 l 2
 436 10 423 0 411 0 c 2
 37 0 l 2
 5 0 -14 25 -7 57 c 2
 0 92 l 2
 2 106 10 119 21 129 c 2
 378 454 l 1
 155 454 l 2
 124 454 104 479 111 510 c 2
 118 544 l 2
 121 557 133 567 145 567 c 2
 497 567 l 2
 528 567 548 541 542 510 c 2
 533 475 l 2
 530 461 523 448 512 438 c 2
530 454 m 1
 529 454 l 1
 530 454 l 1
 530 454 l 1
4 113 m 1
 4 113 l 1
 4 113 l 1
 4 113 l 1
EndSplineSet
EndChar

StartChar: period
Encoding: 46 46 26
Width: 286
Flags: MW
HStem: 0 21G<49 87> 0 136<77 87>
VStem: 12 140
LayerCount: 2
Fore
SplineSet
150 68 m 0x60
 142 30 106 0 68 0 c 0
 30 0 6 30 14 68 c 0
 22 106 58 136 96 136 c 0
 134 136 158 106 150 68 c 0x60
EndSplineSet
EndChar

StartChar: comma
Encoding: 44 44 27
Width: 288
Flags: MW
HStem: 1 21G
VStem: 13 137
LayerCount: 2
Fore
SplineSet
150 68 m 0
 145 16 116 -31 63 -83 c 0
 59 -87 53 -88 49 -86 c 1
 49 -86 l 1
 38 -81 37 -67 45 -56 c 0
 56 -41 69 -20 76 1 c 1
 76 0 76 0 76 0 c 1
 41 -4 13 19 13 52 c 0
 12 97 53 136 96 136 c 0
 134 136 154 105 150 68 c 0
EndSplineSet
EndChar

StartChar: A
Encoding: 65 65 28
Width: 626
Flags: MW
HStem: 0 21G<16.5 23 23 57 403.5 419 419 453> 261 113<192 418 168 442> 624 113<286.5 462 326 438>
VStem: 4 596
LayerCount: 2
Fore
SplineSet
462 737 m 2
 556 737 616 661 596 567 c 2
 480 23 l 2
 478 10 466 0 453 0 c 2
 419 0 l 2
 388 0 368 25 375 57 c 2
 418 261 l 1
 168 261 l 1
 125 57 l 2
 118 25 88 0 57 0 c 2
 23 0 l 2
 10 0 2 10 4 23 c 2
 120 567 l 2
 140 661 232 737 326 737 c 2
 462 737 l 2
192 374 m 1
 442 374 l 1
 483 567 l 2
 490 598 469 624 438 624 c 2
 302 624 l 2
 271 624 240 598 233 567 c 2
 192 374 l 1
EndSplineSet
EndChar

StartChar: B
Encoding: 66 66 29
Width: 618
Flags: MW
HStem: 0 113<41 317 137 293> 317 114<204 355 355 360 180 355> 624 113<245 245 245 396>
VStem: 11 579
LayerCount: 2
Fore
SplineSet
499 385 m 1
 545 346 568 284 553 215 c 0
 528 97 411 0 293 0 c 2
 57 0 l 2
 25 0 5 25 12 57 c 2
 144 680 l 2
 151 712 181 737 213 737 c 2
 417 737 l 2
 532 737 609 646 586 531 c 0
 575 475 543 423 499 385 c 1
245 624 m 1
 204 431 l 1
 355 431 l 2
 408 431 461 474 473 527 c 0
 484 580 449 624 396 624 c 2
 245 624 l 1
317 113 m 2
 373 113 428 159 440 215 c 0
 452 272 416 317 360 317 c 2
 180 317 l 1
 137 113 l 1
 317 113 l 2
EndSplineSet
EndChar

StartChar: C
Encoding: 67 67 30
Width: 626
Flags: MW
HStem: 0 113<123 330 194 306> 624 113<286.5 462 326 438>
VStem: 479 120
LayerCount: 2
Fore
SplineSet
306 0 m 2
 170 0 l 2
 76 0 16 76 36 170 c 2
 120 567 l 2
 140 661 232 737 326 737 c 2
 462 737 l 2
 556 737 616 661 596 567 c 2
 589 533 l 2
 586 520 574 510 561 510 c 2
 493 510 l 2
 481 510 473 520 476 533 c 2
 483 567 l 2
 490 598 469 624 438 624 c 2
 302 624 l 2
 271 624 240 598 233 567 c 2
 149 170 l 2
 142 139 163 113 194 113 c 2
 330 113 l 2
 361 113 392 139 399 170 c 2
 406 204 l 2
 412 235 443 261 474 261 c 2
 508 261 l 2
 521 261 529 251 526 238 c 2
 512 170 l 2
 492 76 400 0 306 0 c 2
EndSplineSet
EndChar

StartChar: D
Encoding: 68 68 31
Width: 626
Flags: MW
HStem: 0 113<41 330 137 306> 624 113<245 438 245 245>
VStem: 11 589
LayerCount: 2
Fore
SplineSet
306 0 m 2
 57 0 l 2
 25 0 5 25 12 57 c 2
 144 680 l 2
 151 712 181 737 213 737 c 2
 462 737 l 2
 556 737 616 661 596 567 c 2
 512 170 l 2
 492 76 400 0 306 0 c 2
137 113 m 1
 330 113 l 2
 361 113 392 139 399 170 c 2
 483 567 l 2
 490 598 469 624 438 624 c 2
 245 624 l 1
 137 113 l 1
EndSplineSet
EndChar

StartChar: E
Encoding: 69 69 32
Width: 606
Flags: MW
HStem: 0 113<41 443 137 443 443 453> 317 114<204 442 442 452 180 442> 624 113<245 551 245 245>
VStem: 11 616
LayerCount: 2
Fore
SplineSet
620 680 m 2
 613 649 583 624 551 624 c 2
 245 624 l 1
 204 431 l 1
 442 431 l 2
 474 431 494 405 487 374 c 2
 480 340 l 2
 477 328 465 317 452 317 c 2
 180 317 l 1
 137 113 l 1
 443 113 l 2
 475 113 494 88 488 57 c 2
 480 23 l 2
 478 10 466 0 453 0 c 2
 57 0 l 2
 25 0 5 25 12 57 c 2
 144 680 l 2
 151 712 181 737 213 737 c 2
 609 737 l 2
 622 737 630 727 627 714 c 2
 620 680 l 2
EndSplineSet
EndChar

StartChar: F
Encoding: 70 70 33
Width: 566
Flags: MW
HStem: 0 21G<16.5 23 23 91> 317 114<204 442 442 452 180 442> 624 113<245 551 245 245>
VStem: 4 623
LayerCount: 2
Fore
SplineSet
620 680 m 2
 613 649 583 624 551 624 c 2
 245 624 l 1
 204 431 l 1
 442 431 l 2
 474 431 494 405 487 374 c 2
 480 340 l 2
 477 328 465 317 452 317 c 2
 180 317 l 1
 117 23 l 2
 115 10 103 0 91 0 c 2
 23 0 l 2
 10 0 2 10 4 23 c 2
 144 680 l 2
 151 712 181 737 213 737 c 2
 609 737 l 2
 622 737 630 727 627 714 c 2
 620 680 l 2
EndSplineSet
EndChar

StartChar: G
Encoding: 71 71 34
Width: 626
Flags: MW
HStem: 0 113<123 330 194 306> 317 114<340 350 350 430> 624 113<286.5 462 326 438>
VStem: 32 568 482 118
LayerCount: 2
Fore
SplineSet
306 0 m 2xf0
 170 0 l 2
 76 0 16 76 36 170 c 2
 120 567 l 2
 140 661 232 737 326 737 c 2
 462 737 l 2
 556 737 616 661 596 567 c 2
 594 556 l 2
 591 543 579 533 566 533 c 2
 498 533 l 2
 486 533 478 543 481 556 c 2
 483 567 l 2
 490 598 469 624 438 624 c 2xe8
 302 624 l 2
 271 624 240 598 233 567 c 2
 149 170 l 2
 142 139 163 113 194 113 c 2
 330 113 l 2
 361 113 392 139 399 170 c 2
 430 317 l 1
 350 317 l 2
 319 317 299 343 306 374 c 2
 313 408 l 2
 316 421 328 431 340 431 c 2
 510 431 l 2
 542 431 562 405 555 374 c 2
 512 170 l 2
 492 76 400 0 306 0 c 2xf0
EndSplineSet
EndChar

StartChar: H
Encoding: 72 72 35
Width: 626
Flags: MW
HStem: 0 21G<16.5 23 23 57 403.5 419 419 453> 317 114<204 430 180 454> 717 20G<179 213 213 228.5 575 609 609 615.5>
VStem: 4 623
LayerCount: 2
Fore
SplineSet
507 680 m 2
 514 712 544 737 575 737 c 2
 609 737 l 2
 622 737 630 727 627 714 c 2
 480 23 l 2
 478 10 466 0 453 0 c 2
 419 0 l 2
 388 0 368 25 375 57 c 2
 430 317 l 1
 180 317 l 1
 125 57 l 2
 118 25 88 0 57 0 c 2
 23 0 l 2
 10 0 2 10 4 23 c 2
 151 714 l 2
 154 727 166 737 179 737 c 2
 213 737 l 2
 244 737 264 712 257 680 c 2
 204 431 l 1
 454 431 l 1
 507 680 l 2
EndSplineSet
EndChar

StartChar: I
Encoding: 73 73 36
Width: 263
Flags: MW
HStem: 0 21G<16.5 23 23 91> 717 20G<179 213 213 228.5>
VStem: 4 254
LayerCount: 2
Fore
SplineSet
91 0 m 2
 23 0 l 2
 10 0 2 10 4 23 c 2
 151 714 l 2
 154 727 166 737 179 737 c 2
 213 737 l 2
 244 737 264 712 257 680 c 2
 117 23 l 2
 115 10 103 0 91 0 c 2
EndSplineSet
EndChar

StartChar: J
Encoding: 74 74 37
Width: 576
Flags: MW
HStem: 0 113<73 280 144 256> 624 113<333 343 343 445>
VStem: -17 128 -17 588
LayerCount: 2
Fore
SplineSet
256 0 m 2xd0
 120 0 l 2
 26 0 -33 76 -13 170 c 2
 5 261 l 2
 8 273 20 283 33 283 c 2
 67 283 l 2
 98 283 117 258 111 227 c 2
 99 170 l 2
 92 139 113 113 144 113 c 2xe0
 280 113 l 2
 311 113 342 139 349 170 c 2
 445 624 l 1
 343 624 l 2
 311 624 291 649 298 680 c 2
 305 714 l 2
 308 727 320 737 333 737 c 2
 525 737 l 2
 557 737 577 712 570 680 c 2
 462 170 l 2
 442 76 350 0 256 0 c 2xd0
EndSplineSet
EndChar

StartChar: K
Encoding: 75 75 38
Width: 633
Flags: MW
HStem: 0 21G<16.5 23 23 57 435 444 444 510> 312 113<203 249 179 265> 717 20G<179 213 213 228.5 592 658 658 667.5>
VStem: 4 673
LayerCount: 2
Fore
SplineSet
536 36 m 2
 543 21 529 0 510 0 c 2
 444 0 l 2
 426 0 410 9 403 24 c 2
 266 302 l 2
 262 308 257 312 249 312 c 2
 179 312 l 1
 125 57 l 2
 118 25 88 0 57 0 c 2
 23 0 l 2
 10 0 2 10 4 23 c 2
 151 714 l 2
 154 727 166 737 179 737 c 2
 213 737 l 2
 244 737 264 712 257 680 c 2
 203 425 l 1
 265 425 l 2
 273 425 280 429 286 435 c 2
 541 713 l 2
 555 728 574 737 592 737 c 2
 658 737 l 2
 677 737 683 716 670 701 c 2
 369 374 l 1
 536 36 l 2
EndSplineSet
EndChar

StartChar: L
Encoding: 76 76 39
Width: 531
Flags: MW
HStem: 0 113<41 398 137 398 398 408> 717 20G<179 213 213 228.5>
VStem: 11 433
LayerCount: 2
Fore
SplineSet
408 0 m 2
 57 0 l 2
 25 0 5 25 12 57 c 2
 151 714 l 2
 154 727 166 737 179 737 c 2
 213 737 l 2
 244 737 264 712 257 680 c 2
 137 113 l 1
 398 113 l 2
 429 113 449 88 443 57 c 2
 435 23 l 2
 433 10 421 0 408 0 c 2
EndSplineSet
EndChar

StartChar: M
Encoding: 77 77 40
Width: 740
Flags: MW
HStem: 0 21G<16.5 23 23 57 517.5 533 533 567> 717 20G<179 232 232 243 669 723 723 729>
VStem: 4 737<23 714>
LayerCount: 2
Fore
SplineSet
723 737 m 2
 735 737 744 727 741 714 c 2
 594 23 l 2
 592 10 579 0 567 0 c 2
 533 0 l 2
 502 0 481 25 488 57 c 2
 579 486 l 1
 435 290 l 2
 422 271 400 259 379 259 c 2
 320 259 l 2
 299 259 282 271 276 290 c 2
 216 486 l 1
 125 57 l 2
 118 25 88 0 57 0 c 2
 23 0 l 2
 10 0 2 10 4 23 c 2
 151 714 l 2
 154 727 166 737 179 737 c 2
 232 737 l 2
 254 737 271 725 277 706 c 2
 376 382 l 1
 613 706 l 2
 627 725 648 737 669 737 c 2
 723 737 l 2
EndSplineSet
EndChar

StartChar: N
Encoding: 78 78 41
Width: 626
Flags: MW
HStem: 0 21G<16.5 23 23 57 389.5 400 400 453> 717 20G<179 232 232 243 575 609 609 615.5>
VStem: 4 623
LayerCount: 2
Fore
SplineSet
609 737 m 2
 622 737 630 727 627 714 c 2
 480 23 l 2
 478 10 466 0 453 0 c 2
 400 0 l 2
 379 0 361 12 355 31 c 2
 216 486 l 1
 125 57 l 2
 118 25 88 0 57 0 c 2
 23 0 l 2
 10 0 2 10 4 23 c 2
 151 714 l 2
 154 727 166 737 179 737 c 2
 232 737 l 2
 254 737 271 725 277 706 c 2
 416 251 l 1
 507 680 l 2
 514 712 544 737 575 737 c 2
 609 737 l 2
EndSplineSet
EndChar

StartChar: O
Encoding: 79 79 42
Width: 626
Flags: MW
HStem: 0 113<123 330 194 306> 624 113<286.5 462 326 438>
VStem: 32 568
LayerCount: 2
Fore
SplineSet
306 0 m 2
 170 0 l 2
 76 0 16 76 36 170 c 2
 120 567 l 2
 140 661 232 737 326 737 c 2
 462 737 l 2
 556 737 616 661 596 567 c 2
 512 170 l 2
 492 76 400 0 306 0 c 2
302 624 m 2
 271 624 240 598 233 567 c 2
 149 170 l 2
 142 139 163 113 194 113 c 2
 330 113 l 2
 361 113 392 139 399 170 c 2
 483 567 l 2
 490 598 469 624 438 624 c 2
 302 624 l 2
EndSplineSet
EndChar

StartChar: P
Encoding: 80 80 43
Width: 576
Flags: MW
HStem: 0 21G<16.5 23 23 57> 261 113<192 361 168 385> 624 113<245 438 245 245>
VStem: 4 596
LayerCount: 2
Fore
SplineSet
57 0 m 2
 23 0 l 2
 10 0 2 10 4 23 c 2
 144 680 l 2
 151 712 181 737 213 737 c 2
 462 737 l 2
 556 737 616 661 596 567 c 2
 567 431 l 2
 547 337 455 261 361 261 c 2
 168 261 l 1
 125 57 l 2
 118 25 88 0 57 0 c 2
192 374 m 1
 385 374 l 2
 416 374 448 400 454 431 c 2
 483 567 l 2
 490 598 469 624 438 624 c 2
 245 624 l 1
 192 374 l 1
EndSplineSet
EndChar

StartChar: Q
Encoding: 81 81 44
Width: 626
Flags: MW
HStem: 0 113<123 205 170 205 194 306 194 295> 624 113<286.5 462 326 438>
VStem: 32 568
LayerCount: 2
Fore
SplineSet
462 737 m 2
 556 737 616 661 596 567 c 2
 512 170 l 2
 492 76 400 0 306 0 c 2
 295 0 l 1
 287 -34 l 2
 281 -65 249 -91 218 -91 c 2
 184 -91 l 2
 172 -91 163 -81 166 -68 c 2
 181 0 l 1
 170 0 l 2
 76 0 16 76 36 170 c 2
 120 567 l 2
 140 661 232 737 326 737 c 2
 462 737 l 2
399 170 m 2
 483 567 l 2
 490 598 469 624 438 624 c 2
 302 624 l 2
 271 624 240 598 233 567 c 2
 149 170 l 2
 142 139 163 113 194 113 c 2
 205 113 l 1
 212 147 l 2
 219 179 250 204 281 204 c 2
 315 204 l 2
 328 204 336 194 333 181 c 2
 319 113 l 1
 330 113 l 2
 361 113 392 139 399 170 c 2
EndSplineSet
EndChar

StartChar: R
Encoding: 82 82 45
Width: 607
Flags: MW
HStem: 0 21G<16.5 23 23 57 393 404 404 459> 261 113<192 290 168 385> 624 113<245 245 245 438>
VStem: 4 596
LayerCount: 2
Fore
SplineSet
486 33 m 2
 490 18 476 0 459 0 c 2
 404 0 l 2
 382 0 365 12 359 31 c 2
 290 261 l 1
 168 261 l 1
 125 57 l 2
 118 25 88 0 57 0 c 2
 23 0 l 2
 10 0 2 10 4 23 c 2
 144 680 l 2
 151 712 181 737 213 737 c 2
 462 737 l 2
 556 737 616 661 596 567 c 2
 567 431 l 2
 551 355 488 291 415 269 c 1
 486 33 l 2
245 624 m 1
 192 374 l 1
 385 374 l 2
 416 374 448 400 454 431 c 2
 483 567 l 2
 490 598 469 624 438 624 c 2
 245 624 l 1
EndSplineSet
EndChar

StartChar: S
Encoding: 83 83 46
Width: 576
Flags: MW
HStem: 0 113<123 330 194 306> 317 114<190 397 261 373> 624 113<286.5 439 326 415>
VStem: 32 124 456 120
LayerCount: 2
Fore
SplineSet
453 533 m 2
 460 567 l 2
 467 598 447 624 415 624 c 2
 302 624 l 2
 271 624 240 598 233 567 c 2
 216 488 l 2
 209 456 230 431 261 431 c 2
 397 431 l 2
 491 431 551 355 531 261 c 2
 512 170 l 2
 492 76 400 0 306 0 c 2
 170 0 l 2
 76 0 16 76 36 170 c 2
 50 238 l 2
 53 251 65 261 78 261 c 2
 112 261 l 2
 143 261 162 235 156 204 c 2
 149 170 l 2
 142 139 163 113 194 113 c 2
 330 113 l 2
 361 113 392 139 399 170 c 2
 418 261 l 2
 425 292 404 317 373 317 c 2
 237 317 l 2
 143 317 83 394 103 488 c 2
 120 567 l 2
 140 661 232 737 326 737 c 2
 439 737 l 2
 533 737 593 661 573 567 c 2
 566 533 l 2
 563 520 551 510 539 510 c 2
 471 510 l 2
 458 510 450 520 453 533 c 2
EndSplineSet
EndChar

StartChar: T
Encoding: 84 84 47
Width: 606
Flags: MW
HStem: 0 21G<188 194 194 262> 624 113<129 139 139 303 417 581 417 417>
VStem: 93 564
LayerCount: 2
Fore
SplineSet
657 714 m 2
 650 680 l 2
 643 649 613 624 581 624 c 2
 417 624 l 1
 289 23 l 2
 287 10 275 0 262 0 c 2
 194 0 l 2
 182 0 173 10 175 23 c 2
 303 624 l 1
 139 624 l 2
 107 624 87 649 94 680 c 2
 101 714 l 2
 104 727 116 737 129 737 c 2
 639 737 l 2
 652 737 660 727 657 714 c 2
EndSplineSet
EndChar

StartChar: U
Encoding: 85 85 48
Width: 626
Flags: MW
HStem: 0 113<123 330 194 306> 717 20G<179 213 213 228.5 575 609 609 615.5>
VStem: 32 595
LayerCount: 2
Fore
SplineSet
306 0 m 2
 170 0 l 2
 76 0 16 76 36 170 c 2
 151 714 l 2
 154 727 166 737 179 737 c 2
 213 737 l 2
 244 737 264 712 257 680 c 2
 149 170 l 2
 142 139 163 113 194 113 c 2
 330 113 l 2
 361 113 392 139 399 170 c 2
 507 680 l 2
 514 712 544 737 575 737 c 2
 609 737 l 2
 622 737 630 727 627 714 c 2
 512 170 l 2
 492 76 400 0 306 0 c 2
EndSplineSet
EndChar

StartChar: V
Encoding: 86 86 49
Width: 657
Flags: MW
HStem: 0 21G<220.5 233 233 273> 717 20G<159 204 204 216.5 614 660 660 667.5>
VStem: 131 548
LayerCount: 2
Fore
SplineSet
551 696 m 2
 564 720 589 737 614 737 c 2
 660 737 l 2
 675 737 683 722 676 708 c 2
 336 40 l 2
 323 16 298 0 273 0 c 2
 233 0 l 2
 208 0 189 16 187 40 c 2
 131 708 l 2
 130 722 143 737 159 737 c 2
 204 737 l 2
 229 737 248 720 250 696 c 2
 293 189 l 1
 551 696 l 2
EndSplineSet
EndChar

StartChar: W
Encoding: 87 87 50
Width: 961
Flags: MW
HStem: 0 21G<170.5 180 180 226 575.5 584 584 631> 717 20G<146 205 205 214.5 917 976 976 982.5>
VStem: 147 100
LayerCount: 2
Fore
SplineSet
551 28 m 2
 507 484 l 1
 269 28 l 2
 261 11 244 0 226 0 c 2
 180 0 l 2
 161 0 147 12 147 30 c 2
 122 712 l 2
 121 725 133 737 146 737 c 2
 205 737 l 2
 224 737 237 724 238 707 c 2
 256 226 l 1
 487 669 l 2
 495 686 514 697 531 697 c 2
 575 697 l 2
 593 697 605 686 607 669 c 2
 650 226 l 1
 872 707 l 2
 880 724 899 737 917 737 c 2
 976 737 l 2
 989 737 997 725 991 712 c 2
 676 30 l 2
 667 12 649 0 631 0 c 2
 584 0 l 2
 567 0 553 11 551 28 c 2
EndSplineSet
EndChar

StartChar: X
Encoding: 88 88 51
Width: 651
Flags: MW
HStem: 0 21G<-17 -10 -10 24 459 468 468 501> 717 20G<146 180 180 189 624 658 658 665>
VStem: -41 731
LayerCount: 2
Fore
SplineSet
468 0 m 2
 450 0 434 9 428 24 c 2
 302 266 l 1
 74 24 l 2
 60 9 42 0 24 0 c 2
 -10 0 l 2
 -24 0 -36 8 -39 21 c 0
 -43 33 -40 49 -30 61 c 2
 256 368 l 1
 100 676 l 2
 95 688 98 704 108 716 c 0
 116 729 132 737 146 737 c 2
 180 737 l 2
 198 737 213 728 220 713 c 2
 346 471 l 1
 574 713 l 2
 587 728 606 737 624 737 c 2
 658 737 l 2
 672 737 683 729 688 716 c 0
 692 704 688 688 677 676 c 2
 392 368 l 1
 546 61 l 2
 552 49 550 33 540 21 c 0
 530 8 516 0 501 0 c 2
 468 0 l 2
EndSplineSet
EndChar

StartChar: Y
Encoding: 89 89 52
Width: 633
Flags: MW
HStem: 0 21G<200.5 207 207 276> 717 20G<128 189 189 198.5 605 666 666 674.5>
VStem: 101 583
LayerCount: 2
Fore
SplineSet
666 737 m 2
 683 737 689 719 679 705 c 2
 354 265 l 1
 302 22 l 2
 300 10 288 0 276 0 c 2
 207 0 l 2
 194 0 187 10 189 22 c 2
 241 265 l 1
 102 705 l 2
 97 719 111 737 128 737 c 2
 189 737 l 2
 208 737 223 727 227 710 c 2
 326 400 l 1
 555 710 l 2
 567 727 586 737 605 737 c 2
 666 737 l 2
EndSplineSet
EndChar

StartChar: Z
Encoding: 90 90 53
Width: 586
Flags: MW
HStem: 0 113<140 423 423 433> 624 113<181 191 191 452>
VStem: -15 616
LayerCount: 2
Fore
SplineSet
154 714 m 2
 157 727 169 737 181 737 c 2
 555 737 l 2
 587 737 607 712 600 680 c 2
 595 658 l 2
 591 636 580 614 563 595 c 2
 140 113 l 1
 423 113 l 2
 455 113 474 88 468 57 c 2
 460 23 l 2
 458 10 446 0 433 0 c 2
 3 0 l 2
 -10 0 -17 10 -15 23 c 2
 -2 80 l 2
 1 102 13 124 29 142 c 2
 452 624 l 1
 191 624 l 2
 160 624 140 649 147 680 c 2
 154 714 l 2
EndSplineSet
EndChar

StartChar: one
Encoding: 49 49 54
Width: 411
Flags: MW
HStem: 0 21G<164 170 170 238> 717 20G<326 394 394 400.5>
VStem: 126 286
LayerCount: 2
Fore
SplineSet
284 722 m 2
 297 732 312 737 326 737 c 2
 394 737 l 2
 407 737 415 727 412 714 c 2
 265 23 l 2
 263 10 251 0 238 0 c 2
 170 0 l 2
 158 0 150 10 152 23 c 2
 271 582 l 1
 226 547 l 2
 198 526 164 527 146 550 c 2
 129 575 l 2
 122 584 126 598 137 607 c 2
 284 722 l 2
EndSplineSet
EndChar

StartChar: two
Encoding: 50 50 55
Width: 626
Flags: MW
HStem: 0 113<41 443 137 443 443 453> 295 113<233 369 279 345> 624 113<303 439 349 415>
VStem: 11 584
LayerCount: 2
Fore
SplineSet
453 0 m 2
 57 0 l 2
 25 0 5 25 12 57 c 2
 45 215 l 2
 68 322 172 408 279 408 c 2
 369 408 l 2
 413 408 457 444 466 488 c 2
 478 544 l 2
 487 588 459 624 415 624 c 2
 325 624 l 2
 281 624 237 588 228 544 c 1
 228 544 l 1
 222 513 191 488 160 488 c 2
 126 488 l 2
 113 488 105 498 108 510 c 2
 115 544 l 2
 138 651 242 737 349 737 c 2
 439 737 l 2
 546 737 614 651 591 544 c 2
 579 488 l 2
 556 381 452 295 345 295 c 2
 255 295 l 2
 211 295 168 259 158 215 c 2
 137 113 l 1
 443 113 l 2
 475 113 494 88 488 57 c 2
 480 23 l 2
 478 10 466 0 453 0 c 2
EndSplineSet
EndChar

StartChar: three
Encoding: 51 51 56
Width: 626
Flags: MW
HStem: 0 113<139.5 307 217 283> 329 113<278 376 342 352> 624 113<314 439 360 415>
VStem: 37 558 475 119
LayerCount: 2
Fore
SplineSet
586 522 m 2xf0
 575 468 538 420 490 385 c 1
 523 351 540 302 528 249 c 2xf0
 517 193 l 2
 494 86 390 0 283 0 c 2
 193 0 l 2
 86 0 18 86 41 193 c 2
 48 227 l 2
 50 239 62 249 75 249 c 2
 109 249 l 2
 140 249 160 224 154 193 c 1
 154 193 l 1
 144 149 173 113 217 113 c 2
 307 113 l 2
 351 113 394 149 404 193 c 2
 415 249 l 2
 425 293 396 329 352 329 c 2
 284 329 l 2
 272 329 265 339 267 351 c 2
 274 385 l 2
 281 417 311 442 342 442 c 2
 376 442 l 2
 420 442 464 478 473 522 c 2
 478 544 l 2
 487 588 459 624 415 624 c 2
 336 624 l 2
 292 624 249 588 240 544 c 1
 240 544 l 1
 236 525 217 510 199 510 c 2
 142 510 l 2
 129 510 121 520 124 533 c 2
 126 544 l 2
 149 651 254 737 360 737 c 2
 439 737 l 2xe8
 546 737 614 651 591 544 c 2
 586 522 l 2xf0
EndSplineSet
EndChar

StartChar: four
Encoding: 52 52 57
Width: 576
Flags: MW
HStem: 0 21G<275 281 281 349> 193 113<57 323 161 299 437 469 161 413> 717 20G<333 383 383 391>
VStem: 26 485
LayerCount: 2
Fore
SplineSet
447 465 m 2
 460 465 468 455 465 442 c 2
 437 306 l 1
 493 306 l 2
 506 306 513 296 511 283 c 2
 496 215 l 2
 494 203 482 193 469 193 c 2
 413 193 l 1
 376 23 l 2
 374 10 362 0 349 0 c 2
 281 0 l 2
 269 0 260 10 262 23 c 2
 299 193 l 1
 73 193 l 2
 41 193 21 218 27 249 c 2
 37 296 l 2
 39 303 41 309 46 316 c 2
 272 700 l 2
 286 722 310 737 333 737 c 2
 383 737 l 2
 399 737 407 721 398 706 c 2
 161 306 l 1
 323 306 l 1
 344 408 l 2
 351 439 382 465 413 465 c 2
 447 465 l 2
EndSplineSet
EndChar

StartChar: five
Encoding: 53 53 58
Width: 626
Flags: MW
HStem: 0 113<139.5 307 217 283> 351 114<98 187 211 357> 624 113<245 517 245 245>
VStem: 37 556
LayerCount: 2
Fore
SplineSet
283 0 m 2
 193 0 l 2
 86 0 18 86 41 193 c 2
 48 227 l 2
 50 239 62 249 75 249 c 2
 109 249 l 2
 140 249 160 224 154 193 c 1
 154 193 l 1
 144 149 173 113 217 113 c 2
 307 113 l 2
 351 113 394 149 404 193 c 2
 420 272 l 2
 430 316 401 351 357 351 c 2
 187 351 l 2
 125 351 85 402 98 465 c 2
 144 680 l 2
 151 712 181 737 213 737 c 2
 575 737 l 2
 588 737 596 727 593 714 c 2
 586 680 l 2
 579 649 549 624 517 624 c 2
 245 624 l 1
 211 465 l 1
 381 465 l 2
 488 465 556 379 533 272 c 2
 517 193 l 2
 494 86 390 0 283 0 c 2
EndSplineSet
EndChar

StartChar: six
Encoding: 54 54 59
Width: 626
Flags: MW
HStem: 0 113<139.5 307 217 283> 351 114<245 381 291 357> 624 113<302 417 349 393>
VStem: 37 535
LayerCount: 2
Fore
SplineSet
381 465 m 2
 488 465 556 379 533 272 c 2
 517 193 l 2
 494 86 390 0 283 0 c 2
 193 0 l 2
 86 0 18 86 41 193 c 2
 113 533 l 2
 125 589 156 640 199 678 c 0
 243 716 296 737 349 737 c 2
 417 737 l 2
 523 737 591 651 568 544 c 2
 563 522 l 2
 561 509 549 499 537 499 c 2
 491 499 l 2
 466 499 450 519 455 544 c 1
 455 544 l 1
 464 588 437 624 393 624 c 2
 325 624 l 2
 279 624 237 585 226 533 c 2
 204 431 l 1
 228 453 260 465 291 465 c 2
 381 465 l 2
404 193 m 2
 420 272 l 2
 430 316 401 351 357 351 c 2
 267 351 l 2
 223 351 180 316 170 272 c 2
 154 193 l 2
 144 149 173 113 217 113 c 2
 307 113 l 2
 351 113 394 149 404 193 c 2
EndSplineSet
EndChar

StartChar: seven
Encoding: 55 55 60
Width: 526
Flags: HMW
HStem: 0 21G<69 77 77 128> 624 113<98.5 525 163 435>
VStem: 59 512
LayerCount: 2
UndoRedoHistory
Layer: 0
Undoes
UndoOperation
Index: 0
Type: 1
WasModified: 1
WasOrder2: 0
Layer: 2
Width: 526
VWidth: 1000
LBearingChange: 0
UnicodeEnc: 0
InstructionsLength: 0
EndUndoOperation
EndUndoes
Redoes
EndRedoes
EndUndoRedoHistory
UndoRedoHistory
Layer: 1
Undoes
UndoOperation
Index: 0
Type: 1
WasModified: 1
WasOrder2: 0
Layer: 2
Width: 526
VWidth: 1000
LBearingChange: 0
UnicodeEnc: 0
InstructionsLength: 0
SplineSet
505 415 m 2
 492 352 l 2
 489 338 474 327 461 327 c 2
 144 327 l 6
 130 327 122 338 125 352 c 6
 138 415 l 6
 141 429 154 440 168 440 c 6
 485 440 l 2
 498 440 508 429 505 415 c 2
560 635 m 2
 559 627 556 620 552 613 c 2
 188 35 l 2
 174 14 151 0 128 0 c 2
 77 0 l 2
 61 0 53 16 63 31 c 2
 435 624 l 1
 105 624 l 2
 92 624 84 634 87 646 c 2
 94 680 l 2
 101 712 131 737 163 737 c 2
 525 737 l 2
 557 737 577 712 570 680 c 2
 560 635 l 2
EndSplineSet
EndUndoOperation
UndoOperation
Index: 1
Type: 1
WasModified: 1
WasOrder2: 0
Layer: 2
Width: 526
VWidth: 1000
LBearingChange: 0
UnicodeEnc: 0
InstructionsLength: 0
SplineSet
505 415 m 2
 492 352 l 2
 489 338 474 327 461 327 c 2
 134 327 l 6
 120 327 112 338 115 352 c 6
 128 415 l 6
 131 429 144 440 158 440 c 6
 485 440 l 2
 498 440 508 429 505 415 c 2
560 635 m 2
 559 627 556 620 552 613 c 2
 188 35 l 2
 174 14 151 0 128 0 c 2
 77 0 l 2
 61 0 53 16 63 31 c 2
 435 624 l 1
 105 624 l 2
 92 624 84 634 87 646 c 2
 94 680 l 2
 101 712 131 737 163 737 c 2
 525 737 l 2
 557 737 577 712 570 680 c 2
 560 635 l 2
EndSplineSet
EndUndoOperation
UndoOperation
Index: 2
Type: 1
WasModified: 1
WasOrder2: 0
Layer: 2
Width: 526
VWidth: 1000
LBearingChange: 0
UnicodeEnc: 0
InstructionsLength: 0
SplineSet
505 415 m 2
 492 352 l 2
 489 338 474 327 461 327 c 2
 124 327 l 6
 110 327 102 338 105 352 c 6
 118 415 l 6
 121 429 134 440 148 440 c 6
 485 440 l 2
 498 440 508 429 505 415 c 2
560 635 m 2
 559 627 556 620 552 613 c 2
 188 35 l 2
 174 14 151 0 128 0 c 2
 77 0 l 2
 61 0 53 16 63 31 c 2
 435 624 l 1
 105 624 l 2
 92 624 84 634 87 646 c 2
 94 680 l 2
 101 712 131 737 163 737 c 2
 525 737 l 2
 557 737 577 712 570 680 c 2
 560 635 l 2
EndSplineSet
EndUndoOperation
UndoOperation
Index: 3
Type: 1
WasModified: 1
WasOrder2: 0
Layer: 2
Width: 526
VWidth: 1000
LBearingChange: 0
UnicodeEnc: 0
InstructionsLength: 0
SplineSet
515 415 m 6
 502 352 l 6
 499 338 484 327 471 327 c 6
 124 327 l 2
 110 327 102 338 105 352 c 2
 118 415 l 2
 121 429 134 440 148 440 c 2
 495 440 l 6
 508 440 518 429 515 415 c 6
560 635 m 2
 559 627 556 620 552 613 c 2
 188 35 l 2
 174 14 151 0 128 0 c 2
 77 0 l 2
 61 0 53 16 63 31 c 2
 435 624 l 1
 105 624 l 2
 92 624 84 634 87 646 c 2
 94 680 l 2
 101 712 131 737 163 737 c 2
 525 737 l 2
 557 737 577 712 570 680 c 2
 560 635 l 2
EndSplineSet
EndUndoOperation
UndoOperation
Index: 4
Type: 1
WasModified: 1
WasOrder2: 0
Layer: 2
Width: 526
VWidth: 1000
LBearingChange: 0
UnicodeEnc: 0
InstructionsLength: 0
SplineSet
505 415 m 6
 492 352 l 6
 489 338 474 327 461 327 c 6
 124 327 l 2
 110 327 102 338 105 352 c 2
 118 415 l 2
 121 429 134 440 148 440 c 2
 485 440 l 6
 498 440 508 429 505 415 c 6
560 635 m 2
 559 627 556 620 552 613 c 2
 188 35 l 2
 174 14 151 0 128 0 c 2
 77 0 l 2
 61 0 53 16 63 31 c 2
 435 624 l 1
 105 624 l 2
 92 624 84 634 87 646 c 2
 94 680 l 2
 101 712 131 737 163 737 c 2
 525 737 l 2
 557 737 577 712 570 680 c 2
 560 635 l 2
EndSplineSet
EndUndoOperation
UndoOperation
Index: 5
Type: 1
WasModified: 1
WasOrder2: 0
Layer: 2
Width: 526
VWidth: 1000
LBearingChange: 0
UnicodeEnc: 0
InstructionsLength: 0
SplineSet
515 415 m 6
 502 352 l 6
 499 338 484 327 471 327 c 6
 124 327 l 2
 110 327 102 338 105 352 c 2
 118 415 l 2
 121 429 134 440 148 440 c 2
 495 440 l 6
 508 440 518 429 515 415 c 6
560 635 m 2
 559 627 556 620 552 613 c 2
 188 35 l 2
 174 14 151 0 128 0 c 2
 77 0 l 2
 61 0 53 16 63 31 c 2
 435 624 l 1
 105 624 l 2
 92 624 84 634 87 646 c 2
 94 680 l 2
 101 712 131 737 163 737 c 2
 525 737 l 2
 557 737 577 712 570 680 c 2
 560 635 l 2
EndSplineSet
EndUndoOperation
UndoOperation
Index: 6
Type: 1
WasModified: 1
WasOrder2: 0
Layer: 2
Width: 526
VWidth: 1000
LBearingChange: 0
UnicodeEnc: 0
InstructionsLength: 0
SplineSet
525 415 m 6
 512 352 l 6
 509 338 494 327 481 327 c 6
 124 327 l 2
 110 327 102 338 105 352 c 2
 118 415 l 2
 121 429 134 440 148 440 c 2
 505 440 l 6
 518 440 528 429 525 415 c 6
560 635 m 2
 559 627 556 620 552 613 c 2
 188 35 l 2
 174 14 151 0 128 0 c 2
 77 0 l 2
 61 0 53 16 63 31 c 2
 435 624 l 1
 105 624 l 2
 92 624 84 634 87 646 c 2
 94 680 l 2
 101 712 131 737 163 737 c 2
 525 737 l 2
 557 737 577 712 570 680 c 2
 560 635 l 2
EndSplineSet
EndUndoOperation
UndoOperation
Index: 7
Type: 1
WasModified: 1
WasOrder2: 0
Layer: 2
Width: 526
VWidth: 1000
LBearingChange: 0
UnicodeEnc: 0
InstructionsLength: 0
SplineSet
535 415 m 6
 522 352 l 6
 519 338 504 327 491 327 c 6
 124 327 l 2
 110 327 102 338 105 352 c 2
 118 415 l 2
 121 429 134 440 148 440 c 2
 515 440 l 6
 528 440 538 429 535 415 c 6
560 635 m 2
 559 627 556 620 552 613 c 2
 188 35 l 2
 174 14 151 0 128 0 c 2
 77 0 l 2
 61 0 53 16 63 31 c 2
 435 624 l 1
 105 624 l 2
 92 624 84 634 87 646 c 2
 94 680 l 2
 101 712 131 737 163 737 c 2
 525 737 l 2
 557 737 577 712 570 680 c 2
 560 635 l 2
EndSplineSet
EndUndoOperation
UndoOperation
Index: 8
Type: 1
WasModified: 1
WasOrder2: 0
Layer: 2
Width: 526
VWidth: 1000
LBearingChange: 0
UnicodeEnc: 0
InstructionsLength: 0
SplineSet
525 415 m 6
 512 352 l 6
 509 338 494 327 481 327 c 6
 114 327 l 6
 100 327 92 338 95 352 c 6
 108 415 l 6
 111 429 124 440 138 440 c 6
 505 440 l 6
 518 440 528 429 525 415 c 6
560 635 m 2
 559 627 556 620 552 613 c 2
 188 35 l 2
 174 14 151 0 128 0 c 2
 77 0 l 2
 61 0 53 16 63 31 c 2
 435 624 l 1
 105 624 l 2
 92 624 84 634 87 646 c 2
 94 680 l 2
 101 712 131 737 163 737 c 2
 525 737 l 2
 557 737 577 712 570 680 c 2
 560 635 l 2
EndSplineSet
EndUndoOperation
UndoOperation
Index: 9
Type: 1
WasModified: 1
WasOrder2: 0
Layer: 2
Width: 526
VWidth: 1000
LBearingChange: 0
UnicodeEnc: 0
InstructionsLength: 0
SplineSet
515 415 m 6
 502 352 l 6
 499 338 484 327 471 327 c 6
 104 327 l 6
 90 327 82 338 85 352 c 6
 98 415 l 6
 101 429 114 440 128 440 c 6
 495 440 l 6
 508 440 518 429 515 415 c 6
560 635 m 2
 559 627 556 620 552 613 c 2
 188 35 l 2
 174 14 151 0 128 0 c 2
 77 0 l 2
 61 0 53 16 63 31 c 2
 435 624 l 1
 105 624 l 2
 92 624 84 634 87 646 c 2
 94 680 l 2
 101 712 131 737 163 737 c 2
 525 737 l 2
 557 737 577 712 570 680 c 2
 560 635 l 2
EndSplineSet
EndUndoOperation
UndoOperation
Index: 10
Type: 1
WasModified: 1
WasOrder2: 0
Layer: 2
Width: 526
VWidth: 1000
LBearingChange: 0
UnicodeEnc: 0
InstructionsLength: 0
SplineSet
505 415 m 6
 492 352 l 6
 489 338 474 327 461 327 c 6
 94 327 l 6
 80 327 72 338 75 352 c 6
 88 415 l 6
 91 429 104 440 118 440 c 6
 485 440 l 6
 498 440 508 429 505 415 c 6
560 635 m 2
 559 627 556 620 552 613 c 2
 188 35 l 2
 174 14 151 0 128 0 c 2
 77 0 l 2
 61 0 53 16 63 31 c 2
 435 624 l 1
 105 624 l 2
 92 624 84 634 87 646 c 2
 94 680 l 2
 101 712 131 737 163 737 c 2
 525 737 l 2
 557 737 577 712 570 680 c 2
 560 635 l 2
EndSplineSet
EndUndoOperation
UndoOperation
Index: 11
Type: 1
WasModified: 1
WasOrder2: 0
Layer: 2
Width: 526
VWidth: 1000
LBearingChange: 0
UnicodeEnc: 0
InstructionsLength: 0
SplineSet
505 405 m 6
 492 342 l 6
 489 328 474 317 461 317 c 6
 94 317 l 6
 80 317 72 328 75 342 c 6
 88 405 l 6
 91 419 104 430 118 430 c 6
 485 430 l 6
 498 430 508 419 505 405 c 6
560 635 m 2
 559 627 556 620 552 613 c 2
 188 35 l 2
 174 14 151 0 128 0 c 2
 77 0 l 2
 61 0 53 16 63 31 c 2
 435 624 l 1
 105 624 l 2
 92 624 84 634 87 646 c 2
 94 680 l 2
 101 712 131 737 163 737 c 2
 525 737 l 2
 557 737 577 712 570 680 c 2
 560 635 l 2
EndSplineSet
EndUndoOperation
UndoOperation
Index: 12
Type: 1
WasModified: 1
WasOrder2: 0
Layer: 2
Width: 526
VWidth: 1000
LBearingChange: 0
UnicodeEnc: 0
InstructionsLength: 0
SplineSet
495 405 m 6
 482 342 l 6
 479 328 464 317 451 317 c 6
 84 317 l 6
 70 317 62 328 65 342 c 6
 78 405 l 6
 81 419 94 430 108 430 c 6
 475 430 l 6
 488 430 498 419 495 405 c 6
560 635 m 2
 559 627 556 620 552 613 c 2
 188 35 l 2
 174 14 151 0 128 0 c 2
 77 0 l 2
 61 0 53 16 63 31 c 2
 435 624 l 1
 105 624 l 2
 92 624 84 634 87 646 c 2
 94 680 l 2
 101 712 131 737 163 737 c 2
 525 737 l 2
 557 737 577 712 570 680 c 2
 560 635 l 2
EndSplineSet
EndUndoOperation
UndoOperation
Index: 13
Type: 1
WasModified: 1
WasOrder2: 0
Layer: 2
Width: 526
VWidth: 1000
LBearingChange: 0
UnicodeEnc: 0
InstructionsLength: 0
SplineSet
485 405 m 6
 472 342 l 6
 469 328 454 317 441 317 c 6
 74 317 l 6
 60 317 52 328 55 342 c 6
 68 405 l 6
 71 419 84 430 98 430 c 6
 465 430 l 6
 478 430 488 419 485 405 c 6
560 635 m 2
 559 627 556 620 552 613 c 2
 188 35 l 2
 174 14 151 0 128 0 c 2
 77 0 l 2
 61 0 53 16 63 31 c 2
 435 624 l 1
 105 624 l 2
 92 624 84 634 87 646 c 2
 94 680 l 2
 101 712 131 737 163 737 c 2
 525 737 l 2
 557 737 577 712 570 680 c 2
 560 635 l 2
EndSplineSet
EndUndoOperation
UndoOperation
Index: 14
Type: 1
WasModified: 1
WasOrder2: 0
Layer: 2
Width: 526
VWidth: 1000
LBearingChange: 0
UnicodeEnc: 0
InstructionsLength: 0
SplineSet
475 405 m 6
 462 342 l 6
 459 328 444 317 431 317 c 6
 64 317 l 6
 50 317 42 328 45 342 c 6
 58 405 l 6
 61 419 74 430 88 430 c 6
 455 430 l 6
 468 430 478 419 475 405 c 6
560 635 m 2
 559 627 556 620 552 613 c 2
 188 35 l 2
 174 14 151 0 128 0 c 2
 77 0 l 2
 61 0 53 16 63 31 c 2
 435 624 l 1
 105 624 l 2
 92 624 84 634 87 646 c 2
 94 680 l 2
 101 712 131 737 163 737 c 2
 525 737 l 2
 557 737 577 712 570 680 c 2
 560 635 l 2
EndSplineSet
EndUndoOperation
UndoOperation
Index: 15
Type: 1
WasModified: 1
WasOrder2: 0
Layer: 2
Width: 526
VWidth: 1000
LBearingChange: 0
UnicodeEnc: 0
InstructionsLength: 0
SplineSet
475 395 m 6
 462 332 l 6
 459 318 444 307 431 307 c 6
 64 307 l 6
 50 307 42 318 45 332 c 6
 58 395 l 6
 61 409 74 420 88 420 c 6
 455 420 l 6
 468 420 478 409 475 395 c 6
560 635 m 2
 559 627 556 620 552 613 c 2
 188 35 l 2
 174 14 151 0 128 0 c 2
 77 0 l 2
 61 0 53 16 63 31 c 2
 435 624 l 1
 105 624 l 2
 92 624 84 634 87 646 c 2
 94 680 l 2
 101 712 131 737 163 737 c 2
 525 737 l 2
 557 737 577 712 570 680 c 2
 560 635 l 2
EndSplineSet
EndUndoOperation
UndoOperation
Index: 16
Type: 1
WasModified: 1
WasOrder2: 0
Layer: 2
Width: 526
VWidth: 1000
LBearingChange: 0
UnicodeEnc: 0
InstructionsLength: 0
SplineSet
475 385 m 6
 462 322 l 6
 459 308 444 297 431 297 c 6
 64 297 l 6
 50 297 42 308 45 322 c 6
 58 385 l 6
 61 399 74 410 88 410 c 6
 455 410 l 6
 468 410 478 399 475 385 c 6
560 635 m 2
 559 627 556 620 552 613 c 2
 188 35 l 2
 174 14 151 0 128 0 c 2
 77 0 l 2
 61 0 53 16 63 31 c 2
 435 624 l 1
 105 624 l 2
 92 624 84 634 87 646 c 2
 94 680 l 2
 101 712 131 737 163 737 c 2
 525 737 l 2
 557 737 577 712 570 680 c 2
 560 635 l 2
EndSplineSet
EndUndoOperation
UndoOperation
Index: 17
Type: 1
WasModified: 1
WasOrder2: 0
Layer: 2
Width: 526
VWidth: 1000
LBearingChange: 0
UnicodeEnc: 0
InstructionsLength: 0
SplineSet
475 375 m 6
 462 312 l 6
 459 298 444 287 431 287 c 6
 64 287 l 6
 50 287 42 298 45 312 c 6
 58 375 l 6
 61 389 74 400 88 400 c 6
 455 400 l 6
 468 400 478 389 475 375 c 6
560 635 m 2
 559 627 556 620 552 613 c 2
 188 35 l 2
 174 14 151 0 128 0 c 2
 77 0 l 2
 61 0 53 16 63 31 c 2
 435 624 l 1
 105 624 l 2
 92 624 84 634 87 646 c 2
 94 680 l 2
 101 712 131 737 163 737 c 2
 525 737 l 2
 557 737 577 712 570 680 c 2
 560 635 l 2
EndSplineSet
EndUndoOperation
UndoOperation
Index: 18
Type: 1
WasModified: 1
WasOrder2: 0
Layer: 2
Width: 526
VWidth: 1000
LBearingChange: 0
UnicodeEnc: 0
InstructionsLength: 0
SplineSet
475 365 m 6
 462 302 l 6
 459 288 444 277 431 277 c 6
 64 277 l 6
 50 277 42 288 45 302 c 6
 58 365 l 6
 61 379 74 390 88 390 c 6
 455 390 l 6
 468 390 478 379 475 365 c 6
560 635 m 2
 559 627 556 620 552 613 c 2
 188 35 l 2
 174 14 151 0 128 0 c 2
 77 0 l 2
 61 0 53 16 63 31 c 2
 435 624 l 1
 105 624 l 2
 92 624 84 634 87 646 c 2
 94 680 l 2
 101 712 131 737 163 737 c 2
 525 737 l 2
 557 737 577 712 570 680 c 2
 560 635 l 2
EndSplineSet
EndUndoOperation
UndoOperation
Index: 19
Type: 1
WasModified: 1
WasOrder2: 0
Layer: 2
Width: 526
VWidth: 1000
LBearingChange: 0
UnicodeEnc: 0
InstructionsLength: 0
SplineSet
475 355 m 6
 462 292 l 6
 459 278 444 267 431 267 c 6
 64 267 l 6
 50 267 42 278 45 292 c 6
 58 355 l 6
 61 369 74 380 88 380 c 6
 455 380 l 6
 468 380 478 369 475 355 c 6
560 635 m 2
 559 627 556 620 552 613 c 2
 188 35 l 2
 174 14 151 0 128 0 c 2
 77 0 l 2
 61 0 53 16 63 31 c 2
 435 624 l 1
 105 624 l 2
 92 624 84 634 87 646 c 2
 94 680 l 2
 101 712 131 737 163 737 c 2
 525 737 l 2
 557 737 577 712 570 680 c 2
 560 635 l 2
EndSplineSet
EndUndoOperation
UndoOperation
Index: 20
Type: 1
WasModified: 1
WasOrder2: 0
Layer: 2
Width: 526
VWidth: 1000
LBearingChange: 0
UnicodeEnc: 0
InstructionsLength: 0
SplineSet
475 345 m 6
 462 282 l 6
 459 268 444 257 431 257 c 6
 64 257 l 6
 50 257 42 268 45 282 c 6
 58 345 l 6
 61 359 74 370 88 370 c 6
 455 370 l 6
 468 370 478 359 475 345 c 6
560 635 m 2
 559 627 556 620 552 613 c 2
 188 35 l 2
 174 14 151 0 128 0 c 2
 77 0 l 2
 61 0 53 16 63 31 c 2
 435 624 l 1
 105 624 l 2
 92 624 84 634 87 646 c 2
 94 680 l 2
 101 712 131 737 163 737 c 2
 525 737 l 2
 557 737 577 712 570 680 c 2
 560 635 l 2
EndSplineSet
EndUndoOperation
UndoOperation
Index: 21
Type: 1
WasModified: 1
WasOrder2: 0
Layer: 2
Width: 526
VWidth: 1000
LBearingChange: 0
UnicodeEnc: 0
InstructionsLength: 0
SplineSet
475 335 m 6
 462 272 l 6
 459 258 444 247 431 247 c 6
 64 247 l 6
 50 247 42 258 45 272 c 6
 58 335 l 6
 61 349 74 360 88 360 c 6
 455 360 l 6
 468 360 478 349 475 335 c 6
560 635 m 2
 559 627 556 620 552 613 c 2
 188 35 l 2
 174 14 151 0 128 0 c 2
 77 0 l 2
 61 0 53 16 63 31 c 2
 435 624 l 1
 105 624 l 2
 92 624 84 634 87 646 c 2
 94 680 l 2
 101 712 131 737 163 737 c 2
 525 737 l 2
 557 737 577 712 570 680 c 2
 560 635 l 2
EndSplineSet
EndUndoOperation
UndoOperation
Index: 22
Type: 1
WasModified: 1
WasOrder2: 0
Layer: 2
Width: 526
VWidth: 1000
LBearingChange: 0
UnicodeEnc: 0
InstructionsLength: 0
SplineSet
475 325 m 6
 462 262 l 6
 459 248 444 237 431 237 c 6
 64 237 l 6
 50 237 42 248 45 262 c 6
 58 325 l 6
 61 339 74 350 88 350 c 6
 455 350 l 6
 468 350 478 339 475 325 c 6
560 635 m 2
 559 627 556 620 552 613 c 2
 188 35 l 2
 174 14 151 0 128 0 c 2
 77 0 l 2
 61 0 53 16 63 31 c 2
 435 624 l 1
 105 624 l 2
 92 624 84 634 87 646 c 2
 94 680 l 2
 101 712 131 737 163 737 c 2
 525 737 l 2
 557 737 577 712 570 680 c 2
 560 635 l 2
EndSplineSet
EndUndoOperation
UndoOperation
Index: 23
Type: 1
WasModified: 1
WasOrder2: 0
Layer: 2
Width: 526
VWidth: 1000
LBearingChange: 0
UnicodeEnc: 0
InstructionsLength: 0
SplineSet
475 315 m 6
 462 252 l 6
 459 238 444 227 431 227 c 6
 64 227 l 6
 50 227 42 238 45 252 c 6
 58 315 l 6
 61 329 74 340 88 340 c 6
 455 340 l 6
 468 340 478 329 475 315 c 6
560 635 m 2
 559 627 556 620 552 613 c 2
 188 35 l 2
 174 14 151 0 128 0 c 2
 77 0 l 2
 61 0 53 16 63 31 c 2
 435 624 l 1
 105 624 l 2
 92 624 84 634 87 646 c 2
 94 680 l 2
 101 712 131 737 163 737 c 2
 525 737 l 2
 557 737 577 712 570 680 c 2
 560 635 l 2
EndSplineSet
EndUndoOperation
UndoOperation
Index: 24
Type: 1
WasModified: 1
WasOrder2: 0
Layer: 2
Width: 526
VWidth: 1000
LBearingChange: 0
UnicodeEnc: 0
InstructionsLength: 0
SplineSet
475 305 m 6
 462 242 l 6
 459 228 444 217 431 217 c 6
 64 217 l 6
 50 217 42 228 45 242 c 6
 58 305 l 6
 61 319 74 330 88 330 c 6
 455 330 l 6
 468 330 478 319 475 305 c 6
560 635 m 2
 559 627 556 620 552 613 c 2
 188 35 l 2
 174 14 151 0 128 0 c 2
 77 0 l 2
 61 0 53 16 63 31 c 2
 435 624 l 1
 105 624 l 2
 92 624 84 634 87 646 c 2
 94 680 l 2
 101 712 131 737 163 737 c 2
 525 737 l 2
 557 737 577 712 570 680 c 2
 560 635 l 2
EndSplineSet
EndUndoOperation
UndoOperation
Index: 25
Type: 1
WasModified: 1
WasOrder2: 0
Layer: 2
Width: 526
VWidth: 1000
LBearingChange: 0
UnicodeEnc: 0
InstructionsLength: 0
SplineSet
475 295 m 6
 462 232 l 6
 459 218 444 207 431 207 c 6
 64 207 l 6
 50 207 42 218 45 232 c 6
 58 295 l 6
 61 309 74 320 88 320 c 6
 455 320 l 6
 468 320 478 309 475 295 c 6
560 635 m 2
 559 627 556 620 552 613 c 2
 188 35 l 2
 174 14 151 0 128 0 c 2
 77 0 l 2
 61 0 53 16 63 31 c 2
 435 624 l 1
 105 624 l 2
 92 624 84 634 87 646 c 2
 94 680 l 2
 101 712 131 737 163 737 c 2
 525 737 l 2
 557 737 577 712 570 680 c 2
 560 635 l 2
EndSplineSet
EndUndoOperation
UndoOperation
Index: 26
Type: 1
WasModified: 1
WasOrder2: 0
Layer: 2
Width: 526
VWidth: 1000
LBearingChange: 0
UnicodeEnc: 0
InstructionsLength: 0
SplineSet
475 285 m 6
 462 222 l 6
 459 208 444 197 431 197 c 6
 64 197 l 6
 50 197 42 208 45 222 c 6
 58 285 l 6
 61 299 74 310 88 310 c 6
 455 310 l 6
 468 310 478 299 475 285 c 6
560 635 m 2
 559 627 556 620 552 613 c 2
 188 35 l 2
 174 14 151 0 128 0 c 2
 77 0 l 2
 61 0 53 16 63 31 c 2
 435 624 l 1
 105 624 l 2
 92 624 84 634 87 646 c 2
 94 680 l 2
 101 712 131 737 163 737 c 2
 525 737 l 2
 557 737 577 712 570 680 c 2
 560 635 l 2
EndSplineSet
EndUndoOperation
UndoOperation
Index: 27
Type: 1
WasModified: 1
WasOrder2: 0
Layer: 2
Width: 526
VWidth: 1000
LBearingChange: 0
UnicodeEnc: 0
InstructionsLength: 0
SplineSet
475 275 m 6
 462 212 l 6
 459 198 444 187 431 187 c 6
 64 187 l 6
 50 187 42 198 45 212 c 6
 58 275 l 6
 61 289 74 300 88 300 c 6
 455 300 l 6
 468 300 478 289 475 275 c 6
560 635 m 2
 559 627 556 620 552 613 c 2
 188 35 l 2
 174 14 151 0 128 0 c 2
 77 0 l 2
 61 0 53 16 63 31 c 2
 435 624 l 1
 105 624 l 2
 92 624 84 634 87 646 c 2
 94 680 l 2
 101 712 131 737 163 737 c 2
 525 737 l 2
 557 737 577 712 570 680 c 2
 560 635 l 2
EndSplineSet
EndUndoOperation
UndoOperation
Index: 28
Type: 3
WasModified: 0
WasOrder2: 0
Layer: 2
HStem: 0 21G<69 77 77 128> 624 113<98.5 525 163 435>
VStem: 59 512
EndUndoOperation
EndUndoes
Redoes
EndRedoes
EndUndoRedoHistory
Fore
SplineSet
505 415 m 2
 492 352 l 2
 489 338 474 327 461 327 c 2
 154 327 l 6
 140 327 132 338 135 352 c 6
 148 415 l 6
 151 429 164 440 178 440 c 6
 485 440 l 2
 498 440 508 429 505 415 c 2
560 635 m 2
 559 627 556 620 552 613 c 2
 188 35 l 2
 174 14 151 0 128 0 c 2
 77 0 l 2
 61 0 53 16 63 31 c 2
 435 624 l 1
 105 624 l 2
 92 624 84 634 87 646 c 2
 94 680 l 2
 101 712 131 737 163 737 c 2
 525 737 l 2
 557 737 577 712 570 680 c 2
 560 635 l 2
EndSplineSet
EndChar

StartChar: eight
Encoding: 56 56 61
Width: 626
Flags: MW
HStem: 0 113<128 317 207 299> 329 113<240 354 308 352> 624 113<325.5 417 371 393>
VStem: 33 540 452 120
LayerCount: 2
Fore
SplineSet
469 397 m 1xf0
 517 369 541 308 528 249 c 2
 513 177 l 2
 492 79 397 0 299 0 c 2
 177 0 l 2
 79 0 16 79 37 177 c 2
 52 249 l 2
 65 308 115 369 175 397 c 1
 142 425 123 474 133 522 c 2
 138 544 l 2
 161 651 265 737 371 737 c 2
 417 737 l 2xe8
 523 737 592 651 569 544 c 2
 564 522 l 2
 554 474 515 425 469 397 c 1xf0
251 544 m 2
 246 522 l 2
 237 478 265 442 308 442 c 2
 354 442 l 2
 398 442 441 478 450 522 c 2
 455 544 l 2
 464 588 437 624 393 624 c 2xe8
 347 624 l 2
 304 624 260 588 251 544 c 2
401 183 m 2
 415 249 l 2
 425 293 396 329 352 329 c 2
 262 329 l 2
 218 329 175 293 165 249 c 2
 151 183 l 2
 143 145 169 113 207 113 c 2
 317 113 l 2
 355 113 393 145 401 183 c 2
EndSplineSet
EndChar

StartChar: nine
Encoding: 57 57 62
Width: 626
Flags: MW
HStem: 0 113<162 307 239 283> 272 113<196.5 364 274 340> 624 113<303 439 349 415>
VStem: 60 535
LayerCount: 2
Fore
SplineSet
250 272 m 2
 143 272 76 358 98 465 c 2
 115 544 l 2
 138 651 242 737 349 737 c 2
 439 737 l 2
 546 737 614 651 591 544 c 2
 519 204 l 2
 507 148 477 97 433 59 c 0
 389 21 336 0 283 0 c 2
 215 0 l 2
 109 0 41 86 64 193 c 2
 68 215 l 2
 71 228 83 238 95 238 c 2
 141 238 l 2
 166 238 182 218 177 193 c 1
 177 193 l 1
 167 149 196 113 239 113 c 2
 307 113 l 2
 353 113 395 151 406 204 c 2
 428 306 l 1
 406 287 367 272 340 272 c 2
 250 272 l 2
228 544 m 2
 211 465 l 2
 202 421 230 385 274 385 c 2
 364 385 l 2
 408 385 452 421 461 465 c 2
 478 544 l 2
 487 588 459 624 415 624 c 2
 325 624 l 2
 281 624 237 588 228 544 c 2
EndSplineSet
EndChar

StartChar: zero
Encoding: 48 48 63
Width: 626
Flags: HMW
HStem: 0 113<164.5 273 227 273> 624 113<327.5 405 359 405>
VStem: 43 115
LayerCount: 2
UndoRedoHistory
Layer: 1
Undoes
UndoOperation
Index: 0
Type: 1
WasModified: 1
WasOrder2: 0
Layer: 2
Width: 626
VWidth: 1000
LBearingChange: 0
UnicodeEnc: 0
InstructionsLength: 0
SplineSet
74 -25 m 6
 61 -25 50 -19 46 -8 c 4
 41 2 42 16 48 28 c 6
 457 736 l 6
 466 752 483 762 499 762 c 6
 536 762 l 6
 549 762 560 756 565 745 c 4
 570 735 569 721 562 709 c 6
 154 1 l 6
 144 -15 127 -25 111 -25 c 6
 74 -25 l 6
249 0 m 2
 227 0 l 2
 102 0 21 102 48 227 c 2
 108 510 l 2
 134 635 258 737 383 737 c 2
 405 737 l 2
 530 737 610 635 584 510 c 2
 524 227 l 2
 497 102 374 0 249 0 c 2
359 624 m 2
 296 624 234 573 221 510 c 2
 161 227 l 2
 147 164 188 113 251 113 c 2
 273 113 l 2
 336 113 397 164 411 227 c 2
 471 510 l 2
 484 573 444 624 381 624 c 2
 359 624 l 2
EndSplineSet
EndUndoOperation
UndoOperation
Index: 1
Type: 1
WasModified: 1
WasOrder2: 0
Layer: 2
Width: 626
VWidth: 1000
LBearingChange: 0
UnicodeEnc: 0
InstructionsLength: 0
SplineSet
64 -25 m 6
 51 -25 40 -19 36 -8 c 4
 31 2 32 16 38 28 c 6
 447 736 l 6
 456 752 473 762 489 762 c 6
 526 762 l 6
 539 762 550 756 555 745 c 4
 560 735 559 721 552 709 c 6
 144 1 l 6
 134 -15 117 -25 101 -25 c 6
 64 -25 l 6
249 0 m 2
 227 0 l 2
 102 0 21 102 48 227 c 2
 108 510 l 2
 134 635 258 737 383 737 c 2
 405 737 l 2
 530 737 610 635 584 510 c 2
 524 227 l 2
 497 102 374 0 249 0 c 2
359 624 m 2
 296 624 234 573 221 510 c 2
 161 227 l 2
 147 164 188 113 251 113 c 2
 273 113 l 2
 336 113 397 164 411 227 c 2
 471 510 l 2
 484 573 444 624 381 624 c 2
 359 624 l 2
EndSplineSet
EndUndoOperation
UndoOperation
Index: 2
Type: 1
WasModified: 1
WasOrder2: 0
Layer: 2
Width: 626
VWidth: 1000
LBearingChange: 0
UnicodeEnc: 0
InstructionsLength: 0
SplineSet
74 -25 m 6
 61 -25 50 -19 46 -8 c 4
 41 2 42 16 48 28 c 6
 457 736 l 6
 466 752 483 762 499 762 c 6
 536 762 l 6
 549 762 560 756 565 745 c 4
 570 735 569 721 562 709 c 6
 154 1 l 6
 144 -15 127 -25 111 -25 c 6
 74 -25 l 6
249 0 m 2
 227 0 l 2
 102 0 21 102 48 227 c 2
 108 510 l 2
 134 635 258 737 383 737 c 2
 405 737 l 2
 530 737 610 635 584 510 c 2
 524 227 l 2
 497 102 374 0 249 0 c 2
359 624 m 2
 296 624 234 573 221 510 c 2
 161 227 l 2
 147 164 188 113 251 113 c 2
 273 113 l 2
 336 113 397 164 411 227 c 2
 471 510 l 2
 484 573 444 624 381 624 c 2
 359 624 l 2
EndSplineSet
EndUndoOperation
UndoOperation
Index: 3
Type: 1
WasModified: 1
WasOrder2: 0
Layer: 2
Width: 626
VWidth: 1000
LBearingChange: 0
UnicodeEnc: 0
InstructionsLength: 0
SplineSet
64 -25 m 6
 51 -25 40 -19 36 -8 c 4
 31 2 32 16 38 28 c 6
 447 736 l 6
 456 752 473 762 489 762 c 6
 526 762 l 6
 539 762 550 756 555 745 c 4
 560 735 559 721 552 709 c 6
 144 1 l 6
 134 -15 117 -25 101 -25 c 6
 64 -25 l 6
249 0 m 2
 227 0 l 2
 102 0 21 102 48 227 c 2
 108 510 l 2
 134 635 258 737 383 737 c 2
 405 737 l 2
 530 737 610 635 584 510 c 2
 524 227 l 2
 497 102 374 0 249 0 c 2
359 624 m 2
 296 624 234 573 221 510 c 2
 161 227 l 2
 147 164 188 113 251 113 c 2
 273 113 l 2
 336 113 397 164 411 227 c 2
 471 510 l 2
 484 573 444 624 381 624 c 2
 359 624 l 2
EndSplineSet
EndUndoOperation
UndoOperation
Index: 4
Type: 1
WasModified: 1
WasOrder2: 0
Layer: 2
Width: 626
VWidth: 1000
LBearingChange: 0
UnicodeEnc: 0
InstructionsLength: 0
SplineSet
54 -25 m 6
 41 -25 30 -19 26 -8 c 4
 21 2 22 16 28 28 c 6
 437 736 l 6
 446 752 463 762 479 762 c 6
 516 762 l 6
 529 762 540 756 545 745 c 4
 550 735 549 721 542 709 c 6
 134 1 l 6
 124 -15 107 -25 91 -25 c 6
 54 -25 l 6
249 0 m 2
 227 0 l 2
 102 0 21 102 48 227 c 2
 108 510 l 2
 134 635 258 737 383 737 c 2
 405 737 l 2
 530 737 610 635 584 510 c 2
 524 227 l 2
 497 102 374 0 249 0 c 2
359 624 m 2
 296 624 234 573 221 510 c 2
 161 227 l 2
 147 164 188 113 251 113 c 2
 273 113 l 2
 336 113 397 164 411 227 c 2
 471 510 l 2
 484 573 444 624 381 624 c 2
 359 624 l 2
EndSplineSet
EndUndoOperation
UndoOperation
Index: 5
Type: 1
WasModified: 1
WasOrder2: 0
Layer: 2
Width: 626
VWidth: 1000
LBearingChange: 0
UnicodeEnc: 0
InstructionsLength: 0
SplineSet
44 -25 m 6
 31 -25 20 -19 16 -8 c 4
 11 2 12 16 18 28 c 6
 427 736 l 6
 436 752 453 762 469 762 c 6
 506 762 l 6
 519 762 530 756 535 745 c 4
 540 735 539 721 532 709 c 6
 124 1 l 6
 114 -15 97 -25 81 -25 c 6
 44 -25 l 6
249 0 m 2
 227 0 l 2
 102 0 21 102 48 227 c 2
 108 510 l 2
 134 635 258 737 383 737 c 2
 405 737 l 2
 530 737 610 635 584 510 c 2
 524 227 l 2
 497 102 374 0 249 0 c 2
359 624 m 2
 296 624 234 573 221 510 c 2
 161 227 l 2
 147 164 188 113 251 113 c 2
 273 113 l 2
 336 113 397 164 411 227 c 2
 471 510 l 2
 484 573 444 624 381 624 c 2
 359 624 l 2
EndSplineSet
EndUndoOperation
UndoOperation
Index: 6
Type: 1
WasModified: 1
WasOrder2: 0
Layer: 2
Width: 626
VWidth: 1000
LBearingChange: 0
UnicodeEnc: 0
InstructionsLength: 0
SplineSet
34 -25 m 6
 21 -25 10 -19 6 -8 c 4
 1 2 2 16 8 28 c 6
 417 736 l 6
 426 752 443 762 459 762 c 6
 496 762 l 6
 509 762 520 756 525 745 c 4
 530 735 529 721 522 709 c 6
 114 1 l 6
 104 -15 87 -25 71 -25 c 6
 34 -25 l 6
249 0 m 2
 227 0 l 2
 102 0 21 102 48 227 c 2
 108 510 l 2
 134 635 258 737 383 737 c 2
 405 737 l 2
 530 737 610 635 584 510 c 2
 524 227 l 2
 497 102 374 0 249 0 c 2
359 624 m 2
 296 624 234 573 221 510 c 2
 161 227 l 2
 147 164 188 113 251 113 c 2
 273 113 l 2
 336 113 397 164 411 227 c 2
 471 510 l 2
 484 573 444 624 381 624 c 2
 359 624 l 2
EndSplineSet
EndUndoOperation
UndoOperation
Index: 7
Type: 3
WasModified: 0
WasOrder2: 0
Layer: 2
HStem: 0 113<164.5 273 227 273> 624 113<327.5 405 359 405>
VStem: 43 115
EndUndoOperation
EndUndoes
Redoes
EndRedoes
EndUndoRedoHistory
Fore
SplineSet
84 -25 m 6
 71 -25 60 -19 56 -8 c 4
 51 2 52 16 58 28 c 6
 467 736 l 6
 476 752 493 762 509 762 c 6
 546 762 l 6
 559 762 570 756 575 745 c 4
 580 735 579 721 572 709 c 6
 164 1 l 6
 154 -15 137 -25 121 -25 c 6
 84 -25 l 6
249 0 m 2
 227 0 l 2
 102 0 21 102 48 227 c 2
 108 510 l 2
 134 635 258 737 383 737 c 2
 405 737 l 2
 530 737 610 635 584 510 c 2
 524 227 l 2
 497 102 374 0 249 0 c 2
359 624 m 2
 296 624 234 573 221 510 c 2
 161 227 l 2
 147 164 188 113 251 113 c 2
 273 113 l 2
 336 113 397 164 411 227 c 2
 471 510 l 2
 484 573 444 624 381 624 c 2
 359 624 l 2
EndSplineSet
EndChar

StartChar: degree
Encoding: 176 176 64
Width: 422
Flags: MW
HStem: 465 80<235.5 266.5 235.5 271.5> 657 80<259.5 290.5>
VStem: 124 83 319 83
LayerCount: 2
Fore
SplineSet
234 465 m 0
 159 465 111 526 127 601 c 0
 143 676 217 737 292 737 c 0
 367 737 415 676 399 601 c 0
 383 526 309 465 234 465 c 0
275 657 m 0
 244 657 214 632 207 601 c 0
 201 570 220 545 251 545 c 0
 282 545 313 570 319 601 c 0
 326 632 306 657 275 657 c 0
EndSplineSet
EndChar

StartChar: ampersand
Encoding: 38 38 65
Width: 701
Flags: MW
HStem: 0 113<139.5 296 217 272> 329 113<240 444 286 420 558 577 286 534> 624 113<303 464 349 426>
VStem: 37 600 107 118
LayerCount: 2
Fore
SplineSet
193 0 m 2xf0
 86 0 18 86 41 193 c 2xf0
 52 249 l 2
 63 300 97 348 149 385 c 1
 149 385 l 1
 113 423 100 471 110 522 c 2
 115 544 l 2
 138 650 242 737 349 737 c 2
 464 737 l 2
 488 737 503 718 498 694 c 2
 495 680 l 2
 488 649 457 624 426 624 c 2
 325 624 l 2
 281 624 237 588 228 544 c 2
 223 522 l 2
 214 478 242 442 286 442 c 2xe8
 444 442 l 1
 451 471 l 2
 457 502 489 527 520 527 c 2
 534 527 l 2
 558 527 572 508 568 485 c 2
 558 442 l 1
 601 442 l 2
 625 442 640 423 636 400 c 2
 629 371 l 2
 624 348 601 329 577 329 c 2
 534 329 l 1
 506 193 l 2
 494 141 464 93 419 56 c 0
 376 20 324 0 272 0 c 2
 193 0 l 2xf0
262 329 m 2
 218 329 175 293 165 249 c 2
 154 193 l 2
 144 149 173 113 217 113 c 2
 296 113 l 2
 340 113 382 149 392 193 c 2
 420 329 l 1
 262 329 l 2
EndSplineSet
EndChar

StartChar: at
Encoding: 64 64 66
Width: 843
Flags: MW
HStem: 0 91<259 610 381 610 610 625> 159 90<335.5 495 410 495 586 654> 465 91<426.5 584 479 541> 624 90<416 617 514 598>
VStem: 68 94 708 93
LayerCount: 2
Fore
SplineSet
584 556 m 2
 621 556 645 525 637 488 c 2
 586 249 l 1
 654 249 l 1
 705 488 l 2
 721 563 673 624 598 624 c 2
 490 624 l 2
 342 624 195 502 167 353 c 0
 137 207 235 91 381 91 c 2
 610 91 l 2
 641 91 660 65 654 34 c 2
 651 23 l 2
 649 10 637 0 625 0 c 2
 358 0 l 2
 160 0 33 162 77 361 c 0
 121 557 317 714 514 714 c 2
 617 714 l 2
 742 714 823 613 796 488 c 2
 741 227 l 2
 733 189 695 159 658 159 c 2
 391 159 l 2
 280 159 211 250 236 361 c 0
 261 470 371 556 479 556 c 2
 584 556 l 2
495 249 m 1
 541 465 l 1
 456 465 l 2
 397 465 338 417 325 357 c 0
 313 298 351 249 410 249 c 2
 495 249 l 1
EndSplineSet
EndChar

StartChar: numbersign
Encoding: 35 35 67
Width: 764
Flags: MW
HStem: 0 21G<86 93 93 132 325 332 332 371> 192 114<56.5 185 88 140 298 379 88 253 537 589> 431 114<150 277 180 233 180 347 391 472 629 683> 717 20G<400 438 438 445.5 639 677 677 684>
VStem: 45 679<215 522>
LayerCount: 2
Fore
SplineSet
707 545 m 2
 719 545 727 534 724 522 c 2
 710 454 l 2
 707 441 695 431 683 431 c 2
 585 431 l 1
 537 306 l 1
 614 306 l 2
 627 306 634 296 632 283 c 2
 617 215 l 2
 614 202 602 192 589 192 c 2
 492 192 l 1
 436 47 l 2
 426 20 398 0 371 0 c 2
 332 0 l 2
 318 0 309 13 315 27 c 2
 379 192 l 1
 253 192 l 1
 197 47 l 2
 187 20 159 0 132 0 c 2
 93 0 l 2
 79 0 70 13 76 27 c 2
 140 192 l 1
 63 192 l 2
 50 192 42 202 45 215 c 2
 60 283 l 2
 62 296 75 306 88 306 c 2
 185 306 l 1
 233 431 l 1
 156 431 l 2
 144 431 136 441 139 454 c 2
 153 522 l 2
 156 534 168 545 180 545 c 2
 277 545 l 1
 334 690 l 2
 345 717 372 737 400 737 c 2
 438 737 l 2
 453 737 460 724 455 710 c 2
 391 545 l 1
 516 545 l 1
 573 690 l 2
 583 717 611 737 639 737 c 2
 677 737 l 2
 691 737 699 724 694 710 c 2
 629 545 l 1
 707 545 l 2
424 306 m 1
 472 431 l 1
 347 431 l 1
 298 306 l 1
 424 306 l 1
EndSplineSet
EndChar

StartChar: question
Encoding: 63 63 68
Width: 593
Flags: MW
HStem: 0 21G<180.5 227.5> 0 170<216.5 227.5> 204 215<207 291 213 291 236 291 281 291> 624 113<319 379 347 379>
VStem: 107 450
LayerCount: 2
Fore
SplineSet
240 170 m 0x78
 287 170 317 132 307 85 c 0
 297 38 251 0 204 0 c 0
 157 0 127 38 137 85 c 0
 147 132 193 170 240 170 c 0x78
553 524 m 0
 533 424 448 339 349 314 c 1
 326 307 l 1
 321 283 l 1
 321 283 l 1
 309 227 l 2
 306 214 294 204 281 204 c 1
 281 204 l 1
 236 204 l 1
 213 204 l 2
 201 204 192 214 195 227 c 2
 224 365 l 2
 230 395 261 419 291 419 c 1
 291 419 291 419 291 419 c 1
 313 419 l 2
 371 419 429 466 440 523 c 0
 451 579 414 624 359 624 c 2
 347 624 l 2
 291 624 235 578 223 522 c 2
 221 510 l 2
 214 479 184 453 153 453 c 1
 153 453 l 1
 121 453 101 479 108 510 c 2
 110 522 l 1
 136 641 252 737 371 737 c 2
 379 737 l 2
 498 737 577 643 553 524 c 0
EndSplineSet
EndChar

StartChar: exclamdown
Encoding: 161 161 69
Width: 320
Flags: MW
HStem: 0 21G<39.5 49 49 121> 567 170<217.5 228.5> 717 20G<217.5 264.5>
VStem: 23 287
LayerCount: 2
Fore
SplineSet
230 499 m 2xb0
 160 34 l 2
 157 16 140 0 121 0 c 2
 49 0 l 2
 30 0 19 16 24 34 c 2
 152 499 l 2
 155 512 168 522 180 522 c 2
 209 522 l 2
 222 522 231 512 230 499 c 2xb0
205 567 m 0xd0
 158 567 128 605 138 652 c 0
 148 699 194 737 241 737 c 0
 288 737 318 699 308 652 c 0
 298 605 252 567 205 567 c 0xd0
EndSplineSet
EndChar

StartChar: percent
Encoding: 37 37 70
Width: 751
Flags: MW
HStem: 0 80<466.5 497.5 466.5 502.5> 192 80<489.5 520.5> 465 80<235.5 266.5 235.5 271.5> 657 80<259.5 290.5>
VStem: 124 83 319 83 354 83 549 83
LayerCount: 2
Fore
SplineSet
399 601 m 0xfd
 383 526 309 465 234 465 c 0
 159 465 111 526 127 601 c 0
 143 676 217 737 292 737 c 0
 367 737 415 676 399 601 c 0xfd
207 601 m 0
 201 570 220 545 251 545 c 0
 282 545 313 570 319 601 c 0
 326 632 306 657 275 657 c 0
 244 657 214 632 207 601 c 0
522 272 m 0
 597 272 645 211 629 136 c 0
 613 61 540 0 465 0 c 0
 390 0 341 61 357 136 c 0
 373 211 447 272 522 272 c 0
482 80 m 0
 513 80 543 105 549 136 c 0
 556 167 536 192 505 192 c 0
 474 192 444 167 437 136 c 0
 431 105 451 80 482 80 c 0
519 718 m 2xfd
 527 730 538 737 550 737 c 2
 610 737 l 2
 630 737 640 717 629 699 c 2
 237 19 l 2
 230 7 219 0 207 0 c 2xfb
 146 0 l 2
 127 0 117 20 128 38 c 2
 519 718 l 2xfd
EndSplineSet
EndChar

StartChar: dollar
Encoding: 36 36 71
Width: 549
Flags: MW
HStem: 0 204<153.5 160 160 228> 91 113<47.5 269 112 156> 317 114<193.5 319 262 295> 544 114<272.5 457 389 399> 544 193<272.5 384 316 384 384 390 316 399>
VStem: 36 439
LayerCount: 2
Fore
SplineSet
454 264 m 0xac
 436 177 356 105 269 93 c 1
 254 23 l 2
 252 10 240 0 228 0 c 2
 160 0 l 2
 147 0 139 10 141 23 c 2xac
 156 91 l 1
 54 91 l 2
 41 91 33 101 36 113 c 2x6c
 43 147 l 2
 50 179 81 204 112 204 c 2
 269 204 l 2
 300 204 331 227 338 258 c 0
 347 290 327 317 295 317 c 2
 241 317 l 2
 146 317 82 395 105 490 c 0
 123 571 195 639 276 654 c 1
 288 714 l 2
 291 727 303 737 316 737 c 2
 384 737 l 2
 396 737 404 727 401 714 c 2xac
 389 658 l 1
 457 658 l 2
 470 658 478 647 475 635 c 2xb4
 468 601 l 2
 462 570 431 544 399 544 c 2
 288 544 l 2
 257 544 226 521 218 490 c 0
 210 458 230 431 262 431 c 2
 319 431 l 2
 412 431 471 356 454 264 c 0xac
EndSplineSet
EndChar

StartChar: aacute
Encoding: 225 225 72
Width: 583
Flags: MW
HStem: 113 136<158.5 372 202 344> 363 90<212 227 227 359 359 375 212 397>
VStem: 12 550
LayerCount: 2
Fore
SplineSet
452 810 m 2
 479 838 520 840 539 816 c 2
 559 791 l 2
 566 782 563 768 552 759 c 2
 362 603 l 2
 351 594 337 594 330 603 c 2
 322 611 l 1
 308 631 311 663 333 685 c 2
 452 810 l 2
377 0 m 2
 408 0 438 25 445 57 c 2
 517 397 l 2
 537 491 477 567 383 567 c 2
 202 567 l 2
 189 567 177 557 174 544 c 2
 167 510 l 2
 160 479 181 453 212 453 c 2
 359 453 l 2
 391 453 410 428 404 397 c 2
 397 363 l 1
 227 363 l 2
 133 363 41 287 21 193 c 2
 16 170 l 2
 -3 76 56 0 150 0 c 2
 377 0 l 2
202 249 m 2
 372 249 l 1
 344 113 l 1
 174 113 l 2
 143 113 122 139 129 170 c 2
 134 193 l 2
 140 224 171 249 202 249 c 2
EndSplineSet
EndChar

StartChar: eacute
Encoding: 233 233 73
Width: 603
Flags: MW
HStem: 170 57<149 445 390.5 395 395 445 445 460.5 161 465> 340 113<185 379 266 379 379 395 266 412>
VStem: 32 550
LayerCount: 2
Fore
SplineSet
472 810 m 2
 499 838 540 840 559 816 c 2
 579 791 l 2
 586 782 583 768 572 759 c 2
 382 603 l 2
 371 594 357 594 350 603 c 2
 342 611 l 1
 328 631 331 663 353 685 c 2
 472 810 l 2
283 0 m 2
 368 0 452 63 482 144 c 0
 487 158 479 170 465 170 c 2
 395 170 l 2
 386 170 375 164 370 154 c 0
 358 131 333 113 307 113 c 2
 194 113 l 2
 163 113 142 139 149 170 c 2
 161 227 l 1
 445 227 l 2
 476 227 506 252 513 283 c 2
 537 397 l 2
 557 491 497 567 403 567 c 2
 290 567 l 2
 196 567 104 491 84 397 c 2
 36 170 l 2
 16 76 76 0 170 0 c 2
 283 0 l 2
185 340 m 1
 197 397 l 2
 203 428 235 453 266 453 c 2
 379 453 l 2
 411 453 430 428 424 397 c 2
 412 340 l 1
 185 340 l 1
EndSplineSet
EndChar

StartChar: oacute
Encoding: 243 243 74
Width: 603
Flags: MW
HStem: 0 832
VStem: 32 550
LayerCount: 2
Fore
SplineSet
472 810 m 2
 499 838 540 840 559 816 c 2
 579 791 l 2
 586 782 583 768 572 759 c 2
 382 603 l 2
 371 594 357 594 350 603 c 2
 342 611 l 1
 328 631 331 663 353 685 c 2
 472 810 l 2
283 0 m 2
 377 0 469 76 489 170 c 2
 537 397 l 2
 557 491 497 567 403 567 c 2
 290 567 l 2
 196 567 104 491 84 397 c 2
 36 170 l 2
 16 76 76 0 170 0 c 2
 283 0 l 2
266 453 m 2
 379 453 l 2
 411 453 430 428 424 397 c 2
 376 170 l 2
 369 139 339 113 307 113 c 2
 194 113 l 2
 163 113 142 139 149 170 c 2
 197 397 l 2
 203 428 235 453 266 453 c 2
EndSplineSet
EndChar

StartChar: uacute
Encoding: 250 250 75
Width: 603
Flags: MW
HStem: 0 832
VStem: 32 550
LayerCount: 2
Fore
SplineSet
472 810 m 2
 499 838 540 840 559 816 c 2
 579 791 l 2
 586 782 583 768 572 759 c 2
 382 603 l 2
 371 594 357 594 350 603 c 2
 342 611 l 1
 328 631 331 663 353 685 c 2
 472 810 l 2
283 0 m 2
 377 0 469 76 489 170 c 2
 568 544 l 2
 571 557 563 567 551 567 c 2
 517 567 l 2
 485 567 454 541 448 510 c 2
 376 170 l 2
 369 139 339 113 307 113 c 2
 194 113 l 2
 163 113 142 139 149 170 c 2
 221 510 l 2
 227 541 208 567 177 567 c 2
 143 567 l 2
 130 567 118 557 115 544 c 2
 36 170 l 2
 16 76 76 0 170 0 c 2
 283 0 l 2
EndSplineSet
EndChar

StartChar: udieresis
Encoding: 252 252 76
Width: 603
Flags: MW
HStem: 567 170<136.5 311 143 311> 601 136<273 282 454.5 463>
VStem: 32 536
LayerCount: 2
Fore
SplineSet
292 737 m 0x60
 330 737 354 707 346 669 c 0
 338 631 301 601 263 601 c 0
 225 601 202 631 210 669 c 0
 218 707 254 737 292 737 c 0x60
473 737 m 0
 511 737 535 707 527 669 c 0
 519 631 482 601 444 601 c 0
 407 601 383 631 391 669 c 0
 399 707 436 737 473 737 c 0
283 0 m 2
 377 0 469 76 489 170 c 2
 568 544 l 2
 571 557 563 567 551 567 c 2
 517 567 l 2
 485 567 454 541 448 510 c 2
 376 170 l 2
 369 139 339 113 307 113 c 2
 194 113 l 2
 163 113 142 139 149 170 c 2
 221 510 l 2
 227 541 208 567 177 567 c 2
 143 567 l 2
 130 567 118 557 115 544 c 2xa0
 36 170 l 2
 16 76 76 0 170 0 c 2
 283 0 l 2
EndSplineSet
EndChar

StartChar: adieresis
Encoding: 228 228 77
Width: 583
Flags: MW
HStem: 113 136<158.5 372 202 344> 363 90<212 227 227 359 359 375 212 397> 567 170<195.5 291 253 291 253 383> 601 136<253 262 434.5 443>
VStem: 12 509
LayerCount: 2
Fore
SplineSet
272 737 m 0xe8
 310 737 334 707 326 669 c 0
 318 631 281 601 243 601 c 0
 205 601 182 631 190 669 c 0
 198 707 234 737 272 737 c 0xe8
453 737 m 0
 491 737 515 707 507 669 c 0
 499 631 462 601 424 601 c 0
 387 601 363 631 371 669 c 0
 379 707 416 737 453 737 c 0
377 0 m 2
 408 0 438 25 445 57 c 2
 517 397 l 2xd8
 537 491 477 567 383 567 c 2
 202 567 l 2
 189 567 177 557 174 544 c 2xe8
 167 510 l 2
 160 479 181 453 212 453 c 2xd8
 359 453 l 2
 391 453 410 428 404 397 c 2
 397 363 l 1
 227 363 l 2
 133 363 41 287 21 193 c 2
 16 170 l 2
 -3 76 56 0 150 0 c 2
 377 0 l 2
202 249 m 2
 372 249 l 1
 344 113 l 1
 174 113 l 2
 143 113 122 139 129 170 c 2
 134 193 l 2
 140 224 171 249 202 249 c 2
EndSplineSet
EndChar

StartChar: edieresis
Encoding: 235 235 78
Width: 603
Flags: MW
HStem: 170 57<149 445 390.5 395 395 445 445 460.5 161 465> 340 113<185 379 266 379 379 395 266 412> 567 170<273 290 290 311 273 403> 601 136<273 282 454.5 463>
VStem: 32 509
LayerCount: 2
Fore
SplineSet
292 737 m 0xe8
 330 737 354 707 346 669 c 0
 338 631 301 601 263 601 c 0
 225 601 202 631 210 669 c 0
 218 707 254 737 292 737 c 0xe8
473 737 m 0
 511 737 535 707 527 669 c 0
 519 631 482 601 444 601 c 0
 407 601 383 631 391 669 c 0
 399 707 436 737 473 737 c 0
283 0 m 2
 368 0 452 63 482 144 c 0
 487 158 479 170 465 170 c 2xd8
 395 170 l 2
 386 170 375 164 370 154 c 0
 358 131 333 113 307 113 c 2xe8
 194 113 l 2
 163 113 142 139 149 170 c 2xd8
 161 227 l 1
 445 227 l 2
 476 227 506 252 513 283 c 2
 537 397 l 2
 557 491 497 567 403 567 c 2
 290 567 l 2
 196 567 104 491 84 397 c 2
 36 170 l 2
 16 76 76 0 170 0 c 2
 283 0 l 2
185 340 m 1
 197 397 l 2
 203 428 235 453 266 453 c 2
 379 453 l 2
 411 453 430 428 424 397 c 2
 412 340 l 1
 185 340 l 1
EndSplineSet
EndChar

StartChar: odieresis
Encoding: 246 246 79
Width: 603
Flags: MW
HStem: 567 170<273 290 290 311 273 403> 601 136<273 282 454.5 463>
VStem: 32 509
LayerCount: 2
Fore
SplineSet
292 737 m 0xa0
 330 737 354 707 346 669 c 0
 338 631 301 601 263 601 c 0
 225 601 202 631 210 669 c 0
 218 707 254 737 292 737 c 0xa0
473 737 m 0
 511 737 535 707 527 669 c 0
 519 631 482 601 444 601 c 0
 407 601 383 631 391 669 c 0
 399 707 436 737 473 737 c 0
283 0 m 2
 377 0 469 76 489 170 c 2
 537 397 l 2x60
 557 491 497 567 403 567 c 2
 290 567 l 2
 196 567 104 491 84 397 c 2xa0
 36 170 l 2
 16 76 76 0 170 0 c 2x60
 283 0 l 2
266 453 m 2
 379 453 l 2
 411 453 430 428 424 397 c 2
 376 170 l 2
 369 139 339 113 307 113 c 2
 194 113 l 2
 163 113 142 139 149 170 c 2
 197 397 l 2
 203 428 235 453 266 453 c 2
EndSplineSet
EndChar

StartChar: d
Encoding: 100 100 80
Width: 603
Flags: MW
HStem: 0 113<123 364 194 364 194 431> 453 114<250.5 460 290 436> 717 20G<553 587 587 593>
VStem: 32 572
LayerCount: 2
Fore
SplineSet
170 0 m 2
 76 0 16 76 36 170 c 2
 84 397 l 2
 104 491 196 567 290 567 c 2
 460 567 l 1
 484 680 l 2
 491 712 521 737 553 737 c 2
 587 737 l 2
 599 737 607 727 604 714 c 2
 457 23 l 2
 455 10 443 0 431 0 c 2
 170 0 l 2
364 113 m 1
 436 453 l 1
 266 453 l 2
 235 453 203 428 197 397 c 2
 149 170 l 2
 142 139 163 113 194 113 c 2
 364 113 l 1
EndSplineSet
EndChar

StartChar: ntilde
Encoding: 241 241 81
Width: 603
Flags: MW
HStem: 0 21G<16.5 23 23 91 356.5 363 363 431> 453 114<209 379 209 209> 627 80 627 110 654 79
VStem: 4 537 424 117
LayerCount: 2
Fore
SplineSet
476 737 m 2xd4
 515 737 l 2
 530 737 538 722 530 707 c 0
 516 682 496 660 469 645 c 0
 431 624 389 621 357 638 c 2xd4
 335 650 l 2
 320 658 306 652 300 649 c 0
 297 647 291 642 285 635 c 0
 280 628 272 624 263 624 c 2
 227 624 l 2
 211 624 204 638 211 653 c 0
 225 679 247 701 273 716 c 0
 310 737 352 739 384 722 c 2xcc
 407 710 l 2
 421 703 435 709 441 712 c 0xe4
 444 714 451 719 457 726 c 0
 461 733 468 737 476 737 c 2xd4
431 0 m 2
 363 0 l 2
 350 0 342 10 344 23 c 2
 424 397 l 2
 430 428 411 453 379 453 c 2
 209 453 l 1
 117 23 l 2
 115 10 103 0 91 0 c 2
 23 0 l 2
 10 0 2 10 4 23 c 2
 115 544 l 2
 118 557 130 567 143 567 c 2
 403 567 l 2xd2
 497 567 557 491 537 397 c 2
 457 23 l 2
 455 10 443 0 431 0 c 2
EndSplineSet
EndChar

StartChar: atilde
Encoding: 227 227 82
Width: 583
Flags: MW
HStem: 0 113<103 344 174 344 174 377> 249 114<186.5 397 227 372> 453 114<202 212 212 359> 627 80 627 110 654 79
VStem: 12 119 400 120
LayerCount: 2
Fore
SplineSet
476 737 m 2xeb
 515 737 l 2
 530 737 538 722 530 707 c 0
 516 682 496 660 469 645 c 0
 431 624 389 621 357 638 c 2xeb
 335 650 l 2
 320 658 306 652 300 649 c 0
 297 647 291 642 285 635 c 0
 280 628 272 624 263 624 c 2
 227 624 l 2
 211 624 204 638 211 653 c 0
 225 679 247 701 273 716 c 0
 310 737 352 739 384 722 c 2xe7
 407 710 l 2
 421 703 435 709 441 712 c 0xf3
 444 714 451 719 457 726 c 0
 461 733 468 737 476 737 c 2xeb
377 0 m 2
 150 0 l 2
 56 0 -3 76 16 170 c 2
 21 193 l 2
 41 287 133 363 227 363 c 2
 397 363 l 1
 404 397 l 2
 410 428 391 453 359 453 c 2
 212 453 l 2
 181 453 160 479 167 510 c 2
 174 544 l 2
 177 557 189 567 202 567 c 2
 383 567 l 2
 477 567 537 491 517 397 c 2
 445 57 l 2
 438 25 408 0 377 0 c 2
202 249 m 2
 171 249 140 224 134 193 c 2
 129 170 l 2
 122 139 143 113 174 113 c 2
 344 113 l 1
 372 249 l 1
 202 249 l 2
EndSplineSet
EndChar

StartChar: otilde
Encoding: 245 245 83
Width: 603
Flags: MW
HStem: 0 113<123 307 194 283> 453 114<250.5 403 290 379> 627 80 627 110 654 79
VStem: 32 509 424 117
LayerCount: 2
Fore
SplineSet
476 737 m 2xd4
 515 737 l 2
 530 737 538 722 530 707 c 0
 516 682 496 660 469 645 c 0
 431 624 389 621 357 638 c 2xd4
 335 650 l 2
 320 658 306 652 300 649 c 0
 297 647 291 642 285 635 c 0
 280 628 272 624 263 624 c 2
 227 624 l 2
 211 624 204 638 211 653 c 0
 225 679 247 701 273 716 c 0
 310 737 352 739 384 722 c 2xcc
 407 710 l 2
 421 703 435 709 441 712 c 0xe4
 444 714 451 719 457 726 c 0
 461 733 468 737 476 737 c 2xd4
283 0 m 2
 170 0 l 2
 76 0 16 76 36 170 c 2
 84 397 l 2
 104 491 196 567 290 567 c 2
 403 567 l 2xd2
 497 567 557 491 537 397 c 2
 489 170 l 2
 469 76 377 0 283 0 c 2
379 453 m 2
 266 453 l 2
 235 453 203 428 197 397 c 2
 149 170 l 2
 142 139 163 113 194 113 c 2
 307 113 l 2
 339 113 369 139 376 170 c 2
 424 397 l 2
 430 428 411 453 379 453 c 2
EndSplineSet
EndChar

StartChar: agrave
Encoding: 224 224 84
Width: 583
Flags: MW
HStem: 113 136<158.5 372 202 344> 363 90<212 227 227 359 359 375 212 397> 567 265
VStem: 12 509
LayerCount: 2
Fore
SplineSet
383 810 m 2
 448 685 l 2
 460 663 451 631 427 611 c 2
 417 603 l 2
 406 594 392 594 385 603 c 2
 261 759 l 2
 254 768 257 782 268 791 c 2
 298 816 l 2
 327 840 368 838 383 810 c 2
377 0 m 2
 408 0 438 25 445 57 c 2
 517 397 l 2
 537 491 477 567 383 567 c 2
 202 567 l 2
 189 567 177 557 174 544 c 2
 167 510 l 2
 160 479 181 453 212 453 c 2
 359 453 l 2
 391 453 410 428 404 397 c 2
 397 363 l 1
 227 363 l 2
 133 363 41 287 21 193 c 2
 16 170 l 2
 -3 76 56 0 150 0 c 2
 377 0 l 2
202 249 m 2
 372 249 l 1
 344 113 l 1
 174 113 l 2
 143 113 122 139 129 170 c 2
 134 193 l 2
 140 224 171 249 202 249 c 2
EndSplineSet
EndChar

StartChar: ograve
Encoding: 242 242 85
Width: 603
Flags: MW
HStem: 567 265
VStem: 32 509
LayerCount: 2
Fore
SplineSet
383 810 m 2
 448 685 l 2
 460 663 451 631 427 611 c 2
 417 603 l 2
 406 594 392 594 385 603 c 2
 261 759 l 2
 254 768 257 782 268 791 c 2
 298 816 l 2
 327 840 368 838 383 810 c 2
283 0 m 2
 377 0 469 76 489 170 c 2
 537 397 l 2
 557 491 497 567 403 567 c 2
 290 567 l 2
 196 567 104 491 84 397 c 2
 36 170 l 2
 16 76 76 0 170 0 c 2
 283 0 l 2
266 453 m 2
 379 453 l 2
 411 453 430 428 424 397 c 2
 376 170 l 2
 369 139 339 113 307 113 c 2
 194 113 l 2
 163 113 142 139 149 170 c 2
 197 397 l 2
 203 428 235 453 266 453 c 2
EndSplineSet
EndChar

StartChar: egrave
Encoding: 232 232 86
Width: 603
Flags: MW
HStem: 170 57<149 445 390.5 395 395 445 445 460.5 161 465> 340 113<185 379 266 379 379 395 266 412> 567 265
VStem: 32 509
LayerCount: 2
Fore
SplineSet
383 810 m 2
 448 685 l 2
 460 663 451 631 427 611 c 2
 417 603 l 2
 406 594 392 594 385 603 c 2
 261 759 l 2
 254 768 257 782 268 791 c 2
 298 816 l 2
 327 840 368 838 383 810 c 2
283 0 m 2
 368 0 452 63 482 144 c 0
 487 158 479 170 465 170 c 2
 395 170 l 2
 386 170 375 164 370 154 c 0
 358 131 333 113 307 113 c 2
 194 113 l 2
 163 113 142 139 149 170 c 2
 161 227 l 1
 445 227 l 2
 476 227 506 252 513 283 c 2
 537 397 l 2
 557 491 497 567 403 567 c 2
 290 567 l 2
 196 567 104 491 84 397 c 2
 36 170 l 2
 16 76 76 0 170 0 c 2
 283 0 l 2
185 340 m 1
 197 397 l 2
 203 428 235 453 266 453 c 2
 379 453 l 2
 411 453 430 428 424 397 c 2
 412 340 l 1
 185 340 l 1
EndSplineSet
EndChar

StartChar: ugrave
Encoding: 249 249 87
Width: 603
Flags: MW
HStem: 0 832
VStem: 32 536
LayerCount: 2
Fore
SplineSet
383 810 m 2
 448 685 l 2
 460 663 451 631 427 611 c 2
 417 603 l 2
 406 594 392 594 385 603 c 2
 261 759 l 2
 254 768 257 782 268 791 c 2
 298 816 l 2
 327 840 368 838 383 810 c 2
283 0 m 2
 377 0 469 76 489 170 c 2
 568 544 l 2
 571 557 563 567 551 567 c 2
 517 567 l 2
 485 567 454 541 448 510 c 2
 376 170 l 2
 369 139 339 113 307 113 c 2
 194 113 l 2
 163 113 142 139 149 170 c 2
 221 510 l 2
 227 541 208 567 177 567 c 2
 143 567 l 2
 130 567 118 557 115 544 c 2
 36 170 l 2
 16 76 76 0 170 0 c 2
 283 0 l 2
EndSplineSet
EndChar

StartChar: questiondown
Encoding: 191 191 88
Width: 593
Flags: MW
HStem: 0 113<4.5 96 64 96> 318 215<101 162 130 162 152 162> 567 170<215.5 226.5> 717 20G<215.5 262.5>
VStem: -114 450
LayerCount: 2
Fore
SplineSet
203 567 m 0xe8
 156 567 126 605 136 652 c 0
 146 699 192 737 239 737 c 0
 286 737 316 699 306 652 c 0
 296 605 250 567 203 567 c 0xe8
-110 213 m 0
 -90 313 -5 398 94 423 c 1
 117 430 l 1
 122 454 l 1
 122 454 l 1
 134 510 l 2
 137 523 149 533 162 533 c 1
 162 533 l 1
 207 533 l 1
 230 533 l 2
 242 533 251 523 248 510 c 2
 219 372 l 2
 213 342 182 318 152 318 c 1
 152 318 152 318 152 318 c 1
 130 318 l 2
 72 318 14 271 3 214 c 0
 -8 158 29 113 84 113 c 2
 96 113 l 2
 152 113 208 159 220 215 c 2
 222 227 l 2
 229 258 259 284 290 284 c 1
 290 284 l 1
 322 284 342 258 335 227 c 2
 333 215 l 1
 307 96 191 0 72 0 c 2
 64 0 l 2
 -55 0 -134 94 -110 213 c 0
EndSplineSet
EndChar

StartChar: exclam
Encoding: 33 33 89
Width: 320
Flags: MW
HStem: 0 21G<61.5 108.5> 0 170<97.5 108.5> 717 20G<205 277 277 286.5>
VStem: 16 287
LayerCount: 2
Fore
SplineSet
302 703 m 2xb0
 174 238 l 2
 170 225 157 215 144 215 c 2
 115 215 l 2
 103 215 94 225 96 238 c 2
 166 703 l 2
 169 721 186 737 205 737 c 2
 277 737 l 2
 296 737 307 721 302 703 c 2xb0
121 170 m 0x70
 168 170 198 132 188 85 c 0
 178 38 132 0 85 0 c 0
 38 0 8 38 18 85 c 0
 28 132 74 170 121 170 c 0x70
EndSplineSet
EndChar

StartChar: Aacute
Encoding: 193 193 90
Width: 626
Flags: MW
HStem: 0 21G<16.5 23 23 57 403.5 419 419 453> 261 113<192 418 168 442> 624 113<286.5 462 326 438>
VStem: 4 616
LayerCount: 2
Fore
SplineSet
510 990 m 2
 537 1018 578 1020 597 996 c 2
 617 971 l 2
 624 962 621 948 610 939 c 2
 420 783 l 2
 409 774 395 774 388 783 c 2
 381 791 l 2
 366 811 370 843 391 865 c 2
 510 990 l 2
462 737 m 2
 556 737 616 661 596 567 c 2
 480 23 l 2
 478 10 466 0 453 0 c 2
 419 0 l 2
 388 0 368 25 375 57 c 2
 418 261 l 1
 168 261 l 1
 125 57 l 2
 118 25 88 0 57 0 c 2
 23 0 l 2
 10 0 2 10 4 23 c 2
 120 567 l 2
 140 661 232 737 326 737 c 2
 462 737 l 2
192 374 m 1
 442 374 l 1
 483 567 l 2
 490 598 469 624 438 624 c 2
 302 624 l 2
 271 624 240 598 233 567 c 2
 192 374 l 1
EndSplineSet
EndChar

StartChar: Eacute
Encoding: 201 201 91
Width: 626
Flags: MW
HStem: 0 113<41 443 137 443 443 453> 317 114<204 442 442 452 180 442> 624 113<245 551 245 245>
VStem: 11 616
LayerCount: 2
Fore
SplineSet
510 990 m 2
 537 1018 578 1020 597 996 c 2
 617 971 l 2
 624 962 621 948 610 939 c 2
 420 783 l 2
 409 774 395 774 388 783 c 2
 381 791 l 2
 366 811 370 843 391 865 c 2
 510 990 l 2
620 680 m 2
 613 649 583 624 551 624 c 2
 245 624 l 1
 204 431 l 1
 442 431 l 2
 474 431 494 405 487 374 c 2
 480 340 l 2
 477 328 465 317 452 317 c 2
 180 317 l 1
 137 113 l 1
 443 113 l 2
 475 113 494 88 488 57 c 2
 480 23 l 2
 478 10 466 0 453 0 c 2
 57 0 l 2
 25 0 5 25 12 57 c 2
 144 680 l 2
 151 712 181 737 213 737 c 2
 609 737 l 2
 622 737 630 727 627 714 c 2
 620 680 l 2
EndSplineSet
EndChar

StartChar: Oacute
Encoding: 211 211 92
Width: 626
Flags: MW
HStem: 0 1012
VStem: 32 588
LayerCount: 2
Fore
SplineSet
510 990 m 2
 537 1018 578 1020 597 996 c 2
 617 971 l 2
 624 962 621 948 610 939 c 2
 420 783 l 2
 409 774 395 774 388 783 c 2
 381 791 l 2
 366 811 370 843 391 865 c 2
 510 990 l 2
306 0 m 2
 400 0 492 76 512 170 c 2
 596 567 l 2
 616 661 556 737 462 737 c 2
 326 737 l 2
 232 737 140 661 120 567 c 2
 36 170 l 2
 16 76 76 0 170 0 c 2
 306 0 l 2
302 624 m 2
 438 624 l 2
 469 624 490 598 483 567 c 2
 399 170 l 2
 392 139 361 113 330 113 c 2
 194 113 l 2
 163 113 142 139 149 170 c 2
 233 567 l 2
 240 598 271 624 302 624 c 2
EndSplineSet
EndChar

StartChar: Uacute
Encoding: 218 218 93
Width: 626
Flags: MW
HStem: 0 1012
VStem: 32 595
LayerCount: 2
Fore
SplineSet
510 990 m 2
 537 1018 578 1020 597 996 c 2
 617 971 l 2
 624 962 621 948 610 939 c 2
 420 783 l 2
 409 774 395 774 388 783 c 2
 381 791 l 2
 366 811 370 843 391 865 c 2
 510 990 l 2
306 0 m 2
 400 0 492 76 512 170 c 2
 627 714 l 2
 630 727 622 737 609 737 c 2
 575 737 l 2
 544 737 514 712 507 680 c 2
 399 170 l 2
 392 139 361 113 330 113 c 2
 194 113 l 2
 163 113 142 139 149 170 c 2
 257 680 l 2
 264 712 244 737 213 737 c 2
 179 737 l 2
 166 737 154 727 151 714 c 2
 36 170 l 2
 16 76 76 0 170 0 c 2
 306 0 l 2
EndSplineSet
EndChar

StartChar: Agrave
Encoding: 192 192 94
Width: 626
Flags: MW
HStem: 0 21G<16.5 23 23 57 403.5 419 419 453> 261 113<192 418 168 442> 624 113<286.5 462 326 438>
VStem: 4 596
LayerCount: 2
Fore
SplineSet
421 990 m 2
 486 865 l 2
 499 843 489 811 466 791 c 2
 455 783 l 2
 444 774 430 774 423 783 c 2
 299 939 l 2
 292 948 295 962 306 971 c 2
 336 996 l 2
 365 1020 406 1018 421 990 c 2
462 737 m 2
 556 737 616 661 596 567 c 2
 480 23 l 2
 478 10 466 0 453 0 c 2
 419 0 l 2
 388 0 368 25 375 57 c 2
 418 261 l 1
 168 261 l 1
 125 57 l 2
 118 25 88 0 57 0 c 2
 23 0 l 2
 10 0 2 10 4 23 c 2
 120 567 l 2
 140 661 232 737 326 737 c 2
 462 737 l 2
192 374 m 1
 442 374 l 1
 483 567 l 2
 490 598 469 624 438 624 c 2
 302 624 l 2
 271 624 240 598 233 567 c 2
 192 374 l 1
EndSplineSet
EndChar

StartChar: Egrave
Encoding: 200 200 95
Width: 626
Flags: MW
HStem: 0 113<41 443 137 443 443 453> 317 114<204 442 442 452 180 442> 624 113<245 551 245 245>
VStem: 11 616
LayerCount: 2
Fore
SplineSet
421 990 m 2
 486 865 l 2
 499 843 489 811 466 791 c 2
 455 783 l 2
 444 774 430 774 423 783 c 2
 299 939 l 2
 292 948 295 962 306 971 c 2
 336 996 l 2
 365 1020 406 1018 421 990 c 2
620 680 m 2
 613 649 583 624 551 624 c 2
 245 624 l 1
 204 431 l 1
 442 431 l 2
 474 431 494 405 487 374 c 2
 480 340 l 2
 477 328 465 317 452 317 c 2
 180 317 l 1
 137 113 l 1
 443 113 l 2
 475 113 494 88 488 57 c 2
 480 23 l 2
 478 10 466 0 453 0 c 2
 57 0 l 2
 25 0 5 25 12 57 c 2
 144 680 l 2
 151 712 181 737 213 737 c 2
 609 737 l 2
 622 737 630 727 627 714 c 2
 620 680 l 2
EndSplineSet
EndChar

StartChar: Ograve
Encoding: 210 210 96
Width: 626
Flags: MW
HStem: 737 275
VStem: 32 568
LayerCount: 2
Fore
SplineSet
421 990 m 2
 486 865 l 2
 499 843 489 811 466 791 c 2
 455 783 l 2
 444 774 430 774 423 783 c 2
 299 939 l 2
 292 948 295 962 306 971 c 2
 336 996 l 2
 365 1020 406 1018 421 990 c 2
306 0 m 2
 400 0 492 76 512 170 c 2
 596 567 l 2
 616 661 556 737 462 737 c 2
 326 737 l 2
 232 737 140 661 120 567 c 2
 36 170 l 2
 16 76 76 0 170 0 c 2
 306 0 l 2
302 624 m 2
 438 624 l 2
 469 624 490 598 483 567 c 2
 399 170 l 2
 392 139 361 113 330 113 c 2
 194 113 l 2
 163 113 142 139 149 170 c 2
 233 567 l 2
 240 598 271 624 302 624 c 2
EndSplineSet
EndChar

StartChar: Ugrave
Encoding: 217 217 97
Width: 626
Flags: MW
HStem: 0 1012
VStem: 32 595
LayerCount: 2
Fore
SplineSet
421 990 m 2
 486 865 l 2
 499 843 489 811 466 791 c 2
 455 783 l 2
 444 774 430 774 423 783 c 2
 299 939 l 2
 292 948 295 962 306 971 c 2
 336 996 l 2
 365 1020 406 1018 421 990 c 2
306 0 m 2
 400 0 492 76 512 170 c 2
 627 714 l 2
 630 727 622 737 609 737 c 2
 575 737 l 2
 544 737 514 712 507 680 c 2
 399 170 l 2
 392 139 361 113 330 113 c 2
 194 113 l 2
 163 113 142 139 149 170 c 2
 257 680 l 2
 264 712 244 737 213 737 c 2
 179 737 l 2
 166 737 154 727 151 714 c 2
 36 170 l 2
 16 76 76 0 170 0 c 2
 306 0 l 2
EndSplineSet
EndChar

StartChar: Adieresis
Encoding: 196 196 98
Width: 626
Flags: MW
HStem: 0 21G<16.5 23 23 57 403.5 419 419 453> 261 113<192 418 168 442> 624 113<286.5 462 326 438> 771 136<320 329 501.5 510>
VStem: 4 596
LayerCount: 2
Fore
SplineSet
339 907 m 0
 377 907 401 877 393 839 c 0
 385 801 348 771 310 771 c 0
 272 771 249 801 257 839 c 0
 265 877 301 907 339 907 c 0
520 907 m 0
 558 907 582 877 574 839 c 0
 566 801 529 771 491 771 c 0
 454 771 430 801 438 839 c 0
 446 877 483 907 520 907 c 0
462 737 m 2
 556 737 616 661 596 567 c 2
 480 23 l 2
 478 10 466 0 453 0 c 2
 419 0 l 2
 388 0 368 25 375 57 c 2
 418 261 l 1
 168 261 l 1
 125 57 l 2
 118 25 88 0 57 0 c 2
 23 0 l 2
 10 0 2 10 4 23 c 2
 120 567 l 2
 140 661 232 737 326 737 c 2
 462 737 l 2
192 374 m 1
 442 374 l 1
 483 567 l 2
 490 598 469 624 438 624 c 2
 302 624 l 2
 271 624 240 598 233 567 c 2
 192 374 l 1
EndSplineSet
EndChar

StartChar: Edieresis
Encoding: 203 203 99
Width: 626
Flags: MW
HStem: 0 113<41 443 137 443 443 453> 317 114<204 442 442 452 180 442> 624 113<245 551 245 245> 771 136<320 329 501.5 510>
VStem: 11 616
LayerCount: 2
Fore
SplineSet
339 907 m 0
 377 907 401 877 393 839 c 0
 385 801 348 771 310 771 c 0
 272 771 249 801 257 839 c 0
 265 877 301 907 339 907 c 0
520 907 m 0
 558 907 582 877 574 839 c 0
 566 801 529 771 491 771 c 0
 454 771 430 801 438 839 c 0
 446 877 483 907 520 907 c 0
620 680 m 2
 613 649 583 624 551 624 c 2
 245 624 l 1
 204 431 l 1
 442 431 l 2
 474 431 494 405 487 374 c 2
 480 340 l 2
 477 328 465 317 452 317 c 2
 180 317 l 1
 137 113 l 1
 443 113 l 2
 475 113 494 88 488 57 c 2
 480 23 l 2
 478 10 466 0 453 0 c 2
 57 0 l 2
 25 0 5 25 12 57 c 2
 144 680 l 2
 151 712 181 737 213 737 c 2
 609 737 l 2
 622 737 630 727 627 714 c 2
 620 680 l 2
EndSplineSet
EndChar

StartChar: Odieresis
Encoding: 214 214 100
Width: 626
Flags: MW
HStem: 737 170<320 326 326 358 320 462>
VStem: 32 568
LayerCount: 2
Fore
SplineSet
339 907 m 0
 377 907 401 877 393 839 c 0
 385 801 348 771 310 771 c 0
 272 771 249 801 257 839 c 0
 265 877 301 907 339 907 c 0
520 907 m 0
 558 907 582 877 574 839 c 0
 566 801 529 771 491 771 c 0
 454 771 430 801 438 839 c 0
 446 877 483 907 520 907 c 0
306 0 m 2
 400 0 492 76 512 170 c 2
 596 567 l 2
 616 661 556 737 462 737 c 2
 326 737 l 2
 232 737 140 661 120 567 c 2
 36 170 l 2
 16 76 76 0 170 0 c 2
 306 0 l 2
302 624 m 2
 438 624 l 2
 469 624 490 598 483 567 c 2
 399 170 l 2
 392 139 361 113 330 113 c 2
 194 113 l 2
 163 113 142 139 149 170 c 2
 233 567 l 2
 240 598 271 624 302 624 c 2
EndSplineSet
EndChar

StartChar: Ydieresis
Encoding: 376 376 101
Width: 633
Flags: MW
HStem: 0 21G<200.5 207 207 276> 717 20G<128 189 189 198.5 605 666 666 674.5> 771 136<329 338 510.5 519>
VStem: 101 583
LayerCount: 2
Fore
SplineSet
348 907 m 0
 386 907 410 877 402 839 c 0
 394 801 357 771 319 771 c 0
 281 771 258 801 266 839 c 0
 274 877 310 907 348 907 c 0
529 907 m 0
 567 907 591 877 583 839 c 0
 575 801 538 771 500 771 c 0
 463 771 439 801 447 839 c 0
 455 877 492 907 529 907 c 0
666 737 m 2
 683 737 689 719 679 705 c 2
 354 265 l 1
 302 22 l 2
 300 10 288 0 276 0 c 2
 207 0 l 2
 194 0 187 10 189 22 c 2
 241 265 l 1
 102 705 l 2
 97 719 111 737 128 737 c 2
 189 737 l 2
 208 737 223 727 227 710 c 2
 326 400 l 1
 555 710 l 2
 567 727 586 737 605 737 c 2
 666 737 l 2
EndSplineSet
EndChar

StartChar: Udieresis
Encoding: 220 220 102
Width: 626
Flags: MW
HStem: 771 136<320 329 501.5 510>
VStem: 32 595
LayerCount: 2
Fore
SplineSet
339 907 m 0
 377 907 401 877 393 839 c 0
 385 801 348 771 310 771 c 0
 272 771 249 801 257 839 c 0
 265 877 301 907 339 907 c 0
520 907 m 0
 558 907 582 877 574 839 c 0
 566 801 529 771 491 771 c 0
 454 771 430 801 438 839 c 0
 446 877 483 907 520 907 c 0
306 0 m 2
 400 0 492 76 512 170 c 2
 627 714 l 2
 630 727 622 737 609 737 c 2
 575 737 l 2
 544 737 514 712 507 680 c 2
 399 170 l 2
 392 139 361 113 330 113 c 2
 194 113 l 2
 163 113 142 139 149 170 c 2
 257 680 l 2
 264 712 244 737 213 737 c 2
 179 737 l 2
 166 737 154 727 151 714 c 2
 36 170 l 2
 16 76 76 0 170 0 c 2
 306 0 l 2
EndSplineSet
EndChar

StartChar: Otilde
Encoding: 213 213 103
Width: 626
Flags: MW
HStem: 0 113<123 330 194 306> 624 113<286.5 462 326 438> 777 80 804 79
VStem: 32 568
LayerCount: 2
Fore
SplineSet
518 887 m 2xe8
 557 887 l 2
 572 887 580 872 572 857 c 0
 558 832 538 810 510 795 c 0
 473 774 431 771 399 788 c 2xe8
 377 800 l 2
 362 808 348 802 342 799 c 0
 339 797 333 792 327 785 c 0
 322 778 314 774 305 774 c 2
 269 774 l 2
 253 774 246 788 253 803 c 0
 267 829 288 851 315 866 c 0
 352 887 393 889 426 872 c 2xd8
 449 860 l 2
 463 853 477 859 483 862 c 0
 486 864 493 869 499 876 c 0
 503 883 510 887 518 887 c 2xe8
306 0 m 2
 170 0 l 2
 76 0 16 76 36 170 c 2
 120 567 l 2
 140 661 232 737 326 737 c 2
 462 737 l 2
 556 737 616 661 596 567 c 2
 512 170 l 2
 492 76 400 0 306 0 c 2
302 624 m 2
 271 624 240 598 233 567 c 2
 149 170 l 2
 142 139 163 113 194 113 c 2
 330 113 l 2
 361 113 392 139 399 170 c 2
 483 567 l 2
 490 598 469 624 438 624 c 2
 302 624 l 2
EndSplineSet
EndChar

StartChar: Ntilde
Encoding: 209 209 104
Width: 626
Flags: MW
HStem: 0 21G<16.5 23 23 57 389.5 400 400 453> 717 20G<179 232 232 243 575 609 609 615.5> 777 80 804 79
VStem: 4 623
LayerCount: 2
Fore
SplineSet
518 887 m 2xe8
 557 887 l 2
 572 887 580 872 572 857 c 0
 558 832 538 810 510 795 c 0
 473 774 431 771 399 788 c 2xe8
 377 800 l 2
 362 808 348 802 342 799 c 0
 339 797 333 792 327 785 c 0
 322 778 314 774 305 774 c 2
 269 774 l 2
 253 774 246 788 253 803 c 0
 267 829 288 851 315 866 c 0
 352 887 393 889 426 872 c 2xd8
 449 860 l 2
 463 853 477 859 483 862 c 0
 486 864 493 869 499 876 c 0
 503 883 510 887 518 887 c 2xe8
609 737 m 2
 622 737 630 727 627 714 c 2
 480 23 l 2
 478 10 466 0 453 0 c 2
 400 0 l 2
 379 0 361 12 355 31 c 2
 216 486 l 1
 125 57 l 2
 118 25 88 0 57 0 c 2
 23 0 l 2
 10 0 2 10 4 23 c 2
 151 714 l 2
 154 727 166 737 179 737 c 2
 232 737 l 2
 254 737 271 725 277 706 c 2
 416 251 l 1
 507 680 l 2
 514 712 544 737 575 737 c 2
 609 737 l 2
EndSplineSet
EndChar

StartChar: Atilde
Encoding: 195 195 105
Width: 626
Flags: MW
HStem: 0 21G<16.5 23 23 57 403.5 419 419 453> 261 113<192 418 168 442> 624 113<286.5 462 326 438> 777 80 804 79
VStem: 4 596
LayerCount: 2
Fore
SplineSet
518 887 m 2xf4
 557 887 l 2
 572 887 580 872 572 857 c 0
 558 832 538 810 510 795 c 0
 473 774 431 771 399 788 c 2xf4
 377 800 l 2
 362 808 348 802 342 799 c 0
 339 797 333 792 327 785 c 0
 322 778 314 774 305 774 c 2
 269 774 l 2
 253 774 246 788 253 803 c 0
 267 829 288 851 315 866 c 0
 352 887 393 889 426 872 c 2xec
 449 860 l 2
 463 853 477 859 483 862 c 0
 486 864 493 869 499 876 c 0
 503 883 510 887 518 887 c 2xf4
462 737 m 2
 556 737 616 661 596 567 c 2
 480 23 l 2
 478 10 466 0 453 0 c 2
 419 0 l 2
 388 0 368 25 375 57 c 2
 418 261 l 1
 168 261 l 1
 125 57 l 2
 118 25 88 0 57 0 c 2
 23 0 l 2
 10 0 2 10 4 23 c 2
 120 567 l 2
 140 661 232 737 326 737 c 2
 462 737 l 2
192 374 m 1
 442 374 l 1
 483 567 l 2
 490 598 469 624 438 624 c 2
 302 624 l 2
 271 624 240 598 233 567 c 2
 192 374 l 1
EndSplineSet
EndChar

StartChar: Yacute
Encoding: 221 221 106
Width: 633
Flags: MW
HStem: 0 21G<200.5 207 207 276> 717 20G<128 189 189 198.5 605 666 666 674.5>
VStem: 101 583
LayerCount: 2
Fore
SplineSet
504 990 m 2
 531 1018 572 1020 591 996 c 2
 611 971 l 2
 618 962 615 948 604 939 c 2
 414 783 l 2
 403 774 389 774 382 783 c 2
 375 791 l 2
 360 811 364 843 385 865 c 2
 504 990 l 2
666 737 m 2
 683 737 689 719 679 705 c 2
 354 265 l 1
 302 22 l 2
 300 10 288 0 276 0 c 2
 207 0 l 2
 194 0 187 10 189 22 c 2
 241 265 l 1
 102 705 l 2
 97 719 111 737 128 737 c 2
 189 737 l 2
 208 737 223 727 227 710 c 2
 326 400 l 1
 555 710 l 2
 567 727 586 737 605 737 c 2
 666 737 l 2
EndSplineSet
EndChar

StartChar: yacute
Encoding: 253 253 107
Width: 601
Flags: MW
HStem: -170 21G<86 94 94 143> 547 20G<114 162 162 174 529 578 578 586>
VStem: 76 520
LayerCount: 2
Fore
SplineSet
454 810 m 2
 481 838 522 840 541 816 c 2
 561 791 l 2
 568 782 565 768 554 759 c 2
 364 603 l 2
 353 594 339 594 332 603 c 2
 324 611 l 1
 310 631 313 663 335 685 c 2
 454 810 l 2
94 -170 m 2
 78 -170 71 -154 80 -140 c 2
 167 11 l 1
 85 536 l 2
 84 551 98 567 114 567 c 2
 162 567 l 2
 186 567 204 552 208 530 c 2
 263 175 l 1
 468 530 l 2
 481 552 505 567 529 567 c 2
 578 567 l 2
 594 567 601 551 592 536 c 2
 204 -133 l 2
 192 -155 167 -170 143 -170 c 2
 94 -170 l 2
EndSplineSet
EndChar

StartChar: ydieresis
Encoding: 255 255 108
Width: 601
Flags: MW
HStem: -170 21G<86 94 94 143> 547 20G<114 162 162 174 529 578 578 586> 601 136<273 282 454.5 463>
VStem: 76 520
LayerCount: 2
Fore
SplineSet
292 737 m 0
 330 737 354 707 346 669 c 0
 338 631 301 601 263 601 c 0
 225 601 202 631 210 669 c 0
 218 707 254 737 292 737 c 0
473 737 m 0
 511 737 535 707 527 669 c 0
 519 631 482 601 444 601 c 0
 407 601 383 631 391 669 c 0
 399 707 436 737 473 737 c 0
94 -170 m 2
 78 -170 71 -154 80 -140 c 2
 167 11 l 1
 85 536 l 2
 84 551 98 567 114 567 c 2
 162 567 l 2
 186 567 204 552 208 530 c 2
 263 175 l 1
 468 530 l 2
 481 552 505 567 529 567 c 2
 578 567 l 2
 594 567 601 551 592 536 c 2
 204 -133 l 2
 192 -155 167 -170 143 -170 c 2
 94 -170 l 2
EndSplineSet
EndChar

StartChar: bullet
Encoding: 8226 8226 109
Width: 422
Flags: MW
HStem: 30 272<162 180>
VStem: 32 278
LayerCount: 2
Fore
SplineSet
307 166 m 0
 291 90 218 30 142 30 c 0
 66 30 19 90 35 166 c 0
 51 242 124 302 200 302 c 0
 276 302 323 242 307 166 c 0
EndSplineSet
EndChar

StartChar: semicolon
Encoding: 59 59 110
Width: 288
Flags: MW
HStem: 1 21G 232 136<127 136>
VStem: 13 137 13 188
LayerCount: 2
Fore
SplineSet
150 68 m 0xe0
 145 16 116 -31 63 -83 c 0
 59 -87 53 -88 49 -86 c 1
 49 -86 l 1
 38 -81 37 -67 45 -56 c 0
 56 -41 69 -20 76 1 c 1
 76 0 76 0 76 0 c 1
 41 -4 13 19 13 52 c 0
 12 97 53 136 96 136 c 0
 134 136 154 105 150 68 c 0xe0
199 300 m 0
 191 262 155 232 117 232 c 0
 79 232 55 262 63 300 c 0
 71 338 108 368 146 368 c 0
 184 368 207 338 199 300 c 0
EndSplineSet
EndChar

StartChar: colon
Encoding: 58 58 111
Width: 286
Flags: MW
HStem: 0 21G<49 87> 0 136<77 87> 232 136<127 136>
VStem: 12 189
LayerCount: 2
Fore
SplineSet
199 300 m 0xb0
 191 262 155 232 117 232 c 0
 79 232 55 262 63 300 c 0
 71 338 108 368 146 368 c 0
 184 368 207 338 199 300 c 0xb0
150 68 m 0x70
 142 30 106 0 68 0 c 0
 30 0 6 30 14 68 c 0
 22 106 58 136 96 136 c 0
 134 136 158 106 150 68 c 0x70
EndSplineSet
EndChar

StartChar: b
Encoding: 98 98 112
Width: 603
Flags: MW
HStem: 0 113<137 283> 453 114<233 379 209 403> 717 20G<179 213 213 228.5>
VStem: 4 537 424 117
LayerCount: 2
Fore
SplineSet
283 0 m 2xf0
 23 0 l 2
 10 0 2 10 4 23 c 2
 151 714 l 2
 154 727 166 737 179 737 c 2
 213 737 l 2
 244 737 264 712 257 680 c 2
 233 567 l 1
 403 567 l 2xe8
 497 567 557 491 537 397 c 2
 489 170 l 2
 469 76 377 0 283 0 c 2xf0
137 113 m 1
 307 113 l 2
 339 113 369 139 376 170 c 2
 424 397 l 2
 430 428 411 453 379 453 c 2
 209 453 l 1
 137 113 l 1
EndSplineSet
EndChar

StartChar: c
Encoding: 99 99 113
Width: 578
Flags: MW
HStem: 0 113<123 307 194 283> 453 114<250.5 403 290 379>
VStem: 32 509
LayerCount: 2
Fore
SplineSet
283 0 m 2
 170 0 l 2
 76 0 16 76 36 170 c 2
 84 397 l 2
 104 491 196 567 290 567 c 2
 403 567 l 2
 488 567 546 504 541 423 c 0
 540 409 527 397 513 397 c 2
 443 397 l 2
 434 397 426 403 425 413 c 0
 423 436 405 453 379 453 c 2
 266 453 l 2
 235 453 203 428 197 397 c 2
 149 170 l 2
 142 139 163 113 194 113 c 2
 307 113 l 2
 333 113 358 131 370 154 c 0
 375 164 386 170 395 170 c 2
 465 170 l 2
 479 170 487 158 482 144 c 0
 452 63 368 0 283 0 c 2
EndSplineSet
EndChar

StartChar: a
Encoding: 97 97 114
Width: 583
Flags: MW
HStem: 0 113<103 344 174 344 174 377> 249 114<186.5 397 227 372> 453 114<202 212 212 359>
VStem: 12 119 400 120
LayerCount: 2
Fore
SplineSet
377 0 m 2
 150 0 l 2
 56 0 -3 76 16 170 c 2
 21 193 l 2
 41 287 133 363 227 363 c 2
 397 363 l 1
 404 397 l 2
 410 428 391 453 359 453 c 2
 212 453 l 2
 181 453 160 479 167 510 c 2
 174 544 l 2
 177 557 189 567 202 567 c 2
 383 567 l 2
 477 567 537 491 517 397 c 2
 445 57 l 2
 438 25 408 0 377 0 c 2
202 249 m 2
 171 249 140 224 134 193 c 2
 129 170 l 2
 122 139 143 113 174 113 c 2
 344 113 l 1
 372 249 l 1
 202 249 l 2
EndSplineSet
EndChar

StartChar: underscore
Encoding: 95 95 115
Width: 804
Flags: MW
HStem: 0 113<18 653 49 629>
VStem: 5 667<25 88>
LayerCount: 2
Fore
SplineSet
672 88 m 2
 659 25 l 2
 656 11 642 0 629 0 c 2
 25 0 l 2
 11 0 2 11 5 25 c 2
 18 88 l 2
 21 102 35 113 49 113 c 2
 653 113 l 2
 666 113 675 102 672 88 c 2
EndSplineSet
EndChar

StartChar: acute
Encoding: 180 180 116
Width: 322
Flags: MW
HStem: 596 236
VStem: 138 248
LayerCount: 2
Fore
SplineSet
276 810 m 2
 303 838 344 840 363 816 c 2
 383 791 l 2
 390 782 387 768 376 759 c 2
 186 603 l 2
 175 594 161 594 154 603 c 2
 146 611 l 1
 132 631 135 663 157 685 c 2
 276 810 l 2
EndSplineSet
EndChar

StartChar: grave
Encoding: 96 96 117
Width: 322
Flags: MW
HStem: 596 236
VStem: 165 195
LayerCount: 2
Fore
SplineSet
290 810 m 2
 355 685 l 2
 367 663 358 631 334 611 c 2
 324 603 l 2
 313 594 299 594 292 603 c 2
 168 759 l 2
 161 768 164 782 175 791 c 2
 205 816 l 2
 234 840 275 838 290 810 c 2
EndSplineSet
EndChar

StartChar: iacute
Encoding: 237 237 118
Width: 272
Flags: MW
HStem: 0 21G<19.5 26 26 94> 547 20G<146 214 214 220>
VStem: 7 379
LayerCount: 2
Fore
SplineSet
214 567 m 2
 226 567 234 557 231 544 c 2
 120 23 l 2
 118 10 106 0 94 0 c 2
 26 0 l 2
 13 0 5 10 7 23 c 2
 118 544 l 2
 121 557 133 567 146 567 c 2
 214 567 l 2
276 810 m 2
 303 838 344 840 363 816 c 2
 383 791 l 2
 390 782 387 768 376 759 c 2
 186 603 l 2
 175 594 161 594 154 603 c 2
 146 611 l 1
 132 631 135 663 157 685 c 2
 276 810 l 2
EndSplineSet
EndChar

StartChar: igrave
Encoding: 236 236 119
Width: 262
Flags: MW
HStem: 0 21G<15.5 22 22 90> 547 20G<142 210 210 216>
VStem: 3 262
LayerCount: 2
Fore
SplineSet
210 567 m 2
 222 567 230 557 227 544 c 2
 116 23 l 2
 114 10 102 0 90 0 c 2
 22 0 l 2
 9 0 1 10 3 23 c 2
 114 544 l 2
 117 557 129 567 142 567 c 2
 210 567 l 2
195 810 m 2
 260 685 l 2
 272 663 263 631 239 611 c 2
 229 603 l 2
 218 594 204 594 197 603 c 2
 73 759 l 2
 66 768 69 782 80 791 c 2
 110 816 l 2
 139 840 180 838 195 810 c 2
EndSplineSet
EndChar

StartChar: Iacute
Encoding: 205 205 120
Width: 272
Flags: MW
HStem: 0 1012
VStem: 4 420
LayerCount: 2
Fore
SplineSet
314 990 m 2
 341 1018 382 1020 401 996 c 2
 421 971 l 2
 428 962 425 948 414 939 c 2
 224 783 l 2
 213 774 199 774 192 783 c 2
 185 791 l 2
 170 811 174 843 195 865 c 2
 314 990 l 2
91 0 m 2
 103 0 115 10 117 23 c 2
 257 680 l 2
 264 712 244 737 213 737 c 2
 179 737 l 2
 166 737 154 727 151 714 c 2
 4 23 l 2
 2 10 10 0 23 0 c 2
 91 0 l 2
EndSplineSet
EndChar

StartChar: Igrave
Encoding: 204 204 121
Width: 263
Flags: MW
HStem: 0 1012
VStem: 4 306
LayerCount: 2
Fore
SplineSet
239 990 m 2
 304 865 l 2
 317 843 307 811 284 791 c 2
 273 783 l 2
 262 774 248 774 241 783 c 2
 117 939 l 2
 110 948 113 962 124 971 c 2
 154 996 l 2
 183 1020 224 1018 239 990 c 2
91 0 m 2
 103 0 115 10 117 23 c 2
 257 680 l 2
 264 712 244 737 213 737 c 2
 179 737 l 2
 166 737 154 727 151 714 c 2
 4 23 l 2
 2 10 10 0 23 0 c 2
 91 0 l 2
EndSplineSet
EndChar

StartChar: endash
Encoding: 8211 8211 122
Width: 567
Flags: MW
HStem: 187 113<57 455 88 431>
VStem: 45 430<212 275>
LayerCount: 2
Fore
SplineSet
475 275 m 2
 462 212 l 2
 459 198 444 187 431 187 c 2
 64 187 l 2
 50 187 42 198 45 212 c 2
 58 275 l 2
 61 289 74 300 88 300 c 2
 455 300 l 2
 468 300 478 289 475 275 c 2
EndSplineSet
EndChar

StartChar: emdash
Encoding: 8212 8212 123
Width: 737
Flags: MW
HStem: 187 113<57 625 88 601>
VStem: 45 600<212 275>
LayerCount: 2
Fore
SplineSet
645 275 m 2
 632 212 l 2
 629 198 614 187 601 187 c 2
 64 187 l 2
 50 187 42 198 45 212 c 2
 58 275 l 2
 61 289 74 300 88 300 c 2
 625 300 l 2
 638 300 648 289 645 275 c 2
EndSplineSet
EndChar

StartChar: tilde
Encoding: 732 732 124
Width: 460
Flags: MW
HStem: 627 80 627 110 654 79
VStem: 136 325
LayerCount: 2
Fore
SplineSet
404 737 m 2x50
 443 737 l 2
 458 737 466 722 458 707 c 0
 444 682 424 660 397 645 c 0
 359 624 317 621 285 638 c 2x50
 263 650 l 2
 248 658 234 652 228 649 c 0
 225 647 219 642 213 635 c 0
 208 628 200 624 191 624 c 2
 155 624 l 2
 139 624 132 638 139 653 c 0
 153 679 175 701 201 716 c 0
 238 737 280 739 312 722 c 2x30
 335 710 l 2
 349 703 363 709 369 712 c 0x90
 372 714 379 719 385 726 c 0
 389 733 396 737 404 737 c 2x50
EndSplineSet
EndChar

StartChar: idieresis
Encoding: 239 239 125
Width: 277
Flags: MW
HStem: 0 21G<22.5 29 29 97> 547 20G<149 217 217 223> 601 136<110 119 291.5 300>
VStem: 10 356
LayerCount: 2
Fore
SplineSet
129 737 m 0
 167 737 191 707 183 669 c 0
 175 631 138 601 100 601 c 0
 62 601 39 631 47 669 c 0
 55 707 91 737 129 737 c 0
310 737 m 0
 348 737 372 707 364 669 c 0
 356 631 319 601 281 601 c 0
 244 601 220 631 228 669 c 0
 236 707 273 737 310 737 c 0
217 567 m 2
 229 567 237 557 234 544 c 2
 123 23 l 2
 121 10 109 0 97 0 c 2
 29 0 l 2
 16 0 8 10 10 23 c 2
 121 544 l 2
 124 557 136 567 149 567 c 2
 217 567 l 2
EndSplineSet
EndChar

StartChar: dieresis
Encoding: 168 168 126
Width: 467
Flags: MW
HStem: 601 136<205 214 386.5 395>
VStem: 140 321
LayerCount: 2
Fore
SplineSet
224 737 m 0
 262 737 286 707 278 669 c 0
 270 631 233 601 195 601 c 0
 157 601 134 631 142 669 c 0
 150 707 186 737 224 737 c 0
405 737 m 0
 443 737 467 707 459 669 c 0
 451 631 414 601 376 601 c 0
 339 601 315 631 323 669 c 0
 331 707 368 737 405 737 c 0
EndSplineSet
EndChar

StartChar: aring
Encoding: 229 229 127
Width: 583
Flags: MW
HStem: 0 113<103 344 174 344 174 377> 249 114<186.5 397 227 372> 453 114<202 212 212 359> 603 90<366 381.5 366 387.5> 749 90<378 393.5>
VStem: 12 119 259 93 400 120 408 93
LayerCount: 2
Fore
SplineSet
355 603 m 0xfe80
 290 603 248 656 262 721 c 0
 276 786 340 839 405 839 c 0
 470 839 512 786 498 721 c 0
 484 656 420 603 355 603 c 0xfe80
386 749 m 0
 370 749 355 736 352 721 c 0
 348 705 358 693 374 693 c 0
 389 693 404 705 408 721 c 0
 411 736 401 749 386 749 c 0
377 0 m 2
 150 0 l 2
 56 0 -3 76 16 170 c 2
 21 193 l 2
 41 287 133 363 227 363 c 2
 397 363 l 1
 404 397 l 2
 410 428 391 453 359 453 c 2
 212 453 l 2
 181 453 160 479 167 510 c 2
 174 544 l 2
 177 557 189 567 202 567 c 2
 383 567 l 2xff
 477 567 537 491 517 397 c 2
 445 57 l 2
 438 25 408 0 377 0 c 2
202 249 m 2
 171 249 140 224 134 193 c 2
 129 170 l 2
 122 139 143 113 174 113 c 2
 344 113 l 1
 372 249 l 1
 202 249 l 2
EndSplineSet
EndChar

StartChar: ecircumflex
Encoding: 234 234 128
Width: 603
Flags: MW
HStem: 0 113<123 307 194 283> 227 113<185 412 185 445 161 412> 453 114<250.5 403 290 379> 603 182<214 401 220 401 384.5 438 384.5 489>
VStem: 32 509 424 117
LayerCount: 2
Fore
SplineSet
438 603 m 2xf8
 428 603 419 607 413 614 c 2
 369 670 l 1
 301 614 l 2
 293 607 282 603 271 603 c 2
 220 603 l 2
 208 603 197 610 196 622 c 0
 193 633 199 646 209 655 c 2
 345 767 l 2
 359 779 376 785 393 785 c 0
 409 785 424 779 434 767 c 2
 522 655 l 2
 529 646 528 633 522 622 c 0
 514 610 502 603 489 603 c 2
 438 603 l 2xf8
283 0 m 2
 170 0 l 2
 76 0 16 76 36 170 c 2
 84 397 l 2
 104 491 196 567 290 567 c 2
 403 567 l 2xf4
 497 567 557 491 537 397 c 2
 513 283 l 2
 506 252 476 227 445 227 c 2
 161 227 l 1
 149 170 l 2
 142 139 163 113 194 113 c 2
 307 113 l 2
 333 113 358 131 370 154 c 0
 375 164 386 170 395 170 c 2
 465 170 l 2
 479 170 487 158 482 144 c 0
 452 63 368 0 283 0 c 2
185 340 m 1
 412 340 l 1
 424 397 l 2
 430 428 411 453 379 453 c 2
 266 453 l 2
 235 453 203 428 197 397 c 2
 185 340 l 1
EndSplineSet
EndChar

StartChar: ccedilla
Encoding: 231 231 129
Width: 593
Flags: MW
HStem: -233 100<89.5 207 121 185> 0 113<250 283 250 250> 453 114<250.5 403 290 379>
VStem: 32 509 212 100<4.29497e+09 4.29497e+09>
LayerCount: 2
Fore
SplineSet
465 170 m 2xf0
 479 170 487 158 482 144 c 0
 452 63 368 0 283 0 c 2
 250 0 l 1
 244 -27 l 1
 266 -30 285 -40 297 -57 c 0
 313 -77 318 -103 312 -131 c 0
 299 -187 242 -233 185 -233 c 2
 100 -233 l 2
 79 -233 66 -216 70 -196 c 2
 75 -171 l 2
 80 -150 100 -133 121 -133 c 2
 207 -133 l 2
 209 -133 211 -132 212 -130 c 0
 212 -129 212 -128 212 -127 c 1
 211 -127 211 -126 209 -126 c 2
 184 -126 l 2
 150 -126 128 -99 136 -65 c 2
 150 1 l 1xe8
 67 11 17 83 36 170 c 2
 84 397 l 2
 104 491 196 567 290 567 c 2
 403 567 l 2
 488 567 546 504 541 423 c 0
 540 409 527 397 513 397 c 2
 443 397 l 2
 434 397 426 403 425 413 c 0
 423 436 405 453 379 453 c 2
 266 453 l 2
 235 453 203 428 197 397 c 2
 149 170 l 2
 142 139 163 113 194 113 c 2
 307 113 l 2
 333 113 358 131 370 154 c 0
 375 164 386 170 395 170 c 2
 465 170 l 2xf0
EndSplineSet
EndChar

StartChar: plus
Encoding: 43 43 130
Width: 767
Flags: MW
HStem: 227 113<76.5 324 111 300 437 626 111 413>
VStem: 55 626
LayerCount: 2
Fore
SplineSet
650 340 m 2
 671 340 685 322 680 301 c 2
 673 266 l 2
 669 245 647 227 626 227 c 2
 413 227 l 1
 367 14 l 2
 363 -7 341 -25 320 -25 c 2
 285 -25 l 2
 263 -25 250 -7 254 14 c 2
 300 227 l 1
 87 227 l 2
 66 227 52 245 56 266 c 2
 63 301 l 2
 68 322 90 340 111 340 c 2
 324 340 l 1
 369 553 l 2
 374 574 394 592 416 592 c 2
 451 592 l 2
 472 592 487 574 482 553 c 2
 437 340 l 1
 650 340 l 2
EndSplineSet
EndChar

StartChar: minus
Encoding: 8722 8722 131
Width: 608
Flags: MW
HStem: 227 113<76.5 491 111 467>
VStem: 55 467
LayerCount: 2
Fore
SplineSet
87 227 m 2
 66 227 52 245 56 266 c 2
 63 301 l 2
 68 322 90 340 111 340 c 2
 491 340 l 2
 513 340 526 322 521 301 c 2
 514 266 l 2
 510 245 489 227 467 227 c 2
 87 227 l 2
EndSplineSet
EndChar

StartChar: divide
Encoding: 247 247 132
Width: 631
Flags: MW
HStem: 227 113<76.5 514 111 490> 376 150<330.5 340>
VStem: 55 490
LayerCount: 2
Fore
SplineSet
339 116 m 0
 348 157 322 191 280 191 c 0
 239 191 198 157 189 116 c 0
 180 74 207 41 248 41 c 0
 290 41 330 74 339 116 c 0
351 526 m 0
 393 526 419 492 410 451 c 0
 402 410 361 376 319 376 c 0
 278 376 252 410 260 451 c 0
 269 492 310 526 351 526 c 0
490 227 m 2
 87 227 l 2
 66 227 52 245 56 266 c 2
 63 301 l 2
 68 322 90 340 111 340 c 2
 514 340 l 2
 535 340 549 322 544 301 c 2
 537 266 l 2
 533 245 511 227 490 227 c 2
EndSplineSet
EndChar

StartChar: hyphen
Encoding: 45 45 133
Width: 567
Flags: MW
HStem: 187 113<57 455 88 431>
VStem: 45 430<212 275>
LayerCount: 2
Fore
SplineSet
475 275 m 6
 462 212 l 6
 459 198 444 187 431 187 c 6
 64 187 l 6
 50 187 42 198 45 212 c 6
 58 275 l 6
 61 289 74 300 88 300 c 6
 455 300 l 6
 468 300 478 289 475 275 c 6
EndSplineSet
EndChar

StartChar: braceleft
Encoding: 123 123 134
Width: 497
Flags: MW
HStem: -110 113<198 308 263 284> 734 113<407 488 446 464>
VStem: 114 116 156 122
LayerCount: 2
Fore
SplineSet
242 -110 m 2xe0
 154 -110 99 -39 118 48 c 2
 156 229 l 2
 161 251 156 272 144 288 c 0
 133 301 118 309 101 311 c 0
 81 314 70 330 74 350 c 2
 82 387 l 2
 86 406 104 423 125 426 c 0
 167 430 207 466 215 508 c 2
 254 689 l 2
 272 776 358 847 446 847 c 2
 488 847 l 2
 510 847 523 829 518 808 c 2
 511 773 l 2
 506 752 486 734 464 734 c 2
 419 734 l 2
 395 734 372 715 368 692 c 2
 323 482 l 2
 316 447 295 414 266 388 c 0
 257 381 249 374 239 368 c 1
 247 363 252 356 258 349 c 0
 276 323 282 290 275 255 c 2xd0
 230 45 l 2
 225 22 239 3 263 3 c 2
 308 3 l 2
 330 3 343 -15 339 -36 c 2
 331 -71 l 2
 327 -93 306 -110 284 -110 c 2
 242 -110 l 2xe0
EndSplineSet
EndChar

StartChar: parenleft
Encoding: 40 40 135
Width: 429
Flags: MW
HStem: -110 957<164.5 419 172 419>
VStem: 59 117
LayerCount: 2
Fore
SplineSet
172 -110 m 2
 157 -110 144 -104 137 -92 c 0
 125 -76 115 -57 106 -38 c 0
 56 71 45 216 78 368 c 0
 110 521 182 666 279 775 c 0
 296 794 314 813 333 829 c 0
 345 840 361 847 376 847 c 2
 419 847 l 2
 436 847 447 837 450 822 c 0
 453 807 445 790 431 779 c 0
 406 760 382 737 359 712 c 0
 320 668 286 617 257 559 c 0
 228 499 205 435 191 368 c 0
 177 302 172 238 176 178 c 0
 180 120 193 69 213 25 c 0
 225 -1 240 -23 257 -42 c 0
 266 -53 267 -70 257 -85 c 0
 248 -100 232 -110 215 -110 c 2
 172 -110 l 2
EndSplineSet
EndChar

StartChar: bracketleft
Encoding: 91 91 136
Width: 390
Flags: MW
HStem: -110 113<45.5 200 113 176> 734 113<276 356 269 380>
VStem: -4 416
LayerCount: 2
Fore
SplineSet
72 -110 m 2
 19 -110 -14 -67 -2 -14 c 2
 159 751 l 2
 170 804 223 847 276 847 c 2
 380 847 l 2
 402 847 416 829 411 808 c 2
 404 773 l 2
 399 752 378 734 356 734 c 2
 269 734 l 1
 113 3 l 1
 200 3 l 2
 222 3 236 -15 232 -36 c 2
 224 -71 l 2
 220 -93 198 -110 176 -110 c 2
 72 -110 l 2
EndSplineSet
EndChar

StartChar: quotedblleft
Encoding: 8220 8220 137
Width: 528
Flags: MW
HStem: 418 175<126.5 248 141 248 226 344 226 413> 637 100<260.5 316 291 295 494 498>
VStem: 99 420
LayerCount: 2
Fore
SplineSet
344 418 m 2
 315 418 296 442 303 471 c 2
 330 602 l 2
 346 676 419 737 494 737 c 2
 519 737 l 1
 498 637 l 1
 473 637 l 2
 453 637 434 621 430 602 c 2
 429 593 l 1
 451 593 l 2
 480 593 498 569 492 540 c 2
 478 471 l 2
 471 442 442 418 413 418 c 2
 344 418 l 2
210 418 m 2
 141 418 l 2
 112 418 93 442 100 471 c 2
 127 602 l 2
 143 676 217 737 291 737 c 2
 316 737 l 1
 295 637 l 1
 270 637 l 2
 251 637 231 621 227 602 c 2
 226 593 l 1
 248 593 l 2
 278 593 295 569 289 540 c 2
 275 471 l 2
 268 442 240 418 210 418 c 2
EndSplineSet
EndChar

StartChar: asterisk
Encoding: 42 42 138
Width: 518
Flags: MW
HStem: 409 353<190 356 337.5 344 344 344>
VStem: 128 369
LayerCount: 2
Fore
SplineSet
344 409 m 1
 331 409 320 415 314 426 c 2
 286 481 l 1
 233 426 l 2
 223 415 208 409 195 409 c 0
 185 409 178 411 171 417 c 2
 155 431 l 2
 139 445 141 472 158 491 c 2
 211 546 l 1
 150 567 l 2
 129 574 122 599 133 621 c 2
 145 644 l 2
 155 662 175 674 193 674 c 0
 198 674 202 673 206 672 c 2
 267 651 l 1
 281 719 l 2
 286 743 309 762 333 762 c 2
 356 762 l 2
 380 762 396 743 391 719 c 2
 377 651 l 1
 445 672 l 2
 451 673 455 674 460 674 c 0
 478 674 492 662 494 644 c 2
 496 621 l 2
 498 610 495 599 487 589 c 0
 479 578 469 571 457 567 c 2
 389 546 l 1
 417 491 l 2
 427 472 416 445 394 431 c 2
 372 417 l 2
 363 411 354 409 344 409 c 1
 344 409 l 1
EndSplineSet
EndChar

StartChar: parenright
Encoding: 41 41 139
Width: 429
Flags: MW
HStem: -110 957<8 263 16 263>
VStem: 258 117
LayerCount: 2
Fore
SplineSet
59 -110 m 2
 16 -110 l 2
 0 -110 -12 -100 -15 -85 c 0
 -17 -70 -10 -53 4 -42 c 0
 29 -23 52 -1 76 25 c 0
 114 69 149 120 177 178 c 0
 207 238 230 302 244 368 c 0
 258 435 263 499 258 559 c 0
 255 617 241 668 222 712 c 0
 209 737 195 760 178 779 c 0
 168 790 168 807 177 822 c 0
 186 837 203 847 220 847 c 2
 263 847 l 2
 278 847 290 840 298 829 c 0
 309 813 319 794 328 775 c 0
 379 666 389 521 357 368 c 0
 324 216 253 71 155 -38 c 0
 138 -57 120 -76 102 -92 c 0
 89 -104 74 -110 59 -110 c 2
EndSplineSet
EndChar

StartChar: bracketright
Encoding: 93 93 140
Width: 390
Flags: MW
HStem: -110 113<5.5 127 40 120> 734 113<185 324 220 283>
VStem: -16 417
LayerCount: 2
Fore
SplineSet
120 -110 m 2
 16 -110 l 2
 -5 -110 -19 -93 -15 -71 c 2
 -7 -36 l 2
 -3 -15 18 3 40 3 c 2
 127 3 l 1
 283 734 l 1
 196 734 l 2
 174 734 159 752 164 773 c 2
 171 808 l 2
 176 829 198 847 220 847 c 2
 324 847 l 2
 377 847 410 804 399 751 c 2
 237 -14 l 2
 225 -67 173 -110 120 -110 c 2
EndSplineSet
EndChar

StartChar: braceright
Encoding: 125 125 141
Width: 497
Flags: MW
HStem: -110 113<4.5 84 39 57> 734 113<184 261 219 240>
VStem: -16 445 225 204 273 115
LayerCount: 2
Fore
SplineSet
57 -110 m 2xe0
 15 -110 l 2
 -6 -110 -19 -93 -15 -71 c 2
 -7 -36 l 2
 -3 -15 17 3 39 3 c 2
 84 3 l 2
 108 3 130 22 135 45 c 2
 180 255 l 2
 187 290 207 323 237 349 c 0
 245 356 254 363 264 368 c 1
 256 374 250 381 245 388 c 0
 226 414 221 447 228 482 c 2xd0
 273 692 l 2
 277 715 264 734 240 734 c 2
 195 734 l 2
 173 734 159 752 164 773 c 2
 171 808 l 2
 176 829 197 847 219 847 c 2
 261 847 l 2xc8
 349 847 403 776 385 689 c 2
 346 508 l 2
 338 466 362 430 402 426 c 0
 421 423 433 406 429 387 c 2
 421 350 l 2
 417 330 398 314 378 311 c 0xd0
 359 309 340 301 325 288 c 0
 305 272 292 251 287 229 c 2
 249 48 l 2
 230 -39 145 -110 57 -110 c 2xe0
EndSplineSet
EndChar

StartChar: quotedblright
Encoding: 8221 8221 142
Width: 528
Flags: MW
HStem: 418 100<125 128 103 150 328 331> 562 175<157.5 278 172 278 209 375 209 397>
VStem: 103 421
LayerCount: 2
Fore
SplineSet
209 737 m 2
 278 737 l 2
 307 737 326 713 320 684 c 2
 292 553 l 2
 276 479 203 418 128 418 c 2
 103 418 l 1
 125 518 l 1
 150 518 l 2
 170 518 188 534 192 553 c 2
 194 562 l 1
 172 562 l 2
 143 562 124 586 130 615 c 2
 145 684 l 2
 151 713 180 737 209 737 c 2
412 737 m 2
 481 737 l 2
 510 737 529 713 523 684 c 2
 495 553 l 2
 479 479 405 418 331 418 c 2
 306 418 l 1
 328 518 l 1
 353 518 l 2
 372 518 391 534 395 553 c 2
 397 562 l 1
 375 562 l 2
 345 562 327 586 333 615 c 2
 348 684 l 2
 354 713 382 737 412 737 c 2
EndSplineSet
EndChar

StartChar: acircumflex
Encoding: 226 226 143
Width: 583
Flags: MW
HStem: 0 113<103 344 174 344 174 377> 249 114<186.5 397 227 372> 453 114<202 212 212 359> 603 182<214 401 220 401 384.5 438 384.5 489>
VStem: 12 119 400 120
LayerCount: 2
Fore
SplineSet
489 603 m 2
 438 603 l 2
 428 603 419 607 413 614 c 2
 369 670 l 1
 301 614 l 2
 293 607 282 603 271 603 c 2
 220 603 l 2
 208 603 197 610 196 622 c 0
 193 633 199 646 209 655 c 2
 345 767 l 2
 359 779 376 785 393 785 c 0
 409 785 424 779 434 767 c 2
 522 655 l 2
 529 646 528 633 522 622 c 0
 514 610 502 603 489 603 c 2
377 0 m 2
 150 0 l 2
 56 0 -3 76 16 170 c 2
 21 193 l 2
 41 287 133 363 227 363 c 2
 397 363 l 1
 404 397 l 2
 410 428 391 453 359 453 c 2
 212 453 l 2
 181 453 160 479 167 510 c 2
 174 544 l 2
 177 557 189 567 202 567 c 2
 383 567 l 2
 477 567 537 491 517 397 c 2
 445 57 l 2
 438 25 408 0 377 0 c 2
202 249 m 2
 171 249 140 224 134 193 c 2
 129 170 l 2
 122 139 143 113 174 113 c 2
 344 113 l 1
 372 249 l 1
 202 249 l 2
EndSplineSet
EndChar

StartChar: ocircumflex
Encoding: 244 244 144
Width: 603
Flags: MW
HStem: 0 113<123 307 194 283> 453 114<250.5 403 290 379> 603 182<214 401 220 401 384.5 438 384.5 489>
VStem: 32 509 424 117
LayerCount: 2
Fore
SplineSet
489 603 m 2xf0
 438 603 l 2
 428 603 419 607 413 614 c 2
 369 670 l 1
 301 614 l 2
 293 607 282 603 271 603 c 2
 220 603 l 2
 208 603 197 610 196 622 c 0
 193 633 199 646 209 655 c 2
 345 767 l 2
 359 779 376 785 393 785 c 0
 409 785 424 779 434 767 c 2
 522 655 l 2
 529 646 528 633 522 622 c 0
 514 610 502 603 489 603 c 2xf0
283 0 m 2
 170 0 l 2
 76 0 16 76 36 170 c 2
 84 397 l 2
 104 491 196 567 290 567 c 2
 403 567 l 2xe8
 497 567 557 491 537 397 c 2
 489 170 l 2
 469 76 377 0 283 0 c 2
379 453 m 2
 266 453 l 2
 235 453 203 428 197 397 c 2
 149 170 l 2
 142 139 163 113 194 113 c 2
 307 113 l 2
 339 113 369 139 376 170 c 2
 424 397 l 2
 430 428 411 453 379 453 c 2
EndSplineSet
EndChar

StartChar: ucircumflex
Encoding: 251 251 145
Width: 603
Flags: MW
HStem: 0 113<123 307 194 283> 547 20G<143 177 177 192.5 517 551 551 557> 603 182<214 401 220 401 384.5 438 384.5 489>
VStem: 32 536
LayerCount: 2
Fore
SplineSet
489 603 m 2
 438 603 l 2
 428 603 419 607 413 614 c 2
 369 670 l 1
 301 614 l 2
 293 607 282 603 271 603 c 2
 220 603 l 2
 208 603 197 610 196 622 c 0
 193 633 199 646 209 655 c 2
 345 767 l 2
 359 779 376 785 393 785 c 0
 409 785 424 779 434 767 c 2
 522 655 l 2
 529 646 528 633 522 622 c 0
 514 610 502 603 489 603 c 2
283 0 m 2
 170 0 l 2
 76 0 16 76 36 170 c 2
 115 544 l 2
 118 557 130 567 143 567 c 2
 177 567 l 2
 208 567 227 541 221 510 c 2
 149 170 l 2
 142 139 163 113 194 113 c 2
 307 113 l 2
 339 113 369 139 376 170 c 2
 448 510 l 2
 454 541 485 567 517 567 c 2
 551 567 l 2
 563 567 571 557 568 544 c 2
 489 170 l 2
 469 76 377 0 283 0 c 2
EndSplineSet
EndChar

StartChar: icircumflex
Encoding: 238 238 146
Width: 271
Flags: MW
HStem: 0 21G<16.5 23 23 91> 547 20G<143 211 211 217> 603 182<43 230 49 230 213.5 267 213.5 318>
VStem: 4 352
LayerCount: 2
Fore
SplineSet
318 603 m 2
 267 603 l 2
 257 603 248 607 242 614 c 2
 198 670 l 1
 130 614 l 2
 122 607 111 603 100 603 c 2
 49 603 l 2
 37 603 26 610 25 622 c 0
 22 633 28 646 38 655 c 2
 174 767 l 2
 188 779 205 785 222 785 c 0
 238 785 253 779 263 767 c 2
 351 655 l 2
 358 646 357 633 351 622 c 0
 343 610 331 603 318 603 c 2
211 567 m 2
 223 567 231 557 228 544 c 2
 117 23 l 2
 115 10 103 0 91 0 c 2
 23 0 l 2
 10 0 2 10 4 23 c 2
 115 544 l 2
 118 557 130 567 143 567 c 2
 211 567 l 2
EndSplineSet
EndChar

StartChar: Acircumflex
Encoding: 194 194 147
Width: 626
Flags: MW
HStem: 0 21G<16.5 23 23 57 403.5 419 419 453> 261 113<192 418 168 442> 624 113<286.5 462 326 438> 766 182<256 444 262 444 427.5 480 427.5 531>
VStem: 4 596
LayerCount: 2
Fore
SplineSet
531 766 m 2
 480 766 l 2
 470 766 461 770 456 777 c 2
 412 833 l 1
 344 777 l 2
 335 770 324 766 313 766 c 2
 262 766 l 2
 250 766 240 773 238 785 c 0
 236 796 241 809 251 818 c 2
 387 930 l 2
 402 942 419 948 436 948 c 0
 452 948 467 942 476 930 c 2
 564 818 l 2
 571 809 571 796 564 785 c 0
 557 773 544 766 531 766 c 2
462 737 m 2xe8
 556 737 616 661 596 567 c 2
 480 23 l 2
 478 10 466 0 453 0 c 2
 419 0 l 2
 388 0 368 25 375 57 c 2
 418 261 l 1
 168 261 l 1
 125 57 l 2
 118 25 88 0 57 0 c 2
 23 0 l 2
 10 0 2 10 4 23 c 2
 120 567 l 2
 140 661 232 737 326 737 c 2
 462 737 l 2xe8
192 374 m 1
 442 374 l 1
 483 567 l 2
 490 598 469 624 438 624 c 2
 302 624 l 2
 271 624 240 598 233 567 c 2
 192 374 l 1
EndSplineSet
EndChar

StartChar: Ecircumflex
Encoding: 202 202 148
Width: 606
Flags: MW
HStem: 0 113<41 443 137 443 443 453> 317 114<204 442 442 452 180 442> 624 113<245 551 245 245> 766 182<256 444 262 444 427.5 480 427.5 531>
VStem: 11 616
LayerCount: 2
Fore
SplineSet
531 766 m 2
 480 766 l 2
 470 766 461 770 456 777 c 2
 412 833 l 1
 344 777 l 2
 335 770 324 766 313 766 c 2
 262 766 l 2
 250 766 240 773 238 785 c 0
 236 796 241 809 251 818 c 2
 387 930 l 2
 402 942 419 948 436 948 c 0
 452 948 467 942 476 930 c 2
 564 818 l 2
 571 809 571 796 564 785 c 0
 557 773 544 766 531 766 c 2
620 680 m 2xe8
 613 649 583 624 551 624 c 2
 245 624 l 1
 204 431 l 1
 442 431 l 2
 474 431 494 405 487 374 c 2
 480 340 l 2
 477 328 465 317 452 317 c 2
 180 317 l 1
 137 113 l 1
 443 113 l 2
 475 113 494 88 488 57 c 2
 480 23 l 2
 478 10 466 0 453 0 c 2
 57 0 l 2
 25 0 5 25 12 57 c 2
 144 680 l 2
 151 712 181 737 213 737 c 2
 609 737 l 2
 622 737 630 727 627 714 c 2
 620 680 l 2xe8
EndSplineSet
EndChar

StartChar: Icircumflex
Encoding: 206 206 149
Width: 261
Flags: MW
HStem: 0 21G<14.5 21 21 89> 717 20G<177 211 211 226.5> 766 182<72 260 78 260 243.5 296 243.5 347>
VStem: 2 383
LayerCount: 2
Fore
SplineSet
347 766 m 2
 296 766 l 2
 286 766 277 770 272 777 c 2
 228 833 l 1
 160 777 l 2
 151 770 140 766 129 766 c 2
 78 766 l 2
 66 766 56 773 54 785 c 0
 52 796 57 809 67 818 c 2
 203 930 l 2
 218 942 235 948 252 948 c 0
 268 948 283 942 292 930 c 2
 380 818 l 2
 387 809 387 796 380 785 c 0
 373 773 360 766 347 766 c 2
89 0 m 2
 21 0 l 2
 8 0 0 10 2 23 c 2
 149 714 l 2
 152 727 164 737 177 737 c 2
 211 737 l 2
 242 737 262 712 255 680 c 2xd0
 115 23 l 2
 113 10 101 0 89 0 c 2
EndSplineSet
EndChar

StartChar: Aring
Encoding: 197 197 150
Width: 626
Flags: MW
HStem: 0 21G<16.5 23 23 57 403.5 419 419 453> 261 113<192 418 168 442> 624 113<286.5 462 326 438> 758 90<410 425.5 410 431.5> 904 90<422 437.5>
VStem: 303 93 452 93
LayerCount: 2
Fore
SplineSet
399 758 m 0
 334 758 292 811 306 876 c 0
 320 941 384 994 449 994 c 0
 514 994 556 941 542 876 c 0
 528 811 464 758 399 758 c 0
430 904 m 0
 414 904 399 891 396 876 c 0
 392 860 402 848 418 848 c 0
 433 848 448 860 452 876 c 0
 455 891 445 904 430 904 c 0
462 737 m 2xee
 556 737 616 661 596 567 c 2
 480 23 l 2
 478 10 466 0 453 0 c 2
 419 0 l 2
 388 0 368 25 375 57 c 2
 418 261 l 1
 168 261 l 1
 125 57 l 2
 118 25 88 0 57 0 c 2
 23 0 l 2
 10 0 2 10 4 23 c 2
 120 567 l 2
 140 661 232 737 326 737 c 2
 462 737 l 2xee
192 374 m 1
 442 374 l 1
 483 567 l 2
 490 598 469 624 438 624 c 2
 302 624 l 2
 271 624 240 598 233 567 c 2
 192 374 l 1
EndSplineSet
EndChar

StartChar: ring
Encoding: 730 730 151
Width: 386
Flags: MW
HStem: 758 90<290 305.5 290 311.5> 904 90<302 317.5>
VStem: 183 93 332 93
LayerCount: 2
Fore
SplineSet
279 758 m 0
 214 758 172 811 186 876 c 0
 200 941 264 994 329 994 c 0
 394 994 436 941 422 876 c 0
 408 811 344 758 279 758 c 0
310 904 m 0
 294 904 279 891 276 876 c 0
 272 860 282 848 298 848 c 0
 313 848 328 860 332 876 c 0
 335 891 325 904 310 904 c 0
EndSplineSet
EndChar

StartChar: Ccedilla
Encoding: 199 199 152
Width: 626
Flags: MW
HStem: -233 100<114.5 232 146 210> 0 113<123 330 170 330 275 306 275 275> 624 113<286.5 462 326 438>
VStem: 237 100<4.29497e+09 4.29497e+09> 479 120
LayerCount: 2
Fore
SplineSet
493 510 m 2
 481 510 473 520 476 533 c 2
 483 567 l 2
 490 598 469 624 438 624 c 2
 302 624 l 2
 271 624 240 598 233 567 c 2
 149 170 l 2
 142 139 163 113 194 113 c 2
 330 113 l 2
 361 113 392 139 399 170 c 2
 406 204 l 2
 412 235 443 261 474 261 c 2
 508 261 l 2
 521 261 529 251 526 238 c 2
 512 170 l 2
 492 76 400 0 306 0 c 2
 275 0 l 1
 269 -27 l 1
 291 -30 310 -40 322 -57 c 0
 338 -77 343 -103 337 -131 c 0
 324 -187 267 -233 210 -233 c 2
 125 -233 l 2
 104 -233 91 -216 95 -196 c 2
 100 -171 l 2
 105 -150 125 -133 146 -133 c 2
 232 -133 l 2
 234 -133 236 -132 237 -130 c 0
 237 -129 237 -128 237 -127 c 1
 236 -127 236 -126 234 -126 c 2
 209 -126 l 2
 175 -126 153 -99 161 -65 c 2
 175 0 l 1
 170 0 l 2
 76 0 16 76 36 170 c 2
 120 567 l 2
 140 661 232 737 326 737 c 2
 462 737 l 2
 556 737 616 661 596 567 c 2
 589 533 l 2
 586 520 574 510 561 510 c 2
 493 510 l 2
EndSplineSet
EndChar

StartChar: cedilla
Encoding: 184 184 153
Width: 378
Flags: MW
HStem: -233 100<-21.5 95 9 73> -126 178<55 72 72 97>
VStem: -42 244 100 100<4.29497e+09 4.29497e+09>
LayerCount: 2
Fore
SplineSet
73 -233 m 2xa0
 -11 -233 l 2
 -32 -233 -45 -216 -41 -196 c 2
 -36 -171 l 2
 -31 -150 -11 -133 9 -133 c 2xa0
 95 -133 l 2
 97 -133 99 -132 100 -130 c 0
 100 -129 100 -128 100 -127 c 1
 99 -127 99 -126 97 -126 c 2
 72 -126 l 2
 38 -126 16 -99 24 -65 c 2
 49 52 l 1
 149 52 l 1
 132 -27 l 1
 154 -30 173 -40 185 -57 c 0x50
 201 -77 206 -103 200 -131 c 0x90
 187 -187 130 -233 73 -233 c 2xa0
EndSplineSet
EndChar

StartChar: Idieresis
Encoding: 207 207 154
Width: 267
Flags: MW
HStem: 772 136<105 114 286.5 295>
VStem: 5 356
LayerCount: 2
Fore
SplineSet
92 0 m 2
 104 0 116 10 118 23 c 2
 258 680 l 2
 265 712 245 737 214 737 c 2
 180 737 l 2
 167 737 155 727 152 714 c 2
 5 23 l 2
 3 10 11 0 24 0 c 2
 92 0 l 2
124 908 m 0
 162 908 186 878 178 840 c 0
 170 802 133 772 95 772 c 0
 57 772 34 802 42 840 c 0
 50 878 86 908 124 908 c 0
305 908 m 0
 343 908 367 878 359 840 c 0
 351 802 314 772 276 772 c 0
 239 772 215 802 223 840 c 0
 231 878 268 908 305 908 c 0
EndSplineSet
EndChar

StartChar: quoteleft
Encoding: 8216 8216 155
Width: 325
Flags: MW
HStem: 418 175<126.5 248 141 248> 637 100<260.5 316 291 295>
VStem: 99 217
LayerCount: 2
Fore
SplineSet
210 418 m 2
 141 418 l 2
 112 418 93 442 100 471 c 2
 127 602 l 2
 143 676 217 737 291 737 c 2
 316 737 l 1
 295 637 l 1
 270 637 l 2
 251 637 231 621 227 602 c 2
 226 593 l 1
 248 593 l 2
 278 593 295 569 289 540 c 2
 275 471 l 2
 268 442 240 418 210 418 c 2
EndSplineSet
EndChar

StartChar: quoteright
Encoding: 8217 8217 156
Width: 325
Flags: MW
HStem: 418 100<125 128 103 150> 562 175<157 278 172 278>
VStem: 103 218
LayerCount: 2
Fore
SplineSet
209 737 m 2
 278 737 l 2
 307 737 326 713 320 684 c 2
 292 553 l 2
 276 479 202 418 128 418 c 2
 103 418 l 1
 125 518 l 1
 150 518 l 2
 169 518 188 534 192 553 c 2
 194 562 l 1
 172 562 l 2
 142 562 124 586 130 615 c 2
 145 684 l 2
 151 713 179 737 209 737 c 2
EndSplineSet
EndChar

StartChar: asciitilde
Encoding: 126 126 157
Width: 460
Flags: MW
HStem: 777 80 804 79
VStem: 168 325
LayerCount: 2
Fore
SplineSet
436 887 m 2xa0
 475 887 l 2
 490 887 498 872 490 857 c 0
 476 832 456 810 428 795 c 0
 391 774 349 771 317 788 c 2xa0
 295 800 l 2
 280 808 266 802 260 799 c 0
 257 797 251 792 245 785 c 0
 240 778 232 774 223 774 c 2
 187 774 l 2
 171 774 164 788 171 803 c 0
 185 829 206 851 233 866 c 0
 270 887 311 889 344 872 c 2x60
 367 860 l 2
 381 853 395 859 401 862 c 0
 404 864 411 869 417 876 c 0
 421 883 428 887 436 887 c 2xa0
EndSplineSet
EndChar

StartChar: circumflex
Encoding: 710 710 158
Width: 481
Flags: MW
HStem: 603 182<153 340 159 340 323.5 377 323.5 428>
VStem: 134 332
LayerCount: 2
Fore
SplineSet
428 603 m 2
 377 603 l 2
 367 603 358 607 352 614 c 2
 308 670 l 1
 240 614 l 2
 232 607 221 603 210 603 c 2
 159 603 l 2
 147 603 136 610 135 622 c 0
 132 633 138 646 148 655 c 2
 284 767 l 2
 298 779 315 785 332 785 c 0
 348 785 363 779 373 767 c 2
 461 655 l 2
 468 646 467 633 461 622 c 0
 453 610 441 603 428 603 c 2
EndSplineSet
EndChar

StartChar: Ucircumflex
Encoding: 219 219 159
Width: 626
Flags: MW
HStem: 0 113<123 330 194 306> 717 20G<179 213 213 228.5 575 609 609 615.5> 774 182<221 408 227 408 391.5 445 391.5 496>
VStem: 32 595
LayerCount: 2
Fore
SplineSet
306 0 m 2
 170 0 l 2
 76 0 16 76 36 170 c 2
 151 714 l 2
 154 727 166 737 179 737 c 2
 213 737 l 2
 244 737 264 712 257 680 c 2
 149 170 l 2
 142 139 163 113 194 113 c 2
 330 113 l 2
 361 113 392 139 399 170 c 2
 507 680 l 2
 514 712 544 737 575 737 c 2
 609 737 l 2
 622 737 630 727 627 714 c 2
 512 170 l 2
 492 76 400 0 306 0 c 2
496 774 m 2
 445 774 l 2
 435 774 426 778 420 785 c 2
 376 841 l 1
 308 785 l 2
 300 778 289 774 278 774 c 2
 227 774 l 2
 215 774 204 781 203 793 c 0
 200 804 206 817 216 826 c 2
 352 938 l 2
 366 950 383 956 400 956 c 0
 416 956 431 950 441 938 c 2
 529 826 l 2
 536 817 535 804 529 793 c 0
 521 781 509 774 496 774 c 2
EndSplineSet
EndChar

StartChar: Ocircumflex
Encoding: 212 212 160
Width: 626
Flags: MW
HStem: 0 113<123 330 194 306> 624 113<286.5 462 326 438> 774 182<229 416 235 416 399.5 453 399.5 504>
VStem: 32 568
LayerCount: 2
Fore
SplineSet
306 0 m 2
 170 0 l 2
 76 0 16 76 36 170 c 2
 120 567 l 2
 140 661 232 737 326 737 c 2
 462 737 l 2
 556 737 616 661 596 567 c 2
 512 170 l 2
 492 76 400 0 306 0 c 2
302 624 m 2
 271 624 240 598 233 567 c 2
 149 170 l 2
 142 139 163 113 194 113 c 2
 330 113 l 2
 361 113 392 139 399 170 c 2
 483 567 l 2
 490 598 469 624 438 624 c 2
 302 624 l 2
504 774 m 2
 453 774 l 2
 443 774 434 778 428 785 c 2
 384 841 l 1
 316 785 l 2
 308 778 297 774 286 774 c 2
 235 774 l 2
 223 774 212 781 211 793 c 0
 208 804 214 817 224 826 c 2
 360 938 l 2
 374 950 391 956 408 956 c 0
 424 956 439 950 449 938 c 2
 537 826 l 2
 544 817 543 804 537 793 c 0
 529 781 517 774 504 774 c 2
EndSplineSet
EndChar

StartChar: quotesingle
Encoding: 39 39 161
Width: 263
Flags: MW
HStem: 535 202<141.5 230 152 230> 717 20G<195 230 230 240.5>
VStem: 121 141
LayerCount: 2
Fore
SplineSet
152 535 m 2xa0
 131 535 117 552 122 574 c 2
 148 698 l 2
 152 719 174 737 195 737 c 2
 230 737 l 2
 251 737 265 719 261 698 c 2
 235 574 l 2
 230 552 208 535 187 535 c 2
 152 535 l 2xa0
EndSplineSet
EndChar

StartChar: quotedbl
Encoding: 34 34 162
Width: 413
Flags: MW
HStem: 535 202<141.5 230 152 230 195 302 195 337>
VStem: 121 291
LayerCount: 2
Fore
SplineSet
152 535 m 2
 131 535 117 552 122 574 c 2
 148 698 l 2
 152 719 174 737 195 737 c 2
 230 737 l 2
 251 737 265 719 261 698 c 2
 235 574 l 2
 230 552 208 535 187 535 c 2
 152 535 l 2
302 535 m 2
 281 535 267 552 272 574 c 2
 298 698 l 2
 302 719 324 737 345 737 c 2
 380 737 l 2
 401 737 415 719 411 698 c 2
 385 574 l 2
 380 552 358 535 337 535 c 2
 302 535 l 2
EndSplineSet
EndChar

StartChar: slash
Encoding: 47 47 163
Width: 525
Flags: MW
HStem: -25 787<27.5 496 34 496>
VStem: 3 525
LayerCount: 2
Fore
SplineSet
34 -25 m 6
 21 -25 10 -19 6 -8 c 4
 1 2 2 16 8 28 c 6
 417 736 l 6
 426 752 443 762 459 762 c 6
 496 762 l 6
 509 762 520 756 525 745 c 4
 530 735 529 721 522 709 c 6
 114 1 l 6
 104 -15 87 -25 71 -25 c 6
 34 -25 l 6
EndSplineSet
EndChar

StartChar: backslash
Encoding: 92 92 164
Width: 525
Flags: MW
HStem: -25 787<201 292 201 329>
VStem: 153 224
LayerCount: 2
Fore
SplineSet
329 -25 m 2
 292 -25 l 2
 276 -25 263 -15 261 1 c 2
 153 709 l 2
 152 721 157 735 166 745 c 0
 175 756 188 762 201 762 c 2
 238 762 l 2
 254 762 267 752 270 736 c 2
 377 28 l 2
 379 16 374 2 365 -8 c 0
 355 -19 342 -25 329 -25 c 2
EndSplineSet
EndChar

StartChar: bar
Encoding: 124 124 165
Width: 263
Flags: MW
HStem: -182 1101<-10 269 0 269>
VStem: -31 332
LayerCount: 2
Fore
SplineSet
0 -182 m 2
 -20 -182 -34 -164 -30 -143 c 2
 187 880 l 2
 191 901 213 919 234 919 c 2
 269 919 l 2
 290 919 304 901 300 880 c 2
 82 -143 l 2
 78 -164 56 -182 35 -182 c 2
 0 -182 l 2
EndSplineSet
EndChar

StartChar: less
Encoding: 60 60 166
Width: 709
Flags: MW
HStem: -8 753<493 663.5>
VStem: 76 626
LayerCount: 2
Fore
SplineSet
497 -8 m 0
 489 -8 481 -6 476 -1 c 2
 94 315 l 2
 79 327 73 347 78 368 c 0
 82 390 97 410 117 422 c 2
 633 738 l 2
 640 743 649 745 657 745 c 0
 670 745 681 739 685 728 c 2
 699 700 l 2
 708 682 698 658 679 645 c 2
 226 368 l 1
 561 91 l 2
 575 79 575 55 558 37 c 2
 532 9 l 2
 523 -2 510 -8 497 -8 c 0
EndSplineSet
EndChar

StartChar: greater
Encoding: 62 62 167
Width: 709
Flags: MW
HStem: -8 753<51.5 222>
VStem: 12 626
LayerCount: 2
Fore
SplineSet
58 -8 m 0
 45 -8 34 -2 29 9 c 2
 15 37 l 2
 6 55 16 79 36 91 c 2
 489 368 l 1
 154 645 l 2
 139 658 139 682 156 700 c 2
 182 728 l 2
 192 739 205 745 218 745 c 0
 226 745 233 743 238 738 c 2
 620 422 l 2
 636 410 641 390 637 368 c 0
 632 347 618 327 597 315 c 2
 81 -1 l 2
 74 -6 66 -8 58 -8 c 0
EndSplineSet
EndChar

StartChar: equal
Encoding: 61 61 168
Width: 586
Flags: MW
HStem: 142 113<58.5 451 93 427> 311 113<94.5 487 129 463>
VStem: 37 481
LayerCount: 2
Fore
SplineSet
69 142 m 2
 48 142 34 160 38 182 c 2
 45 216 l 2
 50 238 72 255 93 255 c 2
 451 255 l 2
 472 255 486 238 481 216 c 2
 474 182 l 2
 470 160 448 142 427 142 c 2
 69 142 l 2
105 311 m 2
 84 311 69 329 74 351 c 2
 81 385 l 2
 86 407 108 424 129 424 c 2
 487 424 l 2
 508 424 522 407 517 385 c 2
 510 351 l 2
 505 329 484 311 463 311 c 2
 105 311 l 2
EndSplineSet
EndChar

StartChar: multiply
Encoding: 215 215 169
Width: 634
Flags: MW
HStem: 42 483<66.5 180 169.5 433>
VStem: 22 561
LayerCount: 2
Fore
SplineSet
382 283 m 1
 500 133 l 2
 506 126 508 116 506 105 c 0
 504 95 498 85 488 78 c 2
 459 53 l 2
 449 46 438 42 428 42 c 0
 417 42 409 46 403 53 c 2
 285 204 l 1
 102 53 l 2
 93 46 82 42 72 42 c 0
 61 42 52 46 47 53 c 2
 27 78 l 2
 22 85 20 95 22 105 c 0
 24 116 30 126 39 133 c 2
 222 283 l 1
 103 434 l 2
 97 441 95 451 98 462 c 0
 100 472 106 482 114 489 c 2
 145 514 l 2
 153 521 164 525 175 525 c 0
 185 525 194 521 200 514 c 2
 319 363 l 1
 501 514 l 2
 510 521 520 525 531 525 c 0
 541 525 550 521 557 514 c 2
 575 489 l 2
 582 482 584 472 582 462 c 0
 579 451 573 441 564 434 c 2
 382 283 l 1
EndSplineSet
EndChar

StartChar: asciicircum
Encoding: 94 94 170
Width: 481
Flags: MW
HStem: 766 182<187 375 193 375 358.5 411 358.5 462>
VStem: 169 331
LayerCount: 2
Fore
SplineSet
462 766 m 2
 411 766 l 2
 401 766 392 770 387 777 c 2
 343 833 l 1
 275 777 l 2
 266 770 255 766 244 766 c 2
 193 766 l 2
 181 766 171 773 169 785 c 0
 167 796 172 809 182 818 c 2
 318 930 l 2
 333 942 350 948 367 948 c 0
 383 948 398 942 407 930 c 2
 495 818 l 2
 502 809 502 796 495 785 c 0
 488 773 475 766 462 766 c 2
EndSplineSet
EndChar

StartChar: plusminus
Encoding: 177 177 171
Width: 608
Flags: MW
HStem: 321 113<96.5 264 131 240 377 486 131 353>
VStem: 7 534
LayerCount: 2
Fore
SplineSet
510 434 m 2
 531 434 545 416 540 395 c 2
 533 360 l 2
 529 339 507 321 486 321 c 2
 353 321 l 1
 324 188 l 2
 320 167 298 149 277 149 c 2
 242 149 l 2
 220 149 207 167 211 188 c 2
 240 321 l 1
 107 321 l 2
 86 321 72 339 76 360 c 2
 83 395 l 2
 88 416 110 434 131 434 c 2
 264 434 l 1
 292 567 l 2
 296 588 317 606 339 606 c 2
 374 606 l 2
 395 606 409 588 405 567 c 2
 377 434 l 1
 510 434 l 2
39 1 m 2
 419 1 l 2
 441 1 462 19 466 40 c 2
 473 75 l 2
 478 96 465 114 443 114 c 2
 63 114 l 2
 42 114 20 96 15 75 c 2
 8 40 l 2
 4 19 18 1 39 1 c 2
EndSplineSet
EndChar
